<?xml version="1.0" standalone="no"?>
<!DOCTYPE svg PUBLIC "-//W3C//DTD SVG 20010904//EN"
 "http://www.w3.org/TR/2001/REC-SVG-20010904/DTD/svg10.dtd">
<svg version="1.0" xmlns="http://www.w3.org/2000/svg"
 width="300.000000pt" height="300.000000pt" viewBox="0 0 300.000000 300.000000"
 preserveAspectRatio="xMidYMid meet">
<metadata>
Created by potrace 1.11, written by Peter Selinger 2001-2013
</metadata>
<g transform="translate(0.000000,300.000000) scale(0.100000,-0.100000)"
fill="#000000" stroke="none">
<path d="M2283 2822 c-105 -38 -189 -117 -246 -233 -38 -79 -11 -71 -329 -99
-599 -54 -835 -97 -1041 -189 -198 -89 -342 -250 -378 -420 -16 -77 -7 -213
19 -285 59 -163 191 -304 326 -350 15 -5 5 -20 -65 -94 -135 -141 -185 -258
-177 -411 9 -163 80 -304 221 -438 84 -79 167 -126 263 -149 204 -47 447 58
675 293 311 321 402 586 464 1356 4 46 12 80 18 82 7 1 61 10 121 20 356 54
556 182 610 390 53 202 -47 432 -222 513 -76 34 -185 40 -259 14z m90 -321
c39 -35 62 -117 48 -169 -16 -58 -44 -88 -115 -122 -97 -46 -236 -74 -517
-105 l-56 -6 -6 -177 c-10 -261 -50 -575 -98 -752 -82 -306 -406 -640 -624
-643 -67 -1 -117 24 -188 94 -107 107 -144 236 -96 336 29 60 113 142 259 252
345 260 489 422 569 641 31 87 66 240 54 240 -2 0 -68 -7 -146 -15 -266 -29
-381 -56 -474 -111 -86 -50 -102 -118 -58 -250 14 -41 25 -83 25 -94 0 -24
-39 -51 -113 -79 -51 -19 -61 -19 -90 -7 -75 31 -150 159 -149 253 1 71 39
151 95 197 144 116 379 173 917 221 305 27 464 52 505 79 14 9 29 33 36 58 25
93 76 166 129 186 33 12 59 5 93 -27z m-1145 -762 c-24 -34 -48 -62 -52 -63
-4 -1 -16 20 -26 46 l-18 48 46 14 c26 8 58 15 70 15 23 1 22 -2 -20 -60z"/>
</g>
</svg>
