<?xml version="1.0" encoding="UTF-8"?>
<svg width="92px" height="83px" viewBox="0 0 92 83" version="1.1" xmlns="http://www.w3.org/2000/svg" xmlns:xlink="http://www.w3.org/1999/xlink">
    <!-- Generator: Sketch 46.2 (44496) - http://www.bohemiancoding.com/sketch -->
    <title>calendar copy</title>
    <desc>Created with Sketch.</desc>
    <defs></defs>
    <g id="Page-1" stroke="none" stroke-width="1" fill="none" fill-rule="evenodd">
        <g id="dripicons-v2-by-amit-jakhu" transform="translate(-2934.000000, -2773.000000)" fill="#FFFFFF">
            <path d="M2973.688,2788 L2986.312,2788 C2988.521,2788 2990.312,2786.209 2990.312,2784 C2990.312,2781.791 2988.521,2780 2986.312,2780 L2973.688,2780 C2971.479,2780 2969.688,2781.791 2969.688,2784 C2969.688,2786.209 2971.479,2788 2973.688,2788 L2973.688,2788 Z M2942,2848 L3018,2848 L3018,2812 L2942,2812 L2942,2848 Z M3026,2784.37 L3026,2852 C3026,2854.209 3024.209,2856 3022,2856 L2938,2856 C2935.791,2856 2934,2854.209 2934,2852 L2934,2784.37 C2934,2782.161 2935.791,2780 2938,2780 L2947.349,2780 C2949.558,2780 2951.349,2781.791 2951.349,2784 C2951.349,2786.209 2949.558,2788 2947.349,2788 L2942,2788 L2942,2805 L3018,2805 L3018,2788 L3012.65,2788 C3010.441,2788 3008.65,2786.209 3008.65,2784 C3008.65,2781.791 3010.441,2780 3012.65,2780 L3022,2780 C3024.209,2780 3026,2782.161 3026,2784.37 L3026,2784.37 Z M2999,2795.806 C3001.761,2795.806 3004,2793.567 3004,2790.806 L3004,2778 C3004,2775.239 3001.761,2773 2999,2773 C2996.238,2773 2994,2775.239 2994,2778 L2994,2790.806 C2994,2793.567 2996.238,2795.806 2999,2795.806 L2999,2795.806 Z M2956,2790.806 L2956,2778 C2956,2775.239 2958.238,2773 2961,2773 C2963.761,2773 2966,2775.239 2966,2778 L2966,2790.806 C2966,2793.567 2963.761,2795.806 2961,2795.806 C2958.238,2795.806 2956,2793.567 2956,2790.806 L2956,2790.806 Z" id="calendar-copy"></path>
        </g>
    </g>
</svg>