<?xml version="1.0" encoding="UTF-8"?>
<svg width="21px" height="21px" viewBox="0 0 21 21" version="1.1" xmlns="http://www.w3.org/2000/svg" xmlns:xlink="http://www.w3.org/1999/xlink">
    <!-- Generator: Sketch 46.2 (44496) - http://www.bohemiancoding.com/sketch -->
    <title>medium</title>
    <desc>Created with Sketch.</desc>
    <defs></defs>
    <g id="Symbols" stroke="none" stroke-width="1" fill="none" fill-rule="evenodd">
        <g id="social-3" transform="translate(0.000000, -55.000000)">
            <g id="icon-social">
                <g id="medium" transform="translate(0.000000, 55.000000)">
                    <circle id="Oval-3-Copy-3" fill="#FF5512" cx="10.5" cy="10.5" r="10.5"></circle>
                    <path d="M12.6400674,5.00537485 C12.4877232,4.99104192 12.3353799,5.00537485 12.1902906,5.04837361 C11.8964841,5.13078723 11.6353234,5.31711522 11.4648442,5.58585774 L9.87974307,8.0797862 L9.52790179,7.32730824 L9.52064779,7.33089125 C9.43722121,7.07289865 9.25948707,6.85432181 9.00558036,6.72890851 L5.76283529,5.12720423 C4.96847121,4.73304932 4,5.32428214 4,6.20217339 L4,13.1464747 C4,13.6660429 4.3010605,14.1426123 4.76897321,14.3755221 L7.80859421,15.8768959 C8.60295736,16.2674678 9.57142857,15.679818 9.57142857,14.8019267 L9.57142857,13.0783931 L15.2407926,15.8768959 C16.0315288,16.2674678 17,15.676235 17,14.8019267 L17,7.69996422 C17,7.27714256 16.7569752,6.88657066 16.3761161,6.69665967 L16.3724891,6.69665967 L13.0898442,5.12362122 C12.9447549,5.05553961 12.7924107,5.01612385 12.6400674,5.00537485 Z M5.19335914,5.90834895 C5.24051386,5.90834895 5.29492164,5.91909795 5.34570336,5.94418079 L8.59207636,7.54946808 C8.62472121,7.567384 8.64285714,7.59604985 8.64285714,7.63188261 L8.64285714,14.8019267 C8.64285714,15.0348365 8.43610514,15.1602498 8.22935314,15.0599193 L5.18247814,13.5549625 C5.02650693,13.4761319 4.92857143,13.3220527 4.92857143,13.1464747 L4.92857143,6.20217339 C4.92857143,6.02659532 5.04826986,5.91193195 5.19335914,5.90834895 Z M12.4441964,5.92984787 C12.5203681,5.90476503 12.6037946,5.91193195 12.6835942,5.95134771 L15.9589841,7.52080223 C16.0097659,7.54588508 16.0387837,7.58888384 16.0569196,7.64263253 L12.3897877,13.4367161 L10.3476567,9.07234083 L12.2555804,6.07317709 C12.2991071,5.99792948 12.3680248,5.95134771 12.4441964,5.92984787 Z M16.0714286,9.34825028 L16.0714286,14.8019267 C16.0714286,15.0348365 15.8646766,15.1602498 15.6542966,15.0599193 L13.2204246,13.8559539 L16.0714286,9.34825028 Z M9.57142857,9.60265896 L11.0658482,12.7917346 L9.57142857,12.0535887 L9.57142857,9.60265896 Z" id="Shape" fill="#FFFFFF" fill-rule="nonzero"></path>
                </g>
            </g>
        </g>
    </g>
</svg>