<?xml version="1.0" encoding="UTF-8"?>
<svg width="21px" height="21px" viewBox="0 0 21 21" version="1.1" xmlns="http://www.w3.org/2000/svg" xmlns:xlink="http://www.w3.org/1999/xlink">
    <!-- Generator: Sketch 46.2 (44496) - http://www.bohemiancoding.com/sketch -->
    <title>github</title>
    <desc>Created with Sketch.</desc>
    <defs></defs>
    <g id="Symbols" stroke="none" stroke-width="1" fill="none" fill-rule="evenodd">
        <g id="social-3">
            <g id="icon-social">
                <g id="github">
                    <circle id="Oval-3-Copy-4" fill="#FF5512" cx="10.5" cy="10.5" r="10.5"></circle>
                    <path d="M16.1280687,7.31847279 C15.5468206,6.29760058 14.7583948,5.48937464 13.7625836,4.89361263 C12.7666243,4.29782023 11.6793335,4 10.4999407,4 C9.32069612,4 8.23304967,4.29791139 7.2372978,4.89361263 C6.24139771,5.48934425 5.45300151,6.29760058 4.87175348,7.31847279 C4.29059437,8.33931461 4,9.45408178 4,10.6627439 C4,12.1146213 4.41322917,13.4201867 5.23989502,14.5797743 C6.06647193,15.739453 7.13428694,16.5419055 8.44325111,16.9872229 C8.59561825,17.0162118 8.70841143,16.9958223 8.78174923,16.926571 C8.85511668,16.8572285 8.89175594,16.7703832 8.89175594,16.6663999 C8.89175594,16.6490491 8.89030341,16.4929525 8.88748729,16.1979278 C8.88458223,15.9029032 8.88321864,15.6455277 8.88321864,15.4259229 L8.68855035,15.4604422 C8.56443338,15.4837488 8.40785687,15.4936245 8.21882083,15.4908289 C8.02987372,15.4881245 7.83372326,15.4678261 7.63063624,15.4300858 C7.42746029,15.3926798 7.23848353,15.3059257 7.06355776,15.1700059 C6.88872091,15.0340861 6.76460394,14.8561719 6.6912365,14.6365367 L6.60660455,14.4368959 C6.55019314,14.3039844 6.46138147,14.1563354 6.34005099,13.9944957 C6.2187205,13.8325041 6.09602641,13.7226865 5.97190945,13.6648606 L5.91265226,13.6213772 C5.87316724,13.5924794 5.83652798,13.5576258 5.80264556,13.5171811 C5.76879278,13.4767364 5.74344767,13.4362613 5.72652128,13.3957254 C5.70956525,13.3551591 5.72361622,13.3218857 5.76882243,13.2957835 C5.81402863,13.2696813 5.89572588,13.25701 6.01426988,13.25701 L6.18347448,13.2829299 C6.29632695,13.306115 6.43591778,13.3753663 6.60242483,13.4911093 C6.76884295,13.6067612 6.9056473,13.7571146 7.01286752,13.942109 C7.14270567,14.1793077 7.29913396,14.3600479 7.48259704,14.4844208 C7.6659119,14.6087936 7.85073858,14.6708737 8.03689921,14.6708737 C8.22305984,14.6708737 8.38384571,14.6564096 8.5193161,14.6276334 C8.65463828,14.5987052 8.78160102,14.5552218 8.90014502,14.4974263 C8.95092419,14.1097525 9.08918107,13.8119323 9.31479708,13.6037529 C8.99322534,13.569112 8.70411314,13.516938 8.44731225,13.4475651 C8.19065959,13.3781011 7.92543998,13.2653664 7.65183128,13.1090571 C7.37807436,12.9529605 7.15097618,12.7591236 6.97047744,12.5278807 C6.78994906,12.2965162 6.64179128,11.9927706 6.52621162,11.6169173 C6.41057267,11.240912 6.35273837,10.807172 6.35273837,10.3155756 C6.35273837,9.61561757 6.57565683,9.01997711 7.02140482,8.52832 C6.81259663,8.0020828 6.8323095,7.41215504 7.08060272,6.7585975 C7.24423436,6.70648427 7.48689533,6.74559198 7.80846707,6.87567752 C8.1300981,7.00582384 8.36558537,7.11731271 8.51516603,7.20974911 C8.66474669,7.30215512 8.784595,7.3804617 8.87488884,7.44396994 C9.39972546,7.29364684 9.94134025,7.2184701 10.4998814,7.2184701 C11.0584226,7.2184701 11.600156,7.29364684 12.1250222,7.44396994 L12.4466236,7.2358513 C12.6665481,7.096984 12.926254,6.96972442 13.2251189,6.85404218 C13.5241617,6.73842071 13.7528309,6.70657543 13.9108896,6.75868866 C14.1646965,7.41227659 14.1873144,8.00217396 13.978447,8.52841116 C14.4241653,9.02006827 14.6471727,9.61586067 14.6471727,10.3156668 C14.6471727,10.8072631 14.5891309,11.2423706 14.4736698,11.6212626 C14.3580605,12.0002153 14.2086281,12.3036571 14.0253132,12.532226 C13.8417908,12.7607645 13.6132401,12.9530821 13.3396314,13.1091483 C13.0659634,13.265336 12.8006549,13.3780707 12.5440022,13.4475348 C12.287231,13.5169988 11.9981188,13.5692032 11.676547,13.6039048 C11.969839,13.8640759 12.1165146,14.2747524 12.1165146,14.835752 L12.1165146,16.6661568 C12.1165146,16.7701401 12.1517902,16.856955 12.2224008,16.9263279 C12.2929225,16.9955792 12.4042928,17.0159687 12.55666,16.9869494 C13.865802,16.5416928 14.933617,15.7392099 15.7601643,14.5795312 C16.5866226,13.4199436 17,12.1143782 17,10.6625008 C16.9997036,9.45399062 16.708961,8.33931461 16.1280687,7.31847279 Z" id="Shape" fill="#FFFFFF" fill-rule="nonzero"></path>
                </g>
            </g>
        </g>
    </g>
</svg>