<?xml version="1.0" encoding="UTF-8"?>
<svg width="21px" height="21px" viewBox="0 0 21 21" version="1.1" xmlns="http://www.w3.org/2000/svg" xmlns:xlink="http://www.w3.org/1999/xlink">
    <!-- Generator: Sketch 46.2 (44496) - http://www.bohemiancoding.com/sketch -->
    <title>twitter</title>
    <desc>Created with Sketch.</desc>
    <defs></defs>
    <g id="Symbols" stroke="none" stroke-width="1" fill="none" fill-rule="evenodd">
        <g id="social-3" transform="translate(0.000000, -28.000000)">
            <g id="icon-social">
                <g id="twitter" transform="translate(0.000000, 28.000000)">
                    <circle id="Oval-3-Copy-2" fill="#FF5512" cx="10.5" cy="10.5" r="10.5"></circle>
                    <path d="M16.809148,7.16331011 C16.5425268,7.28175442 16.2657533,7.37519675 15.9817532,7.44284571 C16.2946887,7.14493234 16.5299754,6.77230613 16.6627155,6.35638811 L16.6627155,6.35638811 C16.7006036,6.23765069 16.5718718,6.13497551 16.4648488,6.1985503 L16.4648488,6.1985503 C16.069759,6.43332855 15.6441832,6.6094562 15.199912,6.722097 C15.1741364,6.72863327 15.1475416,6.73194538 15.120859,6.73194538 C15.0399334,6.73194538 14.9612607,6.70184335 14.8993816,6.64720831 C14.4267017,6.22985406 13.8187655,6 13.1875991,6 C12.9144827,6 12.6387332,6.04264699 12.3679867,6.12676853 C11.5291232,6.38742808 10.8818653,7.0806541 10.6787907,7.93593866 C10.6026049,8.25674365 10.5819785,8.57784174 10.6174383,8.89029319 C10.6215051,8.92619873 10.6045651,8.95125933 10.5941203,8.9630129 C10.575776,8.98361828 10.5497663,8.99543047 10.5227619,8.99543047 C10.5197484,8.99543047 10.5166471,8.99528392 10.5135751,8.99499081 C8.67733223,8.82408045 7.02148949,7.93781454 5.85105361,6.49948267 L5.85105361,6.49948267 C5.79136884,6.42611813 5.67691452,6.4351165 5.62934224,6.51686388 L5.62934224,6.51686388 C5.40014103,6.91079892 5.27901605,7.36136212 5.27901605,7.8198392 C5.27901605,8.52247394 5.56079253,9.18463067 6.0502369,9.66734765 C5.84441221,9.6184575 5.64519967,9.54145844 5.46014763,9.43849015 L5.46014763,9.43849015 C5.37062047,9.38866206 5.26046696,9.45270581 5.2592089,9.55529306 L5.2592089,9.55529306 C5.24639423,10.5991037 5.85640768,11.5278993 6.77022831,11.9461329 C6.75182551,11.9465726 6.7334227,11.9467777 6.71499064,11.9467777 C6.57013805,11.9467777 6.4234715,11.9327672 6.27911628,11.9051273 L6.27911628,11.9051273 C6.17829583,11.8858409 6.09359613,11.9816574 6.12490137,12.0795843 L6.12490137,12.0795843 C6.42151127,13.0072954 7.21882957,13.6911127 8.17296667,13.8463712 C7.38109022,14.3789163 6.45893128,14.6598295 5.49914753,14.6598295 L5.19993374,14.6596536 C5.10774417,14.6596536 5.02977363,14.7198577 5.00628007,14.8093137 C4.98313759,14.8974215 5.02576539,14.9903656 5.10437959,15.0361781 C6.18590272,15.666738 7.41953423,16 8.67244627,16 C9.76915391,16 10.7950298,15.7819581 11.7216065,15.351971 C12.571032,14.9577722 13.3216557,14.394275 13.9526174,13.6771315 C14.5403953,13.0090834 15.0000266,12.237891 15.3186964,11.38501 C15.6224743,10.5720206 15.7830381,9.70454286 15.7830381,8.87634133 L15.7830381,8.8368892 C15.7830088,8.70390682 15.8430447,8.57877968 15.9477856,8.49360295 C16.3452452,8.17030656 16.6913583,7.78973717 16.9764701,7.36247593 L16.9764701,7.36247593 C17.051749,7.24965926 16.9330231,7.10826472 16.809148,7.16331011 L16.809148,7.16331011 Z" id="Shape" fill="#FFFFFF" fill-rule="nonzero"></path>
                </g>
            </g>
        </g>
    </g>
</svg>