<svg xmlns="http://www.w3.org/2000/svg" xmlns:xlink="http://www.w3.org/1999/xlink" viewBox="0 0 1815.89 1597.25"><defs><style>.cls-1{isolation:isolate;}.cls-2{fill:#fff2ed;}.cls-3{fill:#ffd3c2;}.cls-4{fill:#ff7742;}.cls-21,.cls-5{fill:none;stroke-miterlimit:10;}.cls-5{stroke:#5070ff;stroke-width:14px;}.cls-6{font-size:18.16px;fill:#fff;font-family:Montserrat-Black, Montserrat;letter-spacing:0.2em;}.cls-7{letter-spacing:0.19em;}.cls-8{letter-spacing:0.15em;}.cls-9{letter-spacing:0.2em;}.cls-10{fill:#8fa3ff;}.cls-11,.cls-23{fill:#4d6cf5;}.cls-11{opacity:0.39;mix-blend-mode:multiply;}.cls-12{fill:url(#linear-gradient);}.cls-13{fill:#5070ff;}.cls-14{fill:#8ca1ff;}.cls-15{fill:url(#linear-gradient-2);}.cls-16{fill:#374db0;}.cls-17{fill:url(#linear-gradient-3);}.cls-18{fill:url(#linear-gradient-4);}.cls-19{fill:#2e4194;}.cls-20{fill:#385cff;}.cls-21{stroke:#4a68ed;stroke-width:3px;}.cls-22{fill:#4d7ef5;}.cls-24{fill:#e6e6e6;}.cls-25{fill:#233170;}.cls-26{fill:#ff5512;}.cls-27{fill:url(#linear-gradient-5);}.cls-28{fill:url(#linear-gradient-6);}.cls-29{fill:#de4a10;}.cls-30{fill:url(#linear-gradient-7);}.cls-31{fill:url(#linear-gradient-8);}.cls-32{fill:url(#linear-gradient-9);}</style><linearGradient id="linear-gradient" x1="2039.85" y1="780.89" x2="-204.29" y2="1441.78" gradientUnits="userSpaceOnUse"><stop offset="0" stop-color="#fff"/><stop offset="0.67" stop-color="#ff5512"/><stop offset="0.85" stop-color="#ff5512"/></linearGradient><linearGradient id="linear-gradient-2" x1="681.27" y1="555.46" x2="583.58" y2="564.01" gradientUnits="userSpaceOnUse"><stop offset="0" stop-color="#fff"/><stop offset="1" stop-color="#374db0"/></linearGradient><linearGradient id="linear-gradient-3" x1="439.09" y1="764.08" x2="210.25" y2="776.24" xlink:href="#linear-gradient-2"/><linearGradient id="linear-gradient-4" x1="416.57" y1="619.43" x2="332.44" y2="622.54" xlink:href="#linear-gradient-2"/><linearGradient id="linear-gradient-5" x1="1260.75" y1="730.04" x2="1337.51" y2="507.74" gradientUnits="userSpaceOnUse"><stop offset="0" stop-color="#233170"/><stop offset="1" stop-color="#374db0"/></linearGradient><linearGradient id="linear-gradient-6" x1="932.48" y1="781.39" x2="1051.57" y2="550.94" xlink:href="#linear-gradient-5"/><linearGradient id="linear-gradient-7" x1="647.47" y1="662.22" x2="636.43" y2="663.19" xlink:href="#linear-gradient-5"/><linearGradient id="linear-gradient-8" x1="611.83" y1="665.12" x2="634.68" y2="665.12" xlink:href="#linear-gradient-5"/><linearGradient id="linear-gradient-9" x1="691.42" y1="665.12" x2="816.53" y2="700.49" gradientUnits="userSpaceOnUse"><stop offset="0" stop-color="#fff"/><stop offset="1" stop-color="#374db0" stop-opacity="0"/></linearGradient></defs><title>error404</title><g class="cls-1"><g id="Layer_2" data-name="Layer 2"><g id="nuvem1"><circle class="cls-2" cx="1195.62" cy="556.1" r="311.86"/><circle class="cls-3" cx="1195.62" cy="556.1" r="221.64"/><circle class="cls-4" cx="1195.62" cy="556.1" r="117.19"/><path class="cls-5" d="M1234.48,1002.18a19.52,19.52,0,1,0,39,0"/><path class="cls-5" d="M1195.33,1002.18a19.52,19.52,0,1,0,39,0"/><path class="cls-5" d="M1156.19,1002.18a19.52,19.52,0,1,0,39,0"/><path class="cls-5" d="M1117,1002.18a19.52,19.52,0,1,0,39,0"/><path class="cls-5" d="M1077.9,1002.18a19.52,19.52,0,1,0,39,0"/><path class="cls-5" d="M1038.75,1002.18a19.52,19.52,0,1,0,39,0"/><text class="cls-6" transform="translate(555.4 1039.17)">TROPI<tspan class="cls-7" x="75.96" y="0">C</tspan><tspan x="91.9" y="0">AL</tspan><tspan class="cls-7" x="124.27" y="0">C</tspan><tspan x="140.21" y="0">ON</tspan><tspan class="cls-8" x="176.17" y="0">F</tspan><tspan class="cls-9" x="190.35" y="0">.</tspan><tspan class="cls-7" x="198.8" y="0">C</tspan><tspan x="214.74" y="0">OM</tspan></text><path class="cls-4" d="M402.65,889.52q-1.15-13.67-1.78-27.46c19.62-125.63,418.43-225.92,907.56-225.92q41.89,0,82.85,1C1251.21,614.21,1085.36,601,907.56,601,418.43,601,19.62,701.24,0,826.87q.63,13.79,1.78,27.46c33,114.72,382.6,206.56,822.92,216.89C587.74,1032.47,424.65,966.09,402.65,889.52Z"/><path class="cls-10" d="M402.65,889.52q-1.15-13.67-1.78-27.46c19.62-125.63,418.43-225.92,907.56-225.92q41.89,0,82.85,1C1251.21,614.21,1085.36,601,907.56,601,418.43,601,19.62,701.24,0,826.87q.63,13.79,1.78,27.46c33,114.72,382.6,206.56,822.92,216.89C587.74,1032.47,424.65,966.09,402.65,889.52Z"/><path class="cls-11" d="M116.2,952.31C261,947.55,316.59,903.13,301.43,888S228.8,849.9,228.8,849.9l29.86-75.77s44.85,17.94,89,15.87,78-25.53,67.62-31.74S365.6,732,365.6,732l9-45.63s55.9,14.58,83.49,22.86,41.4,2.76,66.93-3.45,141.44-35.19,141.44-35.19l-16-60.1C285.42,638.43,16,724.18,0,826.87q.63,13.79,1.78,27.46C12,889.75,52.32,923,116.2,952.31Z"/><path class="cls-4" d="M682.29,388.45S832,370.51,954.13,384.31l-34.5,51.06L710.58,413.28Z"/><path class="cls-12" d="M907.56,1072.19c-478.62,0-870.78-96-905.78-217.86,35,415.46,427.47,742.92,906.47,742.92,483.87,0,879.42-334.16,907.42-755.63C1805.31,969.42,1402.71,1072.19,907.56,1072.19Z"/><path class="cls-13" d="M1815.67,841.62q.08-1.22.16-2.44c0-.87.06-1.74.06-2.61,0-84-169.5-157.75-424.62-199.46q-40.93-1-82.85-1c-489.13,0-887.94,100.29-907.56,225.92q.63,13.79,1.78,27.46c22,76.57,185.09,142.95,422.05,181.7q40.94,1,82.86,1C1402.71,1072.19,1805.31,969.42,1815.67,841.62Z"/><path class="cls-14" d="M1262,945.17c250.67,0,454.49-51.58,459.73-115.72q0-.61.08-1.22c0-.44,0-.87,0-1.31,0-65.31-205.88-118.26-459.85-118.26C1014.42,708.66,812.52,759,802.59,822q.32,6.92.9,13.78C821.21,897,1019.74,945.17,1262,945.17Z"/><polygon class="cls-15" points="647.84 663.01 502.96 696.89 502.85 451.26 647.73 432.57 647.84 663.01"/><polygon class="cls-16" points="502.9 696.86 389.06 672.02 389.06 433.98 502.9 451.23 502.9 696.86"/><polygon class="cls-4" points="647.79 432.6 531.88 420.18 389.06 433.98 502.9 451.23 647.79 432.6"/><path class="cls-16" d="M502.58,447.76c16,0,29-3.29,29.29-7.37v-.08s0-.06,0-.08c0-4.16-13.12-7.53-29.3-7.53-15.78,0-28.64,3.21-29.27,7.22q0,.44.06.88C474.5,444.69,487.14,447.76,502.58,447.76Z"/><rect class="cls-16" x="473.37" y="424.81" width="58.42" height="15.52"/><path class="cls-4" d="M502.58,431.83c16,0,29-3.29,29.29-7.37v-.08s0-.06,0-.08c0-4.16-13.12-7.53-29.3-7.53-15.78,0-28.64,3.21-29.27,7.22q0,.44.06.88C474.5,428.76,487.14,431.83,502.58,431.83Z"/><path class="cls-16" d="M502.58,698.15c16,0,29-3.29,29.29-7.37v-.08s0-.06,0-.08c0-4.16-13.12-7.53-29.3-7.53-15.78,0-28.64,3.21-29.27,7.22q0,.44.06.88C474.5,695.08,487.14,698.15,502.58,698.15Z"/><path class="cls-16" d="M805.47,647.15c16,0,29-3.29,29.29-7.37v-.08s0-.06,0-.08c0-4.16-13.12-7.53-29.3-7.53-15.78,0-28.64,3.21-29.27,7.22q0,.44.06.88C777.39,644.08,790,647.15,805.47,647.15Z"/><rect class="cls-16" x="776.27" y="399.97" width="58.42" height="239.75"/><path class="cls-16" d="M911.73,639.56c16,0,29-3.29,29.29-7.37v-.08s0-.06,0-.08c0-4.16-13.12-7.53-29.3-7.53-15.78,0-28.64,3.21-29.27,7.22q0,.44.06.88C883.64,636.49,896.29,639.56,911.73,639.56Z"/><rect class="cls-16" x="882.52" y="392.38" width="58.42" height="239.75"/><polygon class="cls-16" points="776.12 639.59 682.47 610.56 682.29 388.44 776.12 399.49 776.12 639.59"/><polygon class="cls-16" points="941.02 391.89 954.13 384.31 954.13 619.58 941.02 632 941.02 391.89"/><polygon class="cls-13" points="882.38 634.07 834.77 640.28 834.77 400.18 883.07 398.8 882.38 634.07"/><polygon class="cls-16" points="287.71 507.89 211.05 496.77 211.05 732.04 292.46 763.09 287.71 507.89"/><path class="cls-17" d="M274.52,895.32V638.21H79.27V895.33a7,7,0,0,0-.22.92q.07,1.47.19,2.94c3.77,13,46.05,23.29,97.65,23.29,53.38,0,96.79-11,97.9-24.64l0-.26c0-.09,0-.19,0-.28A6.81,6.81,0,0,0,274.52,895.32Z"/><path class="cls-4" d="M176.89,661.67c53.38,0,96.79-11,97.9-24.64l0-.26c0-.09,0-.19,0-.28,0-13.91-43.84-25.18-97.93-25.18-52.73,0-95.73,10.72-97.84,24.15q.07,1.47.19,2.94C83,651.4,125.29,661.67,176.89,661.67Z"/><path class="cls-16" d="M1686.9,774.32c9.76,0,17.7-2,17.9-4.51v0s0,0,0-.05c0-2.54-8-4.61-17.91-4.61-9.64,0-17.51,2-17.89,4.42q0,.27,0,.54C1669.73,772.44,1677.46,774.32,1686.9,774.32Z"/><rect class="cls-16" x="1669.04" y="624.91" width="35.71" height="144.87"/><path class="cls-4" d="M1686.9,629.2c9.76,0,17.7-2,17.9-4.51v0s0,0,0-.05c0-2.54-8-4.61-17.91-4.61-9.64,0-17.51,2-17.89,4.42q0,.27,0,.54C1669.73,627.32,1677.46,629.2,1686.9,629.2Z"/><path class="cls-16" d="M1686.9,611.49c9.76,0,17.7-2,17.9-4.51v0s0,0,0-.05c0-2.54-8-4.61-17.91-4.61-9.64,0-17.51,2-17.89,4.42q0,.27,0,.54C1669.73,609.61,1677.46,611.49,1686.9,611.49Z"/><rect class="cls-16" x="1669.04" y="462.08" width="35.71" height="144.87"/><path class="cls-4" d="M1686.9,466.37c9.76,0,17.7-2,17.9-4.51v0s0,0,0-.05c0-2.54-8-4.61-17.91-4.61-9.64,0-17.51,2-17.89,4.42q0,.27,0,.54C1669.73,464.49,1677.46,466.37,1686.9,466.37Z"/><polygon class="cls-4" points="211.05 496.77 292.99 481.23 304.88 497.46 291.77 517.47 211.05 496.77"/><rect class="cls-16" x="287.94" y="476.64" width="89.25" height="281.97"/><path class="cls-18" d="M377.19,757.6v-281H287.94v281a3.27,3.27,0,0,0-.1.39q0,.67.09,1.34c1.72,6,21,10.64,44.64,10.64,24.4,0,44.24-5,44.75-11.26v-.12s0-.08,0-.13A3.11,3.11,0,0,0,377.19,757.6Z"/><path class="cls-4" d="M332.57,487.36c24.4,0,44.24-5,44.75-11.26V476s0-.08,0-.13c0-6.36-20-11.51-44.76-11.51-24.1,0-43.76,4.9-44.72,11q0,.67.09,1.34C289.66,482.67,309,487.36,332.57,487.36Z"/><path class="cls-16" d="M531.82,420.4c-1.12-13.24-13.62-37.48-28.89-37.48-15.42,0-28,24.45-28.92,37.88v.08s0,.06,0,.08c0,2.68,5.4,5,13.53,6.36A97.31,97.31,0,0,0,503,428.47c15.59,0,28.3-3.2,28.93-7.2Q531.86,420.83,531.82,420.4Zm-.73-1.21-.07-.08Zm.67,1,0-.06Zm-.07-.18,0-.07Zm-.09-.17,0-.07Zm-.11-.17-.05-.08Zm-.12-.17-.06-.08Zm-.14-.17-.07-.08Zm-25.58-5.87h0Zm.67,0h0Zm.67,0,.4,0Zm.66,0,.39,0Zm.66,0,.39,0Zm.65,0,.39,0Zm.65,0,.38,0Zm.64,0,.39,0Zm.63,0,.4,0Zm.62,0,.41,0Zm.61.05.42,0Zm.54,0,1.59.16Zm1.67.17.41,0Zm.6.07.37,0Zm.59.07.35,0Zm.58.07.34,0Zm.57.08.33,0Zm.57.08.32,0Zm.56.08.31,0Zm1.09.18.3.05Zm-.54-.09.31.05ZM524.7,416l-.22-.06Zm-.43-.12-.22-.06Zm-.44-.12-.23-.06Zm-.44-.12-.25-.06Zm-.44-.11-.6-.14Zm-.73-.18-.28-.06Zm-.48-.11-.28-.06Zm-.49-.11-.28-.06Zm-.5-.1-.29-.06Zm-.51-.1-.29-.06Zm-.52-.1-.29-.05Zm-15.48-1.38h0Zm1.3,0-1.23,0Zm25.32,5.46.08.08Zm-5.94-2.88.21.06Zm.42.13.2.06Zm.4.13.2.07Zm.39.13.19.07Zm.38.14.18.07Zm.37.14.18.07Zm.36.14.17.07Zm.35.14.16.07Zm.34.15.15.07Zm.33.15.14.06Zm.32.16.12.06Zm.39.2.08,0Zm.29.16.1.06Zm.27.15.11.07Zm.25.16.11.07Zm.24.16.1.07Zm.23.16.1.07Zm.21.16.09.07Zm.2.16.09.08Z"/><path class="cls-16" d="M502.31,401.58c1.82,0,3.31-.38,3.35-.84h0c0-.48-1.5-14.66-3.35-14.66S499,400.23,499,400.68v.1C499.11,401.23,500.55,401.58,502.31,401.58Z"/><rect class="cls-16" x="498.98" y="365.86" width="6.67" height="34.88"/><path class="cls-4" d="M502.31,366.66c1.82,0,3.31-.38,3.35-.84h0c0-.48-1.5-.86-3.35-.86s-3.27.37-3.34.83v.1C499.11,366.31,500.55,366.66,502.31,366.66Z"/><rect class="cls-16" x="473.23" y="433.98" width="58.65" height="28.29"/><path class="cls-16" d="M618.49,437.41c16,0,29-3.29,29.29-7.37V430s0-.06,0-.08c0-4.16-13.12-7.53-29.3-7.53-15.78,0-28.64,3.21-29.27,7.22q0,.44.06.88C590.41,434.34,603.06,437.41,618.49,437.41Z"/><rect class="cls-16" x="589.29" y="414.46" width="58.42" height="15.52"/><path class="cls-4" d="M618.49,421.48c16,0,29-3.29,29.29-7.37V414s0-.06,0-.08c0-4.16-13.12-7.53-29.3-7.53-15.78,0-28.64,3.21-29.27,7.22q0,.44.06.88C590.41,418.41,603.06,421.48,618.49,421.48Z"/><path class="cls-16" d="M647,410.74c-1.12-13.24-13.62-37.48-28.89-37.48-15.42,0-28,24.45-28.92,37.88v.08s0,.06,0,.08c0,2.68,5.4,5,13.53,6.36a97.31,97.31,0,0,0,15.42,1.15c15.59,0,28.3-3.2,28.93-7.2Q647.08,411.17,647,410.74Zm-.73-1.21-.07-.08Zm.67,1,0-.06Zm-.07-.18,0-.07Zm-.09-.17,0-.07Zm-.11-.17-.05-.08Zm-.12-.17-.06-.08Zm-.14-.17-.07-.08Zm-25.58-5.87h0Zm.67,0h0Zm.67,0,.4,0Zm.66,0,.39,0Zm.66,0,.39,0Zm.65,0,.39,0Zm.65,0,.38,0Zm.64,0,.39,0Zm.63,0,.4,0Zm.62,0,.41,0Zm.61.05.42,0Zm.54,0,1.59.16Zm1.67.17.41,0Zm.6.07.37,0Zm.59.07.35,0Zm.58.07.34,0Zm.57.08.33,0Zm.57.08.32,0Zm.56.08.31,0Zm1.09.18.3.05Zm-.54-.09.31.05Zm6.36,1.41-.22-.06Zm-.43-.12-.22-.06Zm-.44-.12-.23-.06Zm-.44-.12-.25-.06Zm-.44-.11-.6-.14Zm-.73-.18-.28-.06Zm-.48-.11-.28-.06Zm-.49-.11-.28-.06Zm-.5-.1-.29-.06Zm-.51-.1-.29-.06Zm-.52-.1-.29-.05Zm-15.48-1.38h0Zm1.3,0-1.23,0Zm25.32,5.46.08.08Zm-5.94-2.88.21.06Zm.42.13.2.06Zm.4.13.2.07Zm.39.13.19.07Zm.38.14.18.07Zm.37.14.18.07Zm.36.14.17.07Zm.35.14.16.07Zm.34.15.15.07Zm.33.15.14.06Zm.32.16.12.06Zm.39.2.08,0Zm.29.16.1.06Zm.27.15.11.07Zm.25.16.11.07Zm.24.16.1.07Zm.23.16.1.07Zm.21.16.09.07Zm.2.16.09.08Z"/><path class="cls-16" d="M618.23,393.3c1.82,0,3.31-.38,3.35-.84h0c0-.48-1.5-.86-3.35-.86s-3.27.37-3.34.83v.1C615,393,616.46,393.3,618.23,393.3Z"/><rect class="cls-16" x="614.89" y="357.58" width="6.67" height="34.88"/><path class="cls-4" d="M618.23,358.38c1.82,0,3.31-.38,3.35-.84h0c0-.48-1.5-.86-3.35-.86s-3.27.37-3.34.83v.1C615,358,616.46,358.38,618.23,358.38Z"/><path class="cls-16" d="M805.47,413.26c16,0,29-3.29,29.29-7.37v-.08s0-.06,0-.08c0-4.16-13.12-7.53-29.3-7.53-15.78,0-28.64,3.21-29.27,7.22q0,.44.06.88C777.39,410.19,790,413.26,805.47,413.26Z"/><rect class="cls-16" x="776.27" y="390.31" width="58.42" height="15.52"/><path class="cls-4" d="M805.47,397.33c16,0,29-3.29,29.29-7.37v-.08s0-.06,0-.08c0-4.16-13.12-7.53-29.3-7.53-15.78,0-28.64,3.21-29.27,7.22q0,.44.06.88C777.39,394.26,790,397.33,805.47,397.33Z"/><path class="cls-16" d="M834,386.59c-1.12-13.24-13.62-23.68-28.89-23.68-15.42,0-28,10.65-28.92,24.08v.08s0,.06,0,.08c0,2.68,5.4,5,13.53,6.36a97.31,97.31,0,0,0,15.42,1.15c15.59,0,28.3-3.2,28.93-7.2Q834.06,387,834,386.59Zm-.73-1.21-.07-.08Zm.67,1,0-.06Zm-.07-.18,0-.07Zm-.09-.17,0-.07Zm-.11-.17-.05-.08Zm-.12-.17-.06-.08Zm-.14-.17-.07-.08Zm-25.58-5.87h0Zm.67,0h0Zm.67,0,.4,0Zm.66,0,.39,0Zm.66,0,.39,0Zm.65,0,.39,0Zm.65,0,.38,0Zm.64,0,.39,0Zm.63,0,.4,0Zm.62,0,.41,0Zm.61.05.42,0Zm.54,0,1.59.16Zm1.67.17.41,0Zm.6.07.37,0Zm.59.07.35,0Zm.58.07.34,0Zm.57.08.33,0Zm.57.08.32,0Zm.56.08.31,0Zm1.09.18.3.05Zm-.54-.09.31.05Zm6.36,1.41-.22-.06Zm-.43-.12-.22-.06ZM826,382l-.23-.06Zm-.44-.12-.25-.06Zm-.44-.11-.6-.14Zm-.73-.18-.28-.06Zm-.48-.11-.28-.06Zm-.49-.11-.28-.06Zm-.5-.1-.29-.06Zm-.51-.1-.29-.06Zm-.52-.1-.29-.05Zm-15.48-1.38h0Zm1.3,0-1.23,0ZM833,385.14l.08.08Zm-5.94-2.88.21.06Zm.42.13.2.06Zm.4.13.2.07Zm.39.13.19.07Zm.38.14.18.07Zm.37.14.18.07Zm.36.14.17.07Zm.35.14.16.07Zm.34.15.15.07Zm.33.15.14.06Zm.32.16.12.06Zm.39.2.08,0Zm.29.16.1.06Zm.27.15.11.07Zm.25.16.11.07Zm.24.16.1.07Zm.23.16.1.07Zm.21.16.09.07Zm.2.16.09.08Z"/><path class="cls-16" d="M805.21,369.15c1.82,0,3.31-.38,3.35-.84h0c0-.48-1.5-.86-3.35-.86s-3.27.37-3.34.83v.1C802,368.8,803.44,369.15,805.21,369.15Z"/><rect class="cls-16" x="801.87" y="347.23" width="6.67" height="21.08"/><path class="cls-4" d="M805.21,348c1.82,0,3.31-.38,3.35-.84h0c0-.48-1.5-.86-3.35-.86s-3.27.37-3.34.83v.1C802,347.68,803.44,348,805.21,348Z"/><path class="cls-16" d="M911.73,409.12c16,0,29-3.29,29.29-7.37v-.08s0-.06,0-.08c0-4.16-13.12-7.53-29.3-7.53-15.78,0-28.64,3.21-29.27,7.22q0,.44.06.88C883.64,406,896.29,409.12,911.73,409.12Z"/><rect class="cls-16" x="882.52" y="386.17" width="58.42" height="15.52"/><path class="cls-4" d="M911.73,393.19c16,0,29-3.29,29.29-7.37v-.08s0-.06,0-.08c0-4.16-13.12-7.53-29.3-7.53-15.78,0-28.64,3.21-29.27,7.22q0,.44.06.88C883.64,390.12,896.29,393.19,911.73,393.19Z"/><path class="cls-16" d="M940.28,382.45c-1.12-13.24-13.62-23.68-28.89-23.68-15.42,0-28,10.65-28.92,24.08v.08s0,.06,0,.08c0,2.68,5.4,5,13.53,6.36a97.31,97.31,0,0,0,15.42,1.15c15.59,0,28.3-3.2,28.93-7.2Q940.31,382.88,940.28,382.45Zm-.73-1.21-.07-.08Zm.67,1,0-.06Zm-.07-.18,0-.07Zm-.09-.17,0-.07Zm-.11-.17-.05-.08Zm-.12-.17-.06-.08Zm-.14-.17-.07-.08Zm-25.58-5.87h0Zm.67,0h0Zm.67,0,.4,0Zm.66,0,.39,0Zm.66,0,.39,0Zm.65,0,.39,0Zm.65,0,.38,0Zm.64,0,.39,0Zm.63,0,.4,0Zm.62,0,.41,0Zm.61.05.42,0Zm.54,0,1.59.16Zm1.67.17.41,0Zm.6.07.37,0Zm.59.07.35,0Zm.58.07.34,0Zm.57.08.33,0Zm.57.08.32,0Zm.56.08.31,0Zm1.09.18.3.05Zm-.54-.09.31.05Zm6.36,1.41-.22-.06Zm-.43-.12-.22-.06Zm-.44-.12-.23-.06Zm-.44-.12-.25-.06Zm-.44-.11-.6-.14Zm-.73-.18-.28-.06Zm-.48-.11-.28-.06Zm-.49-.11-.28-.06Zm-.5-.1-.29-.06Zm-.51-.1-.29-.06Zm-.52-.1-.29-.05Zm-15.48-1.38h0Zm1.3,0-1.23,0ZM939.3,381l.08.08Zm-5.94-2.88.21.06Zm.42.13.2.06Zm.4.13.2.07Zm.39.13.19.07Zm.38.14.18.07Zm.37.14.18.07Zm.36.14.17.07Zm.35.14.16.07Zm.34.15.15.07Zm.33.15.14.06Zm.32.16.12.06Zm.39.2.08,0Zm.29.16.1.06Zm.27.15.11.07Zm.25.16.11.07Zm.24.16.1.07Zm.23.16.1.07Zm.21.16.09.07Zm.2.16.09.08Z"/><path class="cls-16" d="M911.46,365c1.82,0,3.31-.38,3.35-.84h0c0-.48-1.5-.86-3.35-.86s-3.27.37-3.34.83v.1C908.25,364.66,909.7,365,911.46,365Z"/><rect class="cls-16" x="908.12" y="343.09" width="6.67" height="21.08"/><path class="cls-4" d="M911.46,343.89c1.82,0,3.31-.38,3.35-.84h0c0-.48-1.5-.86-3.35-.86s-3.27.37-3.34.83v.1C908.25,343.54,909.7,343.89,911.46,343.89Z"/><rect class="cls-16" x="589.14" y="427.08" width="58.65" height="28.29"/><polygon class="cls-19" points="531.79 447.76 589.14 440.19 589.14 440.14 589.14 676.73 531.88 689.96 531.79 447.76"/><polygon class="cls-19" points="473.23 447.49 473.23 565.07 389.06 433.98 473.23 447.49"/><polygon class="cls-19" points="211.05 496.77 287.94 594.74 287.85 516.46 211.05 496.77"/><path class="cls-19" d="M238.47,916.87C115.33,873.62,79.27,638.21,79.27,638.21l0,.19,0,.06V895.33a7,7,0,0,0-.22.92q.07,1.47.19,2.94c3.77,13,46.05,23.29,97.65,23.29C200.22,922.47,221.65,920.37,238.47,916.87Z"/><path class="cls-20" d="M1815.67,841.62q.08-1.22.16-2.44c0-.87.06-1.74.06-2.61,0-83.41-167.09-156.69-419.16-198.56C1446,656.13,1827.93,803.47,1678,961.44,1762.14,926.57,1812.11,885.57,1815.67,841.62Z"/><path class="cls-16" d="M1686.87,399.48c-37.95,33.81-17.94,55.2-17.94,55.2l.08,0c0,.16,0,.32,0,.48.69,2.38,8.42,4.26,17.86,4.26,9.76,0,17.7-2,17.9-4.51v0s0,0,0-.05a1.23,1.23,0,0,0,0-.17h0S1724.81,433.29,1686.87,399.48Z"/><path class="cls-19" d="M79.27,878.54v13.55c11.68,11,51,19.17,97.62,19.17s86-8.13,97.63-19.19V878.53c-11.66,11.06-50.95,19.19-97.63,19.19S90.94,889.6,79.27,878.54Z"/><path class="cls-19" d="M79.27,848.19v13.55c11.68,11,51,19.17,97.62,19.17s86-8.13,97.63-19.19V848.18c-11.66,11.06-50.95,19.19-97.63,19.19S90.94,859.24,79.27,848.19Z"/><path class="cls-19" d="M288.32,748.83v12.93c5.32,5,23.23,8.74,44.5,8.74s39.19-3.71,44.5-8.75V748.83c-5.31,5-23.22,8.75-44.5,8.75S293.64,753.87,288.32,748.83Z"/><path class="cls-19" d="M288.32,655v12.93c5.32,5,23.23,8.74,44.5,8.74s39.19-3.71,44.5-8.75V655c-5.31,5-23.22,8.75-44.5,8.75S293.64,660,288.32,655Z"/><path class="cls-19" d="M288.32,561.17V574.1c5.32,5,23.23,8.74,44.5,8.74s39.19-3.71,44.5-8.75V561.16c-5.31,5-23.22,8.75-44.5,8.75S293.64,566.2,288.32,561.17Z"/><path class="cls-19" d="M79.27,817.83v13.55c11.68,11,51,19.17,97.62,19.17s86-8.13,97.63-19.19V817.82C262.87,828.88,223.58,837,176.89,837S90.94,828.88,79.27,817.83Z"/><path class="cls-19" d="M79.27,787.47V801c11.68,11,51,19.17,97.62,19.17s86-8.13,97.63-19.19V787.46c-11.66,11.06-50.95,19.19-97.63,19.19S90.94,798.52,79.27,787.47Z"/><path class="cls-19" d="M79.27,757.11v13.55c11.68,11,51,19.17,97.62,19.17s86-8.13,97.63-19.19V757.1c-11.66,11.06-50.95,19.19-97.63,19.19S90.94,768.16,79.27,757.11Z"/><path class="cls-19" d="M79.27,726.75V740.3c11.68,11,51,19.17,97.62,19.17s86-8.13,97.63-19.19V726.74c-11.66,11.06-50.95,19.19-97.63,19.19S90.94,737.81,79.27,726.75Z"/><path class="cls-19" d="M79.27,696.4v13.55c11.68,11,51,19.17,97.62,19.17s86-8.13,97.63-19.19V696.39c-11.66,11.06-50.95,19.19-97.63,19.19S90.94,707.45,79.27,696.4Z"/><path class="cls-19" d="M79.27,666v13.55c11.68,11,51,19.17,97.62,19.17s86-8.13,97.63-19.19V666c-11.66,11.06-50.95,19.19-97.63,19.19S90.94,677.09,79.27,666Z"/><rect class="cls-19" x="304.88" y="485.04" width="12.42" height="278.05"/><path class="cls-16" d="M311.2,486.9c3.33,0,6-.69,6.11-1.54v0c0-.87-2.73-1.57-6.11-1.57s-6,.67-6.1,1.51q0,.09,0,.18C305.34,486.26,308,486.9,311.2,486.9Z"/><rect class="cls-16" x="305.11" y="446.88" width="12.18" height="38.47"/><path class="cls-4" d="M311.2,448.35c3.33,0,6-.69,6.11-1.54h0v0c0-.87-2.73-1.57-6.11-1.57s-6,.67-6.1,1.51q0,.09,0,.18C305.34,447.7,308,448.35,311.2,448.35Z"/><path class="cls-16" d="M367.08,475.86c3.33,0,6-.69,6.11-1.54v0c0-.87-2.73-1.57-6.11-1.57s-6,.67-6.1,1.51q0,.09,0,.18C361.23,475.22,363.86,475.86,367.08,475.86Z"/><rect class="cls-16" x="360.99" y="435.84" width="12.18" height="38.47"/><path class="cls-4" d="M367.08,437.31c3.33,0,6-.69,6.11-1.54h0v0c0-.87-2.73-1.57-6.11-1.57s-6,.67-6.1,1.51q0,.09,0,.18C361.23,436.67,363.86,437.31,367.08,437.31Z"/><path class="cls-16" d="M332.58,469.65c3.33,0,6-.69,6.11-1.54v0c0-.87-2.73-1.57-6.11-1.57s-6,.67-6.1,1.51q0,.09,0,.18C326.73,469,329.37,469.65,332.58,469.65Z"/><rect class="cls-16" x="326.5" y="429.63" width="12.18" height="38.47"/><path class="cls-4" d="M332.58,431.1c3.33,0,6-.69,6.11-1.54h0v0c0-.87-2.73-1.57-6.11-1.57s-6,.67-6.1,1.51q0,.09,0,.18C326.73,430.46,329.37,431.1,332.58,431.1Z"/><path class="cls-16" d="M332.57,458.11c24.4,0,44.24-5,44.75-11.26v-.12s0-.08,0-.13c0-6.36-20-11.51-44.76-11.51-24.1,0-43.76,4.9-44.72,11q0,.67.09,1.34C289.66,453.41,309,458.11,332.57,458.11Z"/><rect class="cls-16" x="287.94" y="434.55" width="89.25" height="12.2"/><path class="cls-4" d="M332.57,445.28c24.4,0,44.24-5,44.75-11.26v-.12s0-.08,0-.13c0-6.36-20-11.51-44.76-11.51-24.1,0-43.76,4.9-44.72,11q0,.67.09,1.34C289.66,440.58,309,445.28,332.57,445.28Z"/><path class="cls-16" d="M377.24,424.67c-1.73-20.5-21.1-50.46-44.74-50.46-23.88,0-43.4,30.29-44.78,51.09v.12s0,.09,0,.13c0,4.15,8.36,7.78,21,9.84a150.67,150.67,0,0,0,23.87,1.78c24.14,0,43.82-4.95,44.79-11.15Q377.3,425.35,377.24,424.67Zm-1.14-1.87-.11-.12Zm1,1.6,0-.09Zm-.12-.27L377,424Zm-.14-.27-.07-.11Zm-.16-.27-.08-.12Zm-.19-.27-.09-.12Zm-.21-.26-.1-.12ZM336.73,414l.64,0Zm1,0,.62,0Zm1,0,.62,0Zm1,0,.61,0Zm1,0,.6,0Zm1,.05.6,0Zm1,.06.6,0Zm1,.06.6,0Zm1,.07.61,0Zm1,.07.63.05Zm.94.08.66.06Zm.84.07,2.46.25Zm2.59.26.63.07Zm.92.11.57.07Zm.91.11.54.07Zm.9.12.53.07Zm.89.12.51.07Zm.88.13.5.07Zm.86.13.49.08Zm1.69.28.46.08Zm-.84-.14.47.08Zm9.85,2.18-.34-.1Zm-.67-.19-.35-.1Zm-.68-.19-.36-.1Zm-.68-.18-.38-.1Zm-.68-.17-.93-.22Zm-1.14-.27-.43-.1Zm-.75-.17-.43-.09Zm-.76-.17-.44-.09Zm-.78-.16-.44-.09Zm-.79-.16-.45-.09Zm-.81-.15L358,416Zm-24-2.13h0Zm2,0-1.9,0Zm39.2,8.46.12.12ZM366.53,418l.33.1Zm.64.2.31.1Zm.63.2.3.1Zm.61.21.3.1Zm.59.21.29.1Zm.58.21.27.1Zm.56.22.26.11Zm.54.22.25.11Zm.52.23.23.1Zm.51.23.21.1Zm.5.24.18.09Zm.61.31.12.07Zm.45.25.16.09Zm.41.24.17.1Zm.39.24.17.11Zm.37.25.16.11Zm.35.25.15.11Zm.33.25.14.12Zm.31.25.13.12Z"/><path class="cls-19" d="M332.48,374s-15.18,22.77-15.18,60c0,0-14.49-2.07-24.84-6.9C292.46,427.08,294.53,385,332.48,374Z"/><rect class="cls-19" x="487.72" y="427.08" width="3.45" height="269.77"/><rect class="cls-19" x="513.94" y="427.08" width="3.45" height="269.77"/><line class="cls-21" x1="588.11" y1="671.67" x2="531.79" y2="686.13"/><line class="cls-21" x1="582.59" y1="668.22" x2="531.79" y2="680.61"/><line class="cls-21" x1="576.38" y1="664.08" x2="531.79" y2="675.09"/><line class="cls-21" x1="570.17" y1="659.94" x2="531.79" y2="669.57"/><line class="cls-21" x1="531.79" y1="664.05" x2="562.58" y2="656.49"/><path class="cls-19" d="M411.14,482.85l-11-2.51V465.68a5.52,5.52,0,0,1,6.74-5.38h0a5.52,5.52,0,0,1,4.3,5.38Z"/><path class="cls-16" d="M434.59,487.68l-11-2.51V470.51a5.52,5.52,0,0,1,6.74-5.38h0a5.52,5.52,0,0,1,4.3,5.38Z"/><path class="cls-16" d="M460.12,492.51l-11-2.51V475.34a5.52,5.52,0,0,1,6.74-5.38h0a5.52,5.52,0,0,1,4.3,5.38Z"/><path class="cls-19" d="M411.14,524.25l-11-2.51V507.08a5.52,5.52,0,0,1,6.74-5.38h0a5.52,5.52,0,0,1,4.3,5.38Z"/><path class="cls-19" d="M434.59,529.08l-11-2.51V511.91a5.52,5.52,0,0,1,6.74-5.38h0a5.52,5.52,0,0,1,4.3,5.38Z"/><path class="cls-16" d="M460.12,533.91l-11-2.51V516.74a5.52,5.52,0,0,1,6.74-5.38h0a5.52,5.52,0,0,1,4.3,5.38Z"/><path class="cls-19" d="M411.14,565.65l-11-2.51V548.48a5.52,5.52,0,0,1,6.74-5.38h0a5.52,5.52,0,0,1,4.3,5.38Z"/><path class="cls-19" d="M434.59,570.48l-11-2.51V553.31a5.52,5.52,0,0,1,6.74-5.38h0a5.52,5.52,0,0,1,4.3,5.38Z"/><path class="cls-19" d="M460.12,575.31l-11-2.51V558.14a5.52,5.52,0,0,1,6.74-5.38h0a5.52,5.52,0,0,1,4.3,5.38Z"/><path class="cls-19" d="M411.14,607l-11-2.51V589.88a5.52,5.52,0,0,1,6.74-5.38h0a5.52,5.52,0,0,1,4.3,5.38Z"/><path class="cls-19" d="M434.59,611.88l-11-2.51V594.71a5.52,5.52,0,0,1,6.74-5.38h0a5.52,5.52,0,0,1,4.3,5.38Z"/><path class="cls-19" d="M460.12,616.71l-11-2.51V599.53a5.52,5.52,0,0,1,6.74-5.38h0a5.52,5.52,0,0,1,4.3,5.38Z"/><path class="cls-19" d="M411.14,648.44l-11-2.51V631.27a5.52,5.52,0,0,1,6.74-5.38h0a5.52,5.52,0,0,1,4.3,5.38Z"/><path class="cls-19" d="M434.59,653.27l-11-2.51V636.1a5.52,5.52,0,0,1,6.74-5.38h0a5.52,5.52,0,0,1,4.3,5.38Z"/><path class="cls-19" d="M460.12,658.1l-11-2.51V640.93a5.52,5.52,0,0,1,6.74-5.38h0a5.52,5.52,0,0,1,4.3,5.38Z"/><path class="cls-22" d="M824.42,1071.5s154.84-55.14,166.77-176.6c0,0-562.6-12.78-569.26-74.71C421.93,820.19,255.9,976.29,824.42,1071.5Z"/><path class="cls-23" d="M1292.26,732.36s71.21-56.2,185.3-60.69c0,0,107.8,50.46,147.86,85.43C1625.42,757.1,1408.22,712,1292.26,732.36Z"/><path class="cls-2" d="M167.58,238.72A66.24,66.24,0,0,0,101.35,305H233.82A66.24,66.24,0,0,0,167.58,238.72Z"/><path class="cls-24" d="M103.42,273.91a31,31,0,0,0-31,31h62.1A31,31,0,0,0,103.42,273.91Z"/><path class="cls-2" d="M1545.42,61.41a66.24,66.24,0,0,0-66.24,66.24h132.47A66.24,66.24,0,0,0,1545.42,61.41Z"/><path class="cls-24" d="M1459.18,94.52a33.12,33.12,0,0,0-33.12,33.12h66.24A33.12,33.12,0,0,0,1459.18,94.52Z"/><path class="cls-2" d="M276.59,18.63A27.6,27.6,0,0,0,249,46.23h55.2A27.6,27.6,0,0,0,276.59,18.63Z"/><path class="cls-2" d="M327,0a46.23,46.23,0,0,0-46.23,46.23h92.45A46.23,46.23,0,0,0,327,0Z"/><path class="cls-2" d="M620.54,123.16a32.77,32.77,0,0,0-32.77,32.77h65.55A32.77,32.77,0,0,0,620.54,123.16Z"/><path class="cls-2" d="M1094.19,70.38a62.79,62.79,0,0,0-62.79,62.79H1157A62.79,62.79,0,0,0,1094.19,70.38Z"/><path class="cls-24" d="M1029.68,110.74a22.42,22.42,0,0,0-22.42,22.42h44.85A22.42,22.42,0,0,0,1029.68,110.74Z"/><path class="cls-2" d="M880.15,160.83a43.41,43.41,0,0,0-43.29,43.53l86.82-.24A43.41,43.41,0,0,0,880.15,160.83Z"/><path class="cls-24" d="M568.45,109.7a46.23,46.23,0,0,0-46.23,46.23h92.45A46.23,46.23,0,0,0,568.45,109.7Z"/><polygon class="cls-11" points="1010.02 981.12 921.01 1006.65 874.79 1012.17 1010.02 1039.07 1454.35 981.12 1432.96 970.77 1584.75 956.28 1663.41 945.93 1585.63 930.64 1515.76 921.78 1010.02 981.12"/><polygon class="cls-19" points="1670.81 754.08 1570 739.27 1600.23 735.3 1701.05 750.12 1670.81 754.08"/><polygon class="cls-25" points="1581.21 956.06 1480.4 941.25 1484.82 855.35 1585.63 870.16 1581.21 956.06"/><polygon class="cls-19" points="1591.07 764.54 1490.26 749.73 1494.64 664.46 1595.46 679.27 1591.07 764.54"/><polygon class="cls-19" points="1595.46 679.27 1494.64 664.46 1574.38 654 1675.2 668.82 1595.46 679.27"/><polygon class="cls-25" points="1564.62 768.01 1463.8 753.19 1490.26 749.73 1591.07 764.54 1564.62 768.01"/><polygon class="cls-14" points="1555.42 516.42 1454.61 501.6 1536.99 490.8 1637.81 505.61 1555.42 516.42"/><polygon class="cls-19" points="1472.64 884.98 1371.83 870.16 1376.77 774.08 1477.59 788.9 1472.64 884.98"/><polygon class="cls-19" points="1477.59 788.9 1376.77 774.08 1454.61 501.6 1555.42 516.42 1477.59 788.9"/><polygon class="cls-26" points="1637.81 505.61 1564.62 768.01 1591.07 764.54 1595.46 679.27 1675.2 668.82 1670.81 754.08 1701.05 750.12 1695.61 855.74 1665.38 859.71 1660.95 945.6 1581.21 956.06 1585.63 870.16 1472.64 884.98 1477.59 788.9 1555.42 516.42 1637.81 505.61"/><path class="cls-25" d="M1383.49,749.41v-.21q.11-2.54.2-5v-.26q.09-2.44.17-4.8v-.32q.08-2.33.14-4.59v-.37q.06-2.24.11-4.4V729q0-2.15.08-4.23v-.42q0-2.06.05-4.05c0-.09,0-.19,0-.28s0-.11,0-.17q0-1.73,0-3.41,0-.31,0-.62,0-1.66,0-3.28c0-.18,0-.35,0-.52,0-1.11,0-2.2,0-3.27,0-.09,0-.17,0-.26q0-1.59,0-3.12c0-.1,0-.21,0-.31,0-1,0-2-.06-3,0-.17,0-.34,0-.51q0-1.44-.08-2.83l0-.51c0-.94-.07-1.86-.11-2.76l0-.35c0-.94-.09-1.86-.13-2.76v-.05c0-.32,0-.64-.05-1s0-.47,0-.7q0-.82-.1-1.61-.11-1.59-.23-3.12c0-.35-.06-.69-.09-1-.06-.66-.11-1.33-.17-2,0-.42-.09-.83-.13-1.24s-.11-1.11-.17-1.65-.1-.83-.15-1.25-.12-1-.18-1.53v0l-.05-.36c-.11-.83-.22-1.65-.34-2.45,0-.32-.1-.62-.15-.94-.09-.6-.19-1.19-.29-1.78-.06-.35-.12-.68-.18-1-.1-.53-.19-1-.29-1.56-.07-.34-.14-.68-.2-1q-.15-.74-.31-1.45c0-.18-.08-.38-.12-.56l-.12-.47-.22-.91q-.14-.57-.29-1.12l-.24-.87c-.1-.36-.2-.71-.31-1.06l-.25-.82c-.11-.34-.22-.68-.33-1l-.26-.76c-.12-.33-.24-.65-.35-1l-.26-.69c-.13-.32-.26-.63-.39-.94l-.26-.61c-.15-.33-.3-.65-.45-1l-.23-.48c-.23-.46-.47-.91-.71-1.33q-4.47-7.86-12.29-9L1262.8,629.26q7.82,1.15,12.29,9c.24.43.48.87.71,1.33l.23.48c.15.32.31.63.45,1l.26.61c.13.31.26.62.39.94l.26.7c.12.32.24.63.35,1l.26.76c.11.33.22.66.33,1l.25.82c.1.35.21.7.31,1.06l.24.87q.15.55.29,1.12l.22.91c.08.34.16.69.24,1s.21,1,.31,1.46c.07.33.14.67.2,1,.1.51.2,1,.29,1.57.06.34.12.68.18,1,.1.58.19,1.17.29,1.77,0,.32.1.62.15.95.12.8.23,1.62.34,2.46l.05.38c.07.53.13,1.09.2,1.63,0,.38.09.75.14,1.14.06.56.12,1.14.18,1.71,0,.39.08.78.12,1.18.06.59.11,1.19.16,1.79,0,.41.07.8.11,1.22q.12,1.53.23,3.12.05.79.1,1.61c0,.24,0,.48,0,.72s0,.62.05.94v.06c0,.9.09,1.81.13,2.74l0,.37q.06,1.35.11,2.76l0,.5q0,1.4.08,2.84v.49c0,1,0,2,.06,3v.3q0,1.55,0,3.15V694c0,1.07,0,2.17,0,3.28,0,.18,0,.35,0,.53q0,1.62,0,3.28,0,.3,0,.6,0,1.68,0,3.41c0,.16,0,.31,0,.47q0,2-.05,4V710q0,2.07-.08,4.21c0,.13,0,.27,0,.4q0,2.17-.11,4.4v.37q-.06,2.26-.14,4.58v.36q-.08,2.35-.17,4.78v.26q-.1,2.47-.2,5v.21q-.11,2.58-.24,5.23v.09q-.13,2.71-.27,5.49t-.3,5.6c0,.63-.07,1.24-.11,1.86-.07,1.2-.14,2.41-.21,3.59,0,.74-.09,1.46-.14,2.19-.06,1-.13,2.09-.19,3.11,0,.77-.1,1.52-.15,2.28-.07,1-.13,2-.2,2.94l0,.42q-.17,2.39-.34,4.71v.06c-.12,1.55-.24,3.07-.36,4.58l0,.44q-.17,2.15-.35,4.24l-.05.6q-.18,2-.36,4l-.06.66q-.18,2-.37,3.85l-.06.64q-.19,1.91-.39,3.76l-.05.5c-.14,1.26-.27,2.51-.41,3.73l0,.32c-.15,1.27-.29,2.51-.44,3.73v0c-.13,1-.26,2.07-.39,3.08l-.19,1.4c-.1.73-.2,1.45-.3,2.16l-.18,1.3c-.11.77-.22,1.51-.33,2.26l-.16,1.06c-.17,1.08-.33,2.14-.5,3.18s-.36,2.12-.54,3.16c-.06.34-.12.66-.18,1-.12.69-.25,1.37-.38,2s-.26,1.31-.39,2c-.08.38-.15.78-.23,1.16-.16.75-.32,1.49-.48,2.22l-.17.78q-.33,1.47-.67,2.88l-.16.62c-.18.72-.36,1.44-.54,2.14-.14.54-.28,1.05-.42,1.57-.09.33-.18.66-.27,1-.16.57-.33,1.13-.49,1.68l-.22.77q-.36,1.2-.74,2.34l-.1.28c-.22.66-.44,1.32-.67,2l-.05.14c-.22.61-.44,1.2-.66,1.79l-.19.5c-.22.57-.44,1.12-.67,1.67l-.06.16c-.24.59-.49,1.15-.74,1.71l-.2.43q-.32.7-.65,1.36l-.14.28q-.39.77-.78,1.5l-.2.35c-.26.47-.52.93-.79,1.38s-.59,1-.89,1.42l-.3.44-.59.86q-.48.68-1,1.32l-.14.19c-.38.48-.77.94-1.17,1.39l-.36.39c-.28.31-.57.61-.86.9l-.45.44q-.41.39-.83.76l-.58.51-.27.22c-.34.28-.69.55-1,.81l-.08.06c-.33.24-.66.46-1,.68l-.29.18-.58.35q-.47.28-1,.53l-.52.27c-.34.17-.69.33-1,.48l-.45.2c-.5.2-1,.39-1.53.56l-.18.05q-.69.22-1.39.39l-.85.19-.43.09c-.45.08-.9.16-1.35.22s-1,.11-1.48.15-1.13.06-1.67.05l-.45,0c-.39,0-.79,0-1.17-.06s-.73-.07-1.08-.12h0l100.82,14.82.86.1h.23c.38,0,.77.05,1.17.06l.45,0c.55,0,1.11,0,1.67-.05h0q.71-.05,1.44-.15c.46-.06.91-.13,1.35-.22l.43-.09.68-.14.17,0q.71-.17,1.4-.39l.18-.05c.52-.17,1-.36,1.53-.56l.12,0,.33-.15c.35-.15.69-.31,1-.48l.52-.27q.48-.25,1-.53l.31-.17.27-.17.29-.18c.34-.22.67-.45,1-.68l.08-.06c.35-.26.7-.53,1-.81l.27-.22.31-.26.27-.25q.42-.37.83-.76l.45-.44c.29-.29.57-.59.86-.9l.36-.39c.4-.45.79-.91,1.17-1.39l.14-.19q.5-.64,1-1.31l.11-.15.48-.72.3-.44c.3-.46.6-.93.89-1.41l.47-.81.31-.57.19-.35q.4-.73.78-1.51l.14-.28q.33-.67.65-1.37l.2-.43c.25-.56.5-1.12.75-1.71l.06-.15c.23-.54.45-1.1.67-1.67l.19-.5c.22-.59.44-1.18.66-1.79l0-.13v0c.22-.63.44-1.28.66-1.93l.09-.27q.37-1.15.74-2.35l.21-.72c.17-.57.34-1.14.5-1.73.09-.33.18-.67.27-1,.13-.49.27-1,.4-1.47l0-.09c.18-.71.36-1.43.54-2.16l.15-.61q.34-1.41.67-2.88c.06-.27.12-.56.18-.84.16-.71.31-1.43.46-2.17.08-.39.16-.79.24-1.18.13-.64.26-1.28.38-1.94l0-.19c.11-.6.22-1.22.34-1.83.06-.34.13-.68.19-1q.28-1.55.54-3.16c.17-1,.34-2.09.5-3.17l.16-1.08c.11-.74.22-1.48.33-2.23l.18-1.31c.1-.71.2-1.43.3-2.16l.19-1.41c0-.33.09-.64.13-1q.13-1,.26-2.1V818q.23-1.84.45-3.74l0-.3q.21-1.83.41-3.73l.06-.52q.2-1.85.39-3.76l.06-.61q.19-1.9.37-3.86l.06-.65q.18-2,.36-4l0-.57q.18-2.11.36-4.27l0-.41c.12-1.51.24-3,.36-4.6v-.06q.18-2.33.34-4.74l0-.38,0-.24c.07-.93.13-1.89.19-2.84,0-.71.1-1.41.14-2.13.07-1.06.13-2.14.2-3.22,0-.7.09-1.39.13-2.1.07-1.18.14-2.39.21-3.6,0-.62.07-1.23.11-1.85q.15-2.76.3-5.6t.27-5.49v-.09Q1383.37,752,1383.49,749.41Z"/><path class="cls-26" d="M1450.21,584.25q28.33,54.74,22.7,164.18t-40,172.73q-34.42,63.29-93,71-59,7.73-87.29-47T1229.92,780.3q5.67-110.07,40-172.73t93.33-70.38Q1421.87,529.5,1450.21,584.25Zm-74,248.28q4.36-26.48,6.72-72.3t.66-71.19q-1.7-25.37-7.72-36t-18.11-9q-12.1,1.59-19.49,13.93t-11.74,38.51q-4.35,26.17-6.71,72t-.68,71.51q1.67,25.7,7.89,36.25t18.31,9q11.71-1.54,19.11-13.88t11.76-38.83"/><path class="cls-27" d="M1370.15,536.49l.51,0q1.41-.09,2.81-.15l.39,0c1,0,2-.05,3-.05h.63c1,0,1.95,0,2.91,0h.33q1.36,0,2.69.14l.5,0q1.4.1,2.78.25l.58.06c.94.11,1.89.22,2.82.36h0l-100.82-14.82c-.93-.14-1.87-.25-2.81-.36l-.59-.06-.5-.06c-.75-.07-1.51-.14-2.28-.19l-.5,0q-1.33-.09-2.68-.14h-.34c-1,0-1.93,0-2.91,0H1276c-1,0-2,0-2.95.05l-.39,0q-1.39.05-2.81.15l-.51,0-.31,0-2,.18-1.12.1q-1.7.17-3.42.4c-1.14.15-2.28.32-3.4.5l-1.09.19-2.29.41-1.25.25-2.12.45-1.25.28-.76.17-.86.22q-1.27.32-2.53.66l-1.43.4c-.87.25-1.74.52-2.6.79l-1.24.39q-1.78.58-3.53,1.22l-.23.08c-1.24.46-2.47.94-3.7,1.44l-.28.11-.9.39c-.81.34-1.61.69-2.41,1.05l-1.34.62q-1.12.53-2.22,1.07l-1.35.68q-1.12.58-2.22,1.18l-1.25.69c-.83.47-1.66,1-2.48,1.45l-.76.44-.21.13-.44.27q-1.19.74-2.36,1.5l-.56.37q-1.31.87-2.6,1.78l-.53.37q-1.15.81-2.28,1.66l-.46.34q-1.27,1-2.53,2l-.57.46q-1.14.93-2.27,1.88l-.31.26-.12.1-.7.62c-.73.64-1.46,1.28-2.18,1.94l-1.09,1c-.61.57-1.23,1.15-1.83,1.74l-1.17,1.16c-.57.57-1.14,1.15-1.71,1.73l-1.18,1.24q-.83.88-1.65,1.78l-1.16,1.29c-.55.62-1.09,1.25-1.63,1.88l-1.11,1.3c-.56.67-1.12,1.35-1.67,2l-1,1.26c-.62.79-1.24,1.6-1.85,2.41l-.77,1q-1.3,1.74-2.57,3.53l0,0-.66,1c-.58.83-1.15,1.65-1.72,2.5-.31.46-.61.93-.91,1.39-.49.74-1,1.48-1.46,2.24-.33.51-.65,1-1,1.56-.45.72-.9,1.44-1.35,2.18-.33.55-.66,1.12-1,1.68-.43.72-.85,1.44-1.27,2.18l-.23.39q-.86,1.51-1.7,3-1.12,2-2.2,4.12c-.24.46-.47.93-.71,1.39-.48.94-1,1.87-1.43,2.82-.28.56-.55,1.14-.83,1.7-.42.87-.84,1.74-1.26,2.62-.29.61-.57,1.24-.85,1.86-.39.85-.78,1.7-1.17,2.56-.29.65-.57,1.31-.86,2-.37.85-.74,1.7-1.1,2.56-.29.68-.57,1.36-.85,2q-.53,1.29-1.05,2.59l-.83,2.1q-.51,1.31-1,2.63l-.81,2.15q-.49,1.34-1,2.69c-.15.42-.31.83-.46,1.26l-.47,1.35-.37,1.07q-.72,2.1-1.43,4.24l-.15.47q-.63,1.94-1.25,3.91l-.36,1.15q-.68,2.19-1.33,4.42l0,.09q-.64,2.19-1.26,4.42l-.33,1.18q-.58,2.11-1.15,4.25l-.1.37,0,.11-.14.58q-.69,2.67-1.35,5.38c-.16.66-.32,1.32-.47,2q-.51,2.12-1,4.27-.25,1.08-.49,2.17-.5,2.24-1,4.51c-.13.62-.26,1.24-.39,1.87q-.65,3.18-1.27,6.42l0,.11-.12.64q-.56,3-1.09,6c-.12.71-.25,1.43-.37,2.14q-.42,2.44-.82,4.92c-.12.74-.24,1.47-.35,2.21q-.46,3-.9,6c-.05.35-.11.7-.16,1.06q-.5,3.54-1,7.14c0,.2-.05.39-.08.58q-.3,2.32-.58,4.66l-.08.65q-.3,2.48-.57,5l-.18,1.65q-.24,2.27-.47,4.56c0,.42-.09.83-.13,1.25q-.28,2.85-.54,5.74c0,.45-.08.91-.12,1.36q-.2,2.3-.39,4.63-.07.85-.14,1.71-.22,2.76-.41,5.55l0,.41v.11c-.1,1.47-.19,3-.29,4.44,0,.73-.1,1.44-.14,2.17q-.2,3.37-.38,6.79-.19,3.6-.33,7.14c0,.78-.06,1.54-.09,2.31-.06,1.58-.12,3.16-.17,4.72,0,.91-.05,1.81-.08,2.72,0,1.4-.08,2.8-.11,4.19,0,1,0,1.91-.05,2.86,0,1.32,0,2.63-.06,3.94,0,.36,0,.72,0,1.08,0,1.15,0,2.29,0,3.43,0,.28,0,.56,0,.83q0,2.81,0,5.57c0,.49,0,1,0,1.45q0,2.19.05,4.36c0,.46,0,.92,0,1.38q.05,2.71.13,5.38c0,.31,0,.62,0,.93q.07,2.25.16,4.46,0,.75.06,1.49.1,2.38.22,4.74c0,.17,0,.34,0,.51v.13c.09,1.66.19,3.31.3,4.94q0,.64.09,1.28.15,2.23.32,4.44c0,.21,0,.43,0,.64q.2,2.46.42,4.87c0,.41.08.81.11,1.21q.2,2.09.41,4.14c0,.26.05.52.08.77q.25,2.36.54,4.67l.14,1.13c.07.55.13,1.1.2,1.65.09.7.19,1.38.28,2.07.05.38.1.77.16,1.15q.32,2.29.66,4.53l.14.89q.29,1.84.59,3.64l.22,1.3q.32,1.87.67,3.72l.12.68q.41,2.15.84,4.25l.23,1.1q.34,1.63.7,3.23l.26,1.15.16.71q.38,1.65.78,3.27l.14.57q.43,1.75.89,3.47l.26,1q.52,1.93,1.06,3.83l.14.46q.49,1.7,1,3.36l.29.92q.58,1.84,1.18,3.64l.12.35q.56,1.65,1.14,3.26l.32.89c.43,1.16.86,2.32,1.3,3.46l.1.24q.63,1.6,1.28,3.16l.35.84c.47,1.1.94,2.2,1.42,3.27l.06.12c.47,1,.95,2.06,1.43,3.07l.39.8c.51,1,1,2.07,1.54,3.09q10,19.38,23.9,30.93,1.85,1.54,3.77,2.94,1,.7,1.93,1.37A72.3,72.3,0,0,0,1212,977.36l100.82,14.82q-38.86-5.71-60.26-47.06c-.52-1-1-2-1.54-3.09l-.39-.8c-.49-1-1-2-1.43-3.07l-.06-.12c-.48-1.08-1-2.17-1.42-3.27l-.35-.85q-.65-1.56-1.27-3.15l-.1-.25c-.44-1.13-.87-2.29-1.3-3.45l-.32-.89q-.58-1.61-1.14-3.24l-.12-.36c-.4-1.2-.8-2.41-1.18-3.64l-.29-.93q-.51-1.66-1-3.34l-.14-.47q-.54-1.89-1.06-3.82l-.26-1q-.45-1.71-.89-3.46l-.14-.57q-.48-2-.94-4l-.26-1.16q-.36-1.6-.7-3.22l-.23-1.1q-.43-2.1-.84-4.25l-.13-.7q-.34-1.84-.66-3.71l-.22-1.3q-.3-1.81-.59-3.64l-.14-.89q-.34-2.24-.66-4.53c-.05-.38-.1-.76-.15-1.14q-.25-1.85-.48-3.73l-.14-1.13q-.28-2.32-.54-4.67c0-.26-.05-.51-.08-.77q-.22-2.06-.42-4.15l-.11-1.21q-.22-2.42-.42-4.87c0-.21,0-.43,0-.64q-.17-2.2-.32-4.44,0-.64-.09-1.28-.16-2.52-.3-5.08c0-.16,0-.33,0-.49q-.12-2.36-.22-4.75,0-.74-.06-1.49-.09-2.22-.16-4.46c0-.31,0-.62,0-.93q-.08-2.67-.13-5.38c0-.46,0-.92,0-1.38q0-2.16-.05-4.36c0-.48,0-1,0-1.44q0-2.77,0-5.58c0-.28,0-.56,0-.83q0-2.24,0-4.52c0-1.3,0-2.62.06-3.94,0-1,0-1.9.05-2.86,0-1.38.07-2.78.11-4.18,0-.91,0-1.82.08-2.73.05-1.55.11-3.13.17-4.7,0-.78.06-1.54.09-2.32q.15-3.54.33-7.14.18-3.42.38-6.79c0-.73.1-1.45.14-2.18.1-1.52.19-3,.3-4.54l0-.41q.2-2.8.41-5.55.07-.85.13-1.69.19-2.33.39-4.64c0-.45.08-.91.12-1.36q.26-2.89.54-5.74c0-.42.08-.83.13-1.25q.23-2.29.47-4.56l.18-1.65q.28-2.5.57-5l.08-.67q.32-2.64.66-5.24.47-3.6,1-7.14c.05-.36.11-.7.16-1.06q.44-3,.9-6c.12-.74.23-1.48.35-2.21q.4-2.47.81-4.91c.12-.72.24-1.44.37-2.15q.53-3,1.09-6l.14-.78q.62-3.24,1.27-6.42c.13-.62.26-1.24.39-1.86q.48-2.27,1-4.51.24-1.09.49-2.17.49-2.15,1-4.27c.16-.66.31-1.33.47-2q.66-2.72,1.36-5.4l.17-.67.1-.39q.56-2.14,1.14-4.24l.33-1.19q.62-2.24,1.27-4.44l0-.08q.66-2.23,1.34-4.43l.35-1.14q.62-2,1.25-3.91l.16-.48q.7-2.13,1.42-4.23l.38-1.08c.3-.87.61-1.73.92-2.59s.65-1.8,1-2.69l.8-2.15q.5-1.32,1-2.63l.83-2.1q.52-1.3,1.05-2.59c.28-.68.56-1.36.85-2,.36-.86.73-1.71,1.1-2.56.29-.66.57-1.32.86-2,.38-.86.77-1.71,1.16-2.55.29-.62.57-1.25.86-1.87.41-.88.83-1.74,1.25-2.6.28-.57.55-1.15.83-1.72.47-.95.95-1.88,1.43-2.82.24-.46.47-.94.71-1.4q1.09-2.08,2.2-4.12c.64-1.16,1.28-2.3,1.93-3.44.42-.74.85-1.46,1.28-2.18.33-.56.66-1.12,1-1.68.45-.74.9-1.46,1.35-2.18.32-.52.64-1,1-1.56.48-.76,1-1.51,1.47-2.25.3-.46.6-.92.9-1.38.57-.85,1.15-1.69,1.73-2.52l.69-1q1.27-1.8,2.57-3.53l.78-1c.61-.81,1.23-1.61,1.85-2.4l1-1.26c.55-.69,1.11-1.37,1.67-2l1.11-1.31c.54-.63,1.08-1.26,1.63-1.88l1.16-1.29q.82-.9,1.65-1.78l1.18-1.24c.56-.59,1.13-1.16,1.71-1.73l1.17-1.16c.61-.59,1.22-1.17,1.83-1.74l1.09-1c.72-.66,1.44-1.3,2.17-1.93l.83-.73.31-.26q1.13-1,2.28-1.89l.56-.46q1.25-1,2.53-2l.46-.34q1.13-.85,2.27-1.66l.53-.38q1.29-.91,2.6-1.78l.56-.37q1.17-.77,2.36-1.5l.44-.28,1-.57c.83-.49,1.65-1,2.49-1.45l1.25-.69c.74-.4,1.48-.8,2.22-1.18l1.35-.68q1.11-.55,2.22-1.08l1.34-.62c.8-.36,1.61-.71,2.42-1.05l1.18-.5c1.22-.5,2.45-1,3.7-1.44l.24-.09q1.75-.64,3.52-1.22l1.24-.39c.86-.27,1.73-.54,2.6-.79l1.43-.4q1.26-.34,2.53-.66l1.62-.4,1.25-.28,2.12-.45,1.25-.25,2.29-.41,1.09-.19q1.69-.27,3.4-.5t3.42-.4l1.11-.1C1368.61,536.62,1369.38,536.55,1370.15,536.49Z"/><polygon class="cls-19" points="1173.87 819.25 1073.05 804.43 1103.29 800.47 1204.1 815.29 1173.87 819.25"/><polygon class="cls-25" points="1084.27 1021.23 983.46 1006.41 987.88 920.51 1088.69 935.33 1084.27 1021.23"/><polygon class="cls-25" points="1094.13 829.71 993.32 814.89 997.7 729.62 1098.52 744.44 1094.13 829.71"/><polygon class="cls-25" points="1098.52 744.44 997.7 729.62 1077.44 719.17 1178.26 733.98 1098.52 744.44"/><polygon class="cls-19" points="1067.68 833.18 966.86 818.36 993.32 814.89 1094.13 829.71 1067.68 833.18"/><polygon class="cls-14" points="1058.48 581.58 957.66 566.77 1040.05 555.97 1140.86 570.78 1058.48 581.58"/><polygon class="cls-25" points="975.7 950.14 874.88 935.33 879.83 839.25 980.64 854.07 975.7 950.14"/><polygon class="cls-28" points="980.64 854.07 879.83 839.25 957.66 566.77 1058.48 581.58 980.64 854.07"/><polygon class="cls-26" points="1140.86 570.78 1067.68 833.18 1094.13 829.71 1098.52 744.44 1178.26 733.98 1173.87 819.25 1204.1 815.29 1198.66 920.91 1168.43 924.87 1164.01 1010.77 1084.27 1021.23 1088.69 935.33 975.7 950.14 980.64 854.07 1058.48 581.58 1140.86 570.78"/><path class="cls-29" d="M640.2,687.89c4.2-.11,18.67,21.17,31,18.43S669,682.62,669,682.62s-6.79-.23-5.39-2.28,2.82-.4,2.16-3.85-3.23-6.14-.67-7.17,8.31-3.37,9.11,2.27,1.32,10.63,3,12.93,15.87,26.33-4,30.64S622.52,688.34,640.2,687.89Z"/><path class="cls-19" d="M627.78,687.2c-14,0-20.7,6.9-22.08,8.28-7.94,7.94,11.73,42.78,11.73,42.78s18.63,1.38,29-2.07c0,0,1.38-20,2.07-22.77s4-11.7-2.07-20S634.68,687.2,627.78,687.2Z"/><path class="cls-26" d="M616.19,769.94s-3.59,11.1,3.31,27.65c0,2.76-4.67,3.65-2.07,22.77,2.76,20.26,3.51,32.71,3.51,32.71l6.65,3.38s2.56-62.1,5.65-74.06S625.36,758.66,616.19,769.94Z"/><path class="cls-26" d="M649.79,774.19c-.29,2.6-4.06,77.21-4.06,77.21l-6.9-5.52s-8.29-44.27-2.07-50.37l-6.21-22.77Z"/><path class="cls-10" d="M617.43,738.25s-14.49,24.15-10.35,49.68c0,0,36.57-.69,53.13-6.21,0,0-6.9-37.95-12.42-45.54C647.79,736.18,625,738.94,617.43,738.25Z"/><path class="cls-26" d="M618.12,854.17"/><path class="cls-10" d="M620.72,851.25c-.69-.51-1.22,7.06.85,9.12s6.21,6.9,9.66,6.21,2.76-3.45,1.38-6.21-4.08-9.58-4.08-9.58S623.32,853.17,620.72,851.25Z"/><path class="cls-10" d="M638.66,846.42c-.69-.51-1.22,7.06.85,9.12s6.21,6.9,9.66,6.21,2.76-3.45,1.38-6.21-4.14-9.66-4.14-9.66S641.26,848.34,638.66,846.42Z"/><path class="cls-30" d="M634.68,654.08s3.33-1.85,4.43,1.15,1.05,22,1.05,22l4.87,1.72s1.38-24.84-3.45-28.29-6.9-5.52-14.49-1.38S634.68,654.08,634.68,654.08Z"/><path class="cls-26" d="M622.26,688.58s4.14,3.45,11.73,0v-5.52s7.59-.69,7.59-11c0-9,.69-17.94-6.9-19.32s-15.76,4.11-14.44,15.51,1.65,13.47,1.65,13.47Z"/><path class="cls-31" d="M634.68,653.9s-5.09.94-6.34,11.9a169.61,169.61,0,0,0-1.25,17.26l-1.57-1.77L623,683.06v-2.18l-4.14,2.18V679.9l-3.51,3.15s-4.08-15.76-3.39-26,13.73-10.42,17.56-9.54S634.68,653.9,634.68,653.9Z"/><circle class="cls-19" cx="637.79" cy="675.81" r="1.03" transform="translate(-200.69 275.26) rotate(-21.12)"/><polygon class="cls-19" points="654.69 672.71 654.69 683.06 659.52 684.44 675.32 678.92 675.39 669.26 667.21 668.53 654.69 672.71"/><path class="cls-26" d="M604.32,697.55c-7.87,15.73-2.07,38.64,24.15,32.43s27.6-41.4,27.6-41.4c.69-4.14,1.38-2.76,4.83-3.45s3.45-5.52-1.38-6.9-1.38-6.9-4.83-5.52-4.14,6.21-6.21,12.42S645,716.86,625,718.24s-13.8-13.11-11.73-17.94S608.46,689.27,604.32,697.55Z"/><ellipse class="cls-10" cx="668.14" cy="676.5" rx="2.41" ry="3.1"/><path class="cls-32" d="M669.67,673.8c1.47-.38,165.1-72.85,165.1-72.85L782.33,795.52l-113.18-115"/></g></g></g></svg>