<?xml version="1.0" encoding="utf-8"?>
<!-- Generator: Adobe Illustrator 21.1.0, SVG Export Plug-In . SVG Version: 6.00 Build 0)  -->
<svg version="1.1" id="Layer_1" xmlns="http://www.w3.org/2000/svg" xmlns:xlink="http://www.w3.org/1999/xlink" x="0px" y="0px"
	 viewBox="0 0 76 74" style="enable-background:new 0 0 76 74;" xml:space="preserve">
<style type="text/css">
	.st0{fill:#FF5512;}
</style>
<path class="st0" d="M38,0.2C17.7,0.2,1.2,16.7,1.2,37S17.7,73.8,38,73.8S74.8,57.3,74.8,37S58.3,0.2,38,0.2z M47.7,33.7l-0.3,3.4
	h-6.5c0,9.8,0,21.8,0,21.8h-8.7c0,0,0-11.9,0-21.8h-4.4v-3.4v-5.3h4.3v-3.9c0-3.6,1.7-9.1,9.2-9.1H48v7.5c0,0-4.1,0-4.9,0
	c-0.8,0-1.9,0.4-1.9,2.1v3.5h6.9L47.7,33.7z"/>
</svg>
