<?xml version="1.0" encoding="utf-8"?>
<!-- Generator: Adobe Illustrator 21.1.0, SVG Export Plug-In . SVG Version: 6.00 Build 0)  -->
<svg version="1.1" id="Layer_1" xmlns="http://www.w3.org/2000/svg" xmlns:xlink="http://www.w3.org/1999/xlink" x="0px" y="0px"
	 viewBox="0 0 672 308" style="enable-background:new 0 0 672 308;" xml:space="preserve">
<style type="text/css">
	.st0{fill-rule:evenodd;clip-rule:evenodd;fill:#FFFFFF;}
</style>
<g>
	<path id="a_8_" class="st0" d="M537.3,81.1c0,0,2-0.2,4.2-0.2c1.7,0,4.1,0.2,4.1,0.2c7.9,0.8,15.5,3.4,20.9,6.8c1.5,1,2,1.2,2,1.2
		v-6.5H595v103.3h-26.4v-6.6c0,0-0.8,0.6-1.1,0.8c-7.1,4.8-15.7,7.4-25.6,7.4c-11,0.1-19.8-3.2-26.7-7.7
		c-13.7-8.9-24.4-24.1-24.4-45.4c0-15.8,6-27.2,13.8-36.3C512.6,89,522.6,82.6,537.3,81.1 M523.6,117.6c-3.4,4.2-6.7,10.1-6.3,18.3
		c0.6,10.6,6.6,18.2,13.8,22.1c7.2,3.9,16.8,3.6,23.2,0.3c10.7-5.4,19.3-21.9,11.5-36.3c-4.2-7.8-13.9-15.1-26.4-13.6
		C532.3,109.4,527.4,113,523.6,117.6"/>
	<path id="u_4_" class="st0" d="M192.3,82.5h26.3v56.7c0,0-0.4,8.8,3.7,14.2c4.5,6.1,10.5,7.5,14.5,7.5c3.9,0,10.3-2,14.6-7.6
		c3.9-5.1,4.2-14.2,4.2-14.2V82.5h26.4v103.3h-26.4v-4c-6.8,3.6-14.6,6.3-25.4,5.6c-11.6-0.8-20.1-6.4-26.2-13.3
		c-5.5-6.1-11.6-17.6-11.6-33.7L192.3,82.5z"/>
	<path id="v_4_" class="st0" d="M423.6,82.5c7.7,21.9,15.6,43.7,23.2,65.8c2.3-5.1,4.4-10.7,6.3-16.2c5.8-16.2,11.5-32.9,17.2-49.5
		h28.1c-12,34.6-24.6,68.6-36.4,103.3h-29.8c-11.6-33.8-23.7-66.9-35.3-100.7c-0.2-0.6-0.2-0.6-0.9-2.6H423.6z"/>
	<path id="a_7_" class="st0" d="M333.9,81.1c0,0,2-0.2,4.2-0.2c1.7,0,4.1,0.2,4.1,0.2c7.9,0.8,15.5,3.4,20.9,6.8c1.5,1,2,1.2,2,1.2
		v-6.5h26.4v103.3h-26.4v-6.6c0,0-0.8,0.6-1.1,0.8c-7.1,4.8-15.7,7.4-25.6,7.4c-11,0.1-19.8-3.2-26.7-7.7
		c-13.7-8.9-24.4-24.1-24.4-45.4c0-15.8,6-27.2,13.8-36.3C309.1,89,319.1,82.6,333.9,81.1 M320.1,117.6c-3.4,4.2-6.7,10.1-6.3,18.3
		c0.6,10.6,6.6,18.2,13.8,22.1c7.2,3.9,16.8,3.6,23.2,0.3c10.7-5.4,19.3-21.9,11.5-36.3c-4.2-7.8-13.9-15.1-26.4-13.6
		C328.8,109.4,323.9,113,320.1,117.6"/>
	<path id="g_4_" class="st0" d="M119.6,110.6c-7.4,3.7-13.5,11.6-14.3,20.9c-2,23.7,22.4,36.1,39,25.7c6.4-4,12.3-12.5,12.3-22.7
		c0-11.2-7.1-19.9-14.1-23.6c-3.7-2-9.7-3-15.2-2.4C124.5,108.8,121.6,109.5,119.6,110.6 M111.4,193.2c0,0,6.9,8.2,19.2,8.1
		c20.1-0.2,23.3-11.2,23.5-19.9c0-0.1,0-0.5,0-0.5l-0.3,0.2c-5,3.2-12.7,6-20.7,6.5c-8.4,0.5-19.1-1.3-28.6-6.5
		c-14.2-7.8-23.5-21.5-25.6-42.1c0,0-0.2-3.2-0.2-4.7c0-1.8,0.2-4.1,0.2-4.1c1.2-13.7,7-25.1,14.6-33.3c7.7-8.4,18.4-14.2,31.6-15.6
		c0,0,2.3-0.2,3.9-0.2c1.7,0,4.4,0.2,4.4,0.2c9.4,1,16.6,4,23,8.2l0-6.7h26.4c0,0,0,89,0,95.6c0,14.4-2.9,25.3-11.6,34.1
		c-9.5,9.6-25.4,15.5-44,14.3c-13.8-0.9-24.6-6.9-32.9-14.8L111.4,193.2z"/>
</g>
</svg>
