<?xml version="1.0" encoding="UTF-8"?>
<svg width="53px" height="16px" viewBox="0 0 53 16" version="1.1" xmlns="http://www.w3.org/2000/svg" xmlns:xlink="http://www.w3.org/1999/xlink">
    <!-- Generator: Sketch 46.2 (44496) - http://www.bohemiancoding.com/sketch -->
    <title>guava</title>
    <desc>Created with Sketch.</desc>
    <defs></defs>
    <g id="Hero-(MD)" stroke="none" stroke-width="1" fill="none" fill-rule="evenodd">
        <g id="Hero-Day---Speakers-" transform="translate(-849.000000, -2059.000000)" fill="#FFFFFF">
            <g id="Group-4" transform="translate(849.000000, 2055.774414)">
                <g id="guava" transform="translate(0.558661, 3.519651)">
                    <path d="M46.1372895,0.110496448 C46.1372895,0.110496448 46.3381922,0.0904061846 46.5591851,0.0904061846 C46.7299523,0.0904061846 46.9710354,0.110496448 46.9710354,0.110496448 C47.7646008,0.190857501 48.5280309,0.452030923 49.070468,0.793565398 C49.2211449,0.894016714 49.2713706,0.914106977 49.2713706,0.914106977 L49.2713706,0.261173422 L51.9333305,0.261173422 L51.9333305,10.6377944 L49.2814157,10.6377944 L49.2814157,9.9748157 C49.2814157,9.9748157 49.2010547,10.0350865 49.1709193,10.0551768 C48.4577149,10.5373431 47.5938336,10.7985165 46.5993656,10.7985165 C45.4944011,10.8085616 44.6104295,10.4770723 43.9173154,10.0250414 C42.5411324,9.13102464 41.4663033,7.60416464 41.4663033,5.4645516 C41.4663033,3.8774208 42.0690112,2.7322758 42.8525315,1.81816882 C43.656142,0.904061846 44.6606552,0.261173422 46.1372895,0.110496448 M44.7611065,3.77696949 C44.419572,4.19886502 44.0880827,4.79152778 44.1282632,5.61522857 C44.188534,6.68001253 44.7912419,7.44344253 45.5144914,7.83520266 C46.2377408,8.2269628 47.2020735,8.1968274 47.8449619,7.86533806 C48.919791,7.32290095 49.7836723,5.66545423 49.000152,4.21895528 C48.5782565,3.43543501 47.6038787,2.70214041 46.3482373,2.85281738 C45.6350329,2.9532687 45.1428215,3.31489343 44.7611065,3.77696949" id="a_8_"></path>
                    <path d="M11.4815854,0.25112829 L14.1234551,0.25112829 L14.1234551,5.94671792 C14.1234551,5.94671792 14.0832745,6.8306895 14.4951249,7.37312661 C14.9471558,7.98587964 15.5498637,8.12651148 15.951669,8.12651148 C16.3434291,8.12651148 16.9863176,7.92560885 17.4182582,7.36308148 C17.8100184,6.85077976 17.8401538,5.93667279 17.8401538,5.93667279 L17.8401538,0.25112829 L20.4920685,0.25112829 L20.4920685,10.6277493 L17.8401538,10.6277493 L17.8401538,10.225944 C17.1570848,10.5875687 16.3735645,10.8587873 15.2886903,10.7884714 C14.1234551,10.7081103 13.2696189,10.1455829 12.6568658,9.45246885 C12.1043836,8.83971582 11.4916306,7.68452569 11.4916306,6.0672595 L11.4815854,0.25112829 Z" id="u_4_"></path>
                    <path d="M34.7159749,0.25112829 C35.48945,2.45101211 36.2830154,4.64085081 37.0464454,6.8608249 C37.2774834,6.34852318 37.4884312,5.78599581 37.6792887,5.23351357 C38.2619063,3.60620225 38.8344788,1.92866527 39.4070513,0.261173422 L42.2297333,0.261173422 C41.0243175,3.73678896 39.7586309,7.15213371 38.5733054,10.6377944 L35.5798562,10.6377944 C34.4146209,7.2425399 33.19916,3.91760133 32.0339247,0.522346844 C32.0138345,0.462076054 32.0138345,0.462076054 31.9435185,0.261173422 L34.7159749,0.261173422 L34.7159749,0.25112829 Z" id="v_4_"></path>
                    <path d="M25.7054918,0.110496448 C25.7054918,0.110496448 25.9063944,0.0904061846 26.1273873,0.0904061846 C26.2981546,0.0904061846 26.5392377,0.110496448 26.5392377,0.110496448 C27.3328031,0.190857501 28.0962331,0.452030923 28.6386702,0.793565398 C28.7893472,0.894016714 28.8395729,0.914106977 28.8395729,0.914106977 L28.8395729,0.261173422 L31.4914876,0.261173422 L31.4914876,10.6377944 L28.8395729,10.6377944 L28.8395729,9.9748157 C28.8395729,9.9748157 28.7592118,10.0350865 28.7290764,10.0551768 C28.0158721,10.5373431 27.1519908,10.7985165 26.1575227,10.7985165 C25.0525583,10.8085616 24.1685867,10.4770723 23.4754726,10.0250414 C22.0992896,9.13102464 21.0244605,7.60416464 21.0244605,5.4645516 C21.0244605,3.8774208 21.6271684,2.7322758 22.4106886,1.81816882 C23.2142992,0.904061846 24.2188123,0.261173422 25.7054918,0.110496448 M24.3192636,3.77696949 C23.9777292,4.19886502 23.6462398,4.79152778 23.6864204,5.61522857 C23.7466911,6.68001253 24.349399,7.44344253 25.0726485,7.83520266 C25.795898,8.2269628 26.7602306,8.1968274 27.4031191,7.86533806 C28.4779481,7.32290095 29.3418295,5.66545423 28.5583092,4.21895528 C28.1364137,3.43543501 27.1620359,2.70214041 25.9063944,2.85281738 C25.1931901,2.9532687 24.7009787,3.31489343 24.3192636,3.77696949" id="a_7_"></path>
                    <path d="M4.17877475,3.07381028 C3.43543501,3.44548015 2.82268198,4.23904554 2.74232093,5.17324278 C2.5414183,7.55393898 4.99243041,8.7995353 6.65992226,7.75484161 C7.30281069,7.35303634 7.89547345,6.49920016 7.89547345,5.47459673 C7.89547345,4.34954199 7.18226911,3.47561554 6.47910989,3.10394567 C6.10744002,2.90304304 5.50473213,2.80259172 4.95224989,2.86286251 C4.6709862,2.89299791 4.37967739,2.96331383 4.17877475,3.07381028 L4.17877475,3.07381028 Z M3.35507396,11.371089 C3.35507396,11.371089 4.04818804,12.1947898 5.28373923,12.1847447 C7.30281069,12.1646544 7.6242549,11.0596899 7.64434516,10.1857635 C7.64434516,10.1757183 7.64434516,10.1355378 7.64434516,10.1355378 L7.61420977,10.1556281 C7.11195319,10.4770723 6.33847805,10.758336 5.53486752,10.8085616 C4.69107647,10.8587873 3.61624738,10.6779749 2.66195988,10.1556281 C1.23555119,9.3721078 0.301353949,7.99592477 0.0904061846,5.92662766 C0.0904061846,5.92662766 0.0703159213,5.60518344 0.0703159213,5.45450647 C0.0703159213,5.2736941 0.0904061846,5.04265607 0.0904061846,5.04265607 C0.210947764,3.66647304 0.793565398,2.52132804 1.5569954,1.69762724 C2.33047054,0.853836188 3.40529962,0.271218554 4.73125699,0.130586711 C4.73125699,0.130586711 4.96229502,0.110496448 5.12301713,0.110496448 C5.29378436,0.110496448 5.56500292,0.130586711 5.56500292,0.130586711 C6.50924529,0.231038027 7.23249477,0.532391976 7.87538319,0.954287504 L7.87538319,0.281263685 L10.5272979,0.281263685 C10.5272979,0.281263685 10.5272979,9.22143083 10.5272979,9.88440951 C10.5272979,11.3309085 10.2359891,12.4258278 9.36206267,13.3097994 C8.40777516,14.274132 6.81059924,14.8667948 4.94220476,14.7462532 C3.55597659,14.655847 2.47110238,14.0531391 1.63735645,13.2595737 L3.35507396,11.371089 Z" id="g_4_"></path>
                </g>
            </g>
        </g>
    </g>
</svg>