<?xml version="1.0" encoding="utf-8"?>
<!-- Generator: Adobe Illustrator 21.1.0, SVG Export Plug-In . SVG Version: 6.00 Build 0)  -->
<svg version="1.1" id="Layer_1" xmlns="http://www.w3.org/2000/svg" xmlns:xlink="http://www.w3.org/1999/xlink" x="0px" y="0px"
	 viewBox="0 0 1594 430" style="enable-background:new 0 0 1594 430;" xml:space="preserve">
<style type="text/css">
	.st0{fill:#FFFFFF;}
</style>
<g>
	<g>
		<g>
			<g>
				<path class="st0" d="M402.2,195.3c0-4.5-1.6-6.3-6.2-6.3h-7.3v-9.5h7.7c11.4,0,15.9,4.3,15.9,15.7V293h-10.2V195.3z M402.7,137
					c5.7,0,10.2,4.5,10.2,10.2c0,5.7-4.6,10.2-10.2,10.2c-5.7,0-10.2-4.5-10.2-10.2C392.5,141.6,397,137,402.7,137z"/>
				<path class="st0" d="M450.5,293h-10.2V179.5h9.1l1.1,22.5c9.3-11.6,24.3-24.1,41.1-24.1c15.4,0,28.4,8.4,28.4,29.3V293h-10.2
					v-85.8c0-13.6-6.1-19.8-18.2-19.8c-15.2,0-31.6,14.1-41.1,26.1V293z"/>
				<path class="st0" d="M580.8,292.5c-5,1.4-9.5,2-13.6,2c-16.8,0-24.5-10-24.5-29.7V126.6h22.7v137.8c0,6.3,3.6,8.6,8.2,8.6
					c1.8,0,3.9-0.2,5.9-0.9L580.8,292.5z"/>
				<path class="st0" d="M589.4,241.2v-10c0-28.4,14.3-53.3,51.3-53.3c37,0,51.3,25,51.3,53.3v10c0,28.4-14.3,53.3-51.3,53.3
					C603.7,294.5,589.4,269.6,589.4,241.2z M668.9,240.3v-8.2c0-18.8-9.3-32.7-28.2-32.7c-18.8,0-28.1,13.8-28.1,32.7v8.2
					c0,18.9,9.3,32.7,28.1,32.7C659.6,273,668.9,259.1,668.9,240.3z"/>
				<path class="st0" d="M788.4,285.7c-11.1,6.6-21.6,8.8-33.1,8.8c-29.9,0-50.6-17.9-50.6-49.3v-16.1c0-31.5,19.3-51.3,53.1-51.3
					c9.1,0,18.6,2,28.4,5.9l-2.5,20.9c-8.2-3.4-16.6-5.2-24.5-5.2c-17.5,0-31.8,9.1-31.8,30v14.3c0,20.2,12.9,29.3,27.9,29.3
					c10.9,0,21.6-3.4,30.4-9.5L788.4,285.7z"/>
				<path class="st0" d="M800.2,241.2v-10c0-28.4,14.3-53.3,51.3-53.3c37,0,51.3,25,51.3,53.3v10c0,28.4-14.3,53.3-51.3,53.3
					C814.5,294.5,800.2,269.6,800.2,241.2z M879.6,240.3v-8.2c0-18.8-9.3-32.7-28.2-32.7s-28.1,13.8-28.1,32.7v8.2
					c0,18.9,9.3,32.7,28.1,32.7S879.6,259.1,879.6,240.3z"/>
			</g>
			<g>
				<path class="st0" d="M935.7,293h-10.2V179.4h9.1l1.1,20.9c6.6-10,20-22.5,36.1-22.5c12.9,0,24.8,6.3,27.7,21.3
					c7.2-10,22-21.3,36.8-21.3c15,0,28.4,8.4,28.4,29.3V293h-10.2v-85.8c0-13.6-7-19.8-18.2-19.8c-13.2,0-27.7,11.6-36.1,22.9V293
					H990v-85.8c0-13.6-7-19.8-18.2-19.8c-14.5,0-27.9,12.5-36.1,24.5V293z"/>
				<path class="st0" d="M1097.2,243.2c1.1,26.8,14.1,41.8,38.8,41.8c8.6,0,17.3-2.7,27.9-7.5l1.4,9.7c-10.2,5-20.2,7.3-29.3,7.3
					c-32.9,0-49-22-49-55.2c0-40.9,22-61.5,46.5-61.5c20.4,0,39.7,15.9,39.7,47.2c0,5.7-0.7,11.8-2.3,18.2H1097.2z M1097.2,233.7
					h65.1c0.5-2.9,0.7-5.9,0.7-8.6c0-24.7-14.3-37.7-29.7-37.7C1115.2,187.4,1099.1,203.1,1097.2,233.7z"/>
				<path class="st0" d="M1265.4,126.6h10.2V293h-9.1l-1.1-19.5c-10,14.5-22,21.1-34.3,21.1c-23.2,0-40.4-17.7-40.4-50.4V228
					c0-32.7,18.8-50.2,40.9-50.2c11.8,0,23.6,5.4,33.8,18.1V126.6z M1265.4,208.1c-9.5-13.9-21.8-20.7-33.4-20.7
					c-17.3,0-31.1,12.9-31.1,40.9v15.9c0,27.2,13.2,40.9,30.4,40.9c12,0,24.5-7.7,34-23.4V208.1z"/>
				<path class="st0" d="M1309.1,195.3c0-4.5-1.6-6.3-6.1-6.3h-7.3v-9.5h7.7c11.4,0,15.9,4.3,15.9,15.7V293h-10.2V195.3z
					 M1309.6,137c5.7,0,10.2,4.6,10.2,10.2c0,5.7-4.5,10.2-10.2,10.2c-5.7,0-10.2-4.5-10.2-10.2C1299.3,141.6,1303.9,137,1309.6,137
					z"/>
				<path class="st0" d="M1410.8,278.4c-9.1,9.1-24.1,16.1-38.4,16.1c-21.3,0-30.8-15.2-30.8-31.1c0-17.5,11.3-32.9,37.9-34.7
					l31.3-2v-13.2c0-20-14.5-26.1-29.5-26.1c-10.9,0-22.2,3.4-31.8,7l-1.1-9.8c10.9-4.5,22.7-6.8,33.3-6.8c20.7,0,39.3,10,39.3,34.9
					V293h-9.1L1410.8,278.4z M1379.7,238.2c-19.8,1.4-27.9,12.5-27.9,25c0,11.3,5.7,21.8,20.6,21.8c14.3,0,29.3-7.7,38.4-16.3V236
					L1379.7,238.2z"/>
			</g>
		</g>
		<path class="st0" d="M342.5,180.9l-11.2-25.5l0,0l0,0v0l0,0l0,0l-26.9-28.6l-46.2-13.3L212,126.8l-26.9,28.6l0,0h0l0,0l0,0l0,0
			l-11.2,25.5l0,0l-0.9,33.2l0,0l15,32.7l31.8,35.6l0,0l38.4,35.5l38.4-35.5l0,0l31.8-35.6l15-32.7L342.5,180.9z M294.1,184.8
			l-8.2,41l-27.7,12.5v0v0l-27.7-12.5l-8.1-41l28.1-21.9l4.4-1l3.4,0.3l3.4-0.3l4.3,1L294.1,184.8z"/>
	</g>
</g>
</svg>
