<?xml version="1.0" encoding="UTF-8"?>
<svg width="97px" height="17px" viewBox="0 0 97 17" version="1.1" xmlns="http://www.w3.org/2000/svg" xmlns:xlink="http://www.w3.org/1999/xlink">
    <!-- Generator: Sketch 46.2 (44496) - http://www.bohemiancoding.com/sketch -->
    <title>inloco</title>
    <desc>Created with Sketch.</desc>
    <defs></defs>
    <g id="Hero-(MD)" stroke="none" stroke-width="1" fill="none" fill-rule="evenodd">
        <g id="Hero-Day---Speakers-" transform="translate(-928.000000, -2056.000000)" fill-rule="nonzero" fill="#FFFFFF">
            <g id="Group-4" transform="translate(849.000000, 2055.774414)">
                <g id="inloco" transform="translate(78.855024, 0.041691)">
                    <g id="InLoco-Negative" transform="translate(0.385625, 0.656902)">
                        <g id="Group" transform="translate(16.520554, 0.998917)">
                            <g id="Shape">
                                <path d="M1.09112498,5.32499725 C1.09112498,4.97921821 0.968181318,4.84090659 0.614718297,4.84090659 L0.053787851,4.84090659 L0.053787851,4.11092861 L0.645454212,4.11092861 C1.52142779,4.11092861 1.86720683,4.4413397 1.86720683,5.31731327 L1.86720683,12.8322445 L1.083441,12.8322445 L1.083441,5.32499725 L1.09112498,5.32499725 Z M1.12954487,0.845237658 C1.56753166,0.845237658 1.9133107,1.1910167 1.9133107,1.62900349 C1.9133107,2.06699027 1.55984768,2.41276932 1.12954487,2.41276932 C0.691558084,2.41276932 0.345779042,2.06699027 0.345779042,1.62900349 C0.345779042,1.19870068 0.691558084,0.845237658 1.12954487,0.845237658 Z"></path>
                                <path d="M4.8024867,12.8322445 L4.01872087,12.8322445 L4.01872087,4.11092861 L4.71796293,4.11092861 L4.8024867,5.83982382 C5.51709672,4.94848229 6.66969352,3.98798495 7.96060195,3.98798495 C9.14393467,3.98798495 10.1428519,4.63343916 10.1428519,6.23939071 L10.1428519,12.8322445 L9.35908607,12.8322445 L9.35908607,6.23939071 C9.35908607,5.19436961 8.89036337,4.71796293 7.96060195,4.71796293 C6.79263718,4.71796293 5.53246467,5.80140393 4.8024867,6.72348137 L4.8024867,12.8322445 L4.8024867,12.8322445 Z"></path>
                                <path d="M14.814711,12.7938246 C14.430512,12.9014003 14.084733,12.9475041 13.7696899,12.9475041 C12.4787814,12.9475041 11.8871151,12.1791063 11.8871151,10.6653625 L11.8871151,0.0461038723 L13.6313782,0.0461038723 L13.6313782,10.6346265 C13.6313782,11.1187172 13.9080015,11.2954487 14.2614645,11.2954487 C14.3997761,11.2954487 14.5611397,11.2800808 14.7148192,11.2262929 L14.814711,12.7938246 Z"></path>
                                <path d="M15.4755331,8.85194348 L15.4755331,8.08354561 C15.4755331,5.90129565 16.5743421,3.98798495 19.4174142,3.98798495 C22.2604863,3.98798495 23.3592953,5.90897963 23.3592953,8.08354561 L23.3592953,8.85194348 C23.3592953,11.0341934 22.2604863,12.9475041 19.4174142,12.9475041 C16.5743421,12.9475041 15.4755331,11.0341934 15.4755331,8.85194348 Z M21.5842962,8.78278767 L21.5842962,8.15270141 C21.5842962,6.70811342 20.8696862,5.64004038 19.4174142,5.64004038 C17.9728262,5.64004038 17.2582162,6.70042944 17.2582162,8.15270141 L17.2582162,8.78278767 C17.2582162,10.2350596 17.9728262,11.2954487 19.4174142,11.2954487 C20.8696862,11.2954487 21.5842962,10.2273757 21.5842962,8.78278767 Z"></path>
                                <path d="M30.7666508,12.271314 C29.9137291,12.7784566 29.1069114,12.9475041 28.2232538,12.9475041 C25.9257442,12.9475041 24.3351606,11.5720719 24.3351606,9.15930263 L24.3351606,7.92218205 C24.3351606,5.50172876 25.8181685,3.98030097 28.4153533,3.98030097 C29.1145953,3.98030097 29.8445733,4.13398055 30.5976032,4.43365572 L30.4055038,6.03960727 C29.7754175,5.77835199 29.1299633,5.64004038 28.522929,5.64004038 C27.1782327,5.64004038 26.0794238,6.33928244 26.0794238,7.94523399 L26.0794238,9.04404295 C26.0794238,10.5962066 27.070657,11.2954487 28.2232538,11.2954487 C29.0608075,11.2954487 29.8829932,11.0341934 30.5591833,10.5654707 L30.7666508,12.271314 Z"></path>
                                <path d="M31.6733603,8.85194348 L31.6733603,8.08354561 C31.6733603,5.90129565 32.7721692,3.98798495 35.6152413,3.98798495 C38.4583135,3.98798495 39.5571224,5.90897963 39.5571224,8.08354561 L39.5571224,8.85194348 C39.5571224,11.0341934 38.4583135,12.9475041 35.6152413,12.9475041 C32.7721692,12.9475041 31.6733603,11.0341934 31.6733603,8.85194348 Z M37.7744394,8.78278767 L37.7744394,8.15270141 C37.7744394,6.70811342 37.0598293,5.64004038 35.6075574,5.64004038 C34.1552854,5.64004038 33.4483593,6.70042944 33.4483593,8.15270141 L33.4483593,8.78278767 C33.4483593,10.2350596 34.1629694,11.2954487 35.6075574,11.2954487 C37.0521454,11.2954487 37.7744394,10.2273757 37.7744394,8.78278767 Z"></path>
                            </g>
                            <g transform="translate(41.262966, 0.000000)" id="Shape">
                                <path d="M0.822185722,12.8322445 L0.0384198936,12.8322445 L0.0384198936,4.10324463 L0.737661956,4.10324463 L0.822185722,5.70919618 C1.32932832,4.94079831 2.35898146,3.98030097 3.59610204,3.98030097 C4.58733529,3.98030097 5.50172876,4.46439163 5.72456414,5.61698844 C6.27781061,4.84859057 7.41503946,3.98030097 8.55226831,3.98030097 C9.70486511,3.98030097 10.7345183,4.62575519 10.7345183,6.23170674 L10.7345183,12.8322445 L9.95075243,12.8322445 L9.95075243,6.23939071 C9.95075243,5.19436961 9.41287392,4.71796293 8.55226831,4.71796293 C7.53798312,4.71796293 6.4238062,5.60930446 5.77835199,6.47759405 L5.77835199,12.8322445 L4.99458616,12.8322445 L4.99458616,6.23939071 C4.99458616,5.19436961 4.45670765,4.71796293 3.59610204,4.71796293 C2.48192512,4.71796293 1.45227198,5.67846027 0.822185722,6.60053771 L0.822185722,12.8322445 L0.822185722,12.8322445 Z"></path>
                                <path d="M13.2318113,9.00562305 C13.3163351,11.0649293 14.3152523,12.2175262 16.2131951,12.2175262 C16.8740173,12.2175262 17.5425234,12.0100587 18.3570251,11.6412277 L18.4646008,12.3865737 C17.680835,12.7707726 16.9124371,12.9475041 16.2131951,12.9475041 C13.6851661,12.9475041 12.4480455,11.2570288 12.4480455,8.70594788 C12.4480455,5.56320059 14.1385208,3.98030097 16.0210956,3.98030097 C17.5886273,3.98030097 19.0716352,5.20205359 19.0716352,7.60713893 C19.0716352,8.04512571 19.0178473,8.51384841 18.8949037,9.00562305 L13.2318113,9.00562305 Z M13.2318113,8.27564507 L18.2340815,8.27564507 C18.2725014,8.05280969 18.2878693,7.82229033 18.2878693,7.6148229 C18.2878693,5.71688016 17.1890604,4.71796293 16.0057277,4.71796293 C14.6149275,4.71796293 13.3778069,5.92434759 13.2318113,8.27564507 Z"></path>
                                <path d="M26.1562635,0.0461038723 L26.9400294,0.0461038723 L26.9400294,12.8322445 L26.2407873,12.8322445 L26.1562635,11.3338686 C25.3878657,12.4480455 24.4657882,12.9551881 23.5206588,12.9551881 C21.7379758,12.9551881 20.4163314,11.5951239 20.4163314,9.08246284 L20.4163314,7.83765829 C20.4163314,5.32499725 21.8609194,3.98030097 23.5590787,3.98030097 C24.4657882,3.98030097 25.3724977,4.39523582 26.1562635,5.37110112 L26.1562635,0.0461038723 L26.1562635,0.0461038723 Z M26.1562635,6.30854652 C25.4262856,5.24047348 24.4811562,4.71796293 23.5898146,4.71796293 C22.2604863,4.71796293 21.2000973,5.70919618 21.2000973,7.86071022 L21.2000973,9.08246284 C21.2000973,11.172505 22.2143825,12.2252101 23.5360268,12.2252101 C24.4581042,12.2252101 25.4186016,11.6335438 26.1485796,10.4271591 L26.1485796,6.30854652 L26.1562635,6.30854652 Z"></path>
                                <path d="M29.5141622,5.32499725 C29.5141622,4.97921821 29.3912186,4.84090659 29.0454395,4.84090659 L28.4845091,4.84090659 L28.4845091,4.11092861 L29.0761754,4.11092861 C29.952149,4.11092861 30.2979281,4.4413397 30.2979281,5.31731327 L30.2979281,12.8322445 L29.5141622,12.8322445 L29.5141622,5.32499725 L29.5141622,5.32499725 Z M29.5525821,0.845237658 C29.9905689,0.845237658 30.336348,1.19870068 30.336348,1.62900349 C30.336348,2.06699027 29.9905689,2.41276932 29.5525821,2.41276932 C29.1145953,2.41276932 28.7688163,2.06699027 28.7688163,1.62900349 C28.7611323,1.19870068 29.1145953,0.845237658 29.5525821,0.845237658 Z"></path>
                                <path d="M37.3287686,11.7103836 C36.6295265,12.4096256 35.4769297,12.9475041 34.3781208,12.9475041 C32.7414333,12.9475041 32.0114553,11.7795394 32.0114553,10.5577868 C32.0114553,9.21309048 32.8797449,8.02975775 34.9236832,7.89144614 L37.3287686,7.73776656 L37.3287686,6.72348137 C37.3287686,5.18668563 36.2145917,4.71796293 35.0619949,4.71796293 C34.2244412,4.71796293 33.3561516,4.97921821 32.6184896,5.25584144 L32.5339659,4.50281153 C33.3715195,4.15703248 34.278229,3.98030097 35.0927308,3.98030097 C36.6833144,3.98030097 38.1125344,4.74869884 38.1125344,6.66200954 L38.1125344,12.8322445 L37.4132924,12.8322445 L37.3287686,11.7103836 Z M34.9390512,8.62142412 C33.4176234,8.72899982 32.7952211,9.58192145 32.7952211,10.5424188 C32.7952211,11.4107084 33.2332079,12.2175262 34.3781208,12.2175262 C35.4769297,12.2175262 36.6295265,11.6258598 37.3287686,10.9650376 L37.3287686,8.45237658 L34.9390512,8.62142412 Z"></path>
                            </g>
                        </g>
                        <path d="M13.0243439,5.21742155 L12.1637383,3.25800697 L12.1637383,3.25800697 L12.1637383,3.25800697 L12.1637383,3.25800697 L12.1637383,3.25800697 L12.1637383,3.25800697 L10.096748,1.06038906 L6.54674986,0.0384198936 L2.9967517,1.06038906 L0.929761424,3.25800697 L0.929761424,3.25800697 L0.929761424,3.25800697 L0.929761424,3.25800697 L0.929761424,3.25800697 L0.929761424,3.25800697 L0.0691558084,5.21742155 L0.0691558084,5.21742155 L0,7.76850248 L0,7.76850248 L1.15259681,10.2811635 L3.59610204,13.0166599 L3.59610204,13.0166599 L6.54674986,15.7444724 L9.49739769,13.0166599 L9.49739769,13.0166599 L11.9409029,10.2811635 L13.0934997,7.76850248 L13.0243439,5.21742155 Z M9.30529822,5.51709672 L8.67521197,8.66752799 L6.54674986,9.62802533 L6.54674986,9.62802533 L6.54674986,9.62802533 L4.41828776,8.66752799 L3.79588548,5.51709672 L5.9550835,3.83430538 L6.29317857,3.75746559 L6.55443384,3.78051753 L6.81568912,3.75746559 L7.1461002,3.83430538 L9.30529822,5.51709672 Z" id="Shape"></path>
                    </g>
                </g>
            </g>
        </g>
    </g>
</svg>