<?xml version="1.0" encoding="utf-8"?>
<!-- Generator: Adobe Illustrator 21.1.0, SVG Export Plug-In . SVG Version: 6.00 Build 0)  -->
<svg version="1.1" id="Layer_1" xmlns="http://www.w3.org/2000/svg" xmlns:xlink="http://www.w3.org/1999/xlink" x="0px" y="0px"
	 viewBox="0 0 1388.9 430" style="enable-background:new 0 0 1388.9 430;" xml:space="preserve">
<style type="text/css">
	.st0{fill:#FFFFFF;}
</style>
<g>
	<g>
		<path class="st0" d="M427.9,178.1l-14.7-33.3l0,0l0,0v0l0,0l0,0l-35.1-37.3L317.6,90l-60.4,17.4l-35.2,37.3l-0.1,0h0l0,0l0.1,0
			l-0.1,0l-14.7,33.3l0,0l-1.1,43.4l0,0l19.6,42.8l41.6,46.6l0,0l50.2,46.5l50.2-46.5l0,0l41.6-46.6l19.6-42.8L427.9,178.1z
			 M364.5,183.3l-10.7,53.6l-36.2,16.3v0v0l-36.3-16.3l-10.6-53.6l36.8-28.6l5.7-1.3l4.4,0.3l4.4-0.3l5.7,1.3L364.5,183.3z"/>
	</g>
	<g>
		<path class="st0" d="M506,196.5c0-5.9-2.1-8.2-7.9-8.2h-9.4v-12.4h10c14.7,0,20.6,5.6,20.6,20.3v126.9H506V196.5z M506.6,120.8
			c7.4,0,13.2,5.9,13.2,13.2c0,7.4-5.9,13.2-13.2,13.2c-7.4,0-13.2-5.9-13.2-13.2C493.3,126.7,499.2,120.8,506.6,120.8z"/>
		<path class="st0" d="M573.4,323.1h-13.2V175.9h11.8l1.5,29.1c12.1-15,31.5-31.2,53.3-31.2c20,0,36.8,10.9,36.8,38v111.3h-13.2
			V211.8c0-17.7-7.9-25.6-23.5-25.6c-19.7,0-40.9,18.2-53.3,33.9V323.1z"/>
		<path class="st0" d="M748.2,322.5c-6.5,1.8-12.4,2.6-17.7,2.6c-21.8,0-31.8-12.9-31.8-38.6V107.3h29.4V286
			c0,8.2,4.7,11.2,10.6,11.2c2.4,0,5-0.3,7.6-1.2L748.2,322.5z"/>
		<path class="st0" d="M767.1,256V243c0-36.8,18.5-69.2,66.5-69.2c48,0,66.5,32.4,66.5,69.2V256c0,36.8-18.5,69.2-66.5,69.2
			C785.6,325.1,767.1,292.8,767.1,256z M870.1,254.8v-10.6c0-24.4-12.1-42.4-36.5-42.4c-24.4,0-36.5,18-36.5,42.4v10.6
			c0,24.4,12.1,42.4,36.5,42.4C858,297.2,870.1,279.2,870.1,254.8z"/>
		<path class="st0" d="M1029.9,313.7c-14.4,8.5-28,11.5-43,11.5c-38.9,0-65.6-23.3-65.6-63.9v-20.9c0-40.9,25-66.5,68.9-66.5
			c11.8,0,24.1,2.6,36.8,7.7l-3.2,27.1c-10.6-4.4-21.5-6.8-31.8-6.8c-22.7,0-41.2,11.8-41.2,38.9v18.5c0,26.2,16.8,38,36.2,38
			c14.1,0,28-4.4,39.4-12.4L1029.9,313.7z"/>
		<path class="st0" d="M1050,256V243c0-36.8,18.5-69.2,66.5-69.2s66.5,32.4,66.5,69.2V256c0,36.8-18.5,69.2-66.5,69.2
			S1050,292.8,1050,256z M1153,254.8v-10.6c0-24.4-12.1-42.4-36.5-42.4c-24.4,0-36.5,18-36.5,42.4v10.6c0,24.4,12.1,42.4,36.5,42.4
			C1140.9,297.2,1153,279.2,1153,254.8z"/>
	</g>
</g>
</svg>
