<?xml version="1.0" encoding="utf-8"?>
<!-- Generator: Adobe Illustrator 21.1.0, SVG Export Plug-In . SVG Version: 6.00 Build 0)  -->
<svg version="1.1" id="Layer_1" xmlns="http://www.w3.org/2000/svg" xmlns:xlink="http://www.w3.org/1999/xlink" x="0px" y="0px"
	 viewBox="0 0 76 74" style="enable-background:new 0 0 76 74;" xml:space="preserve">
<style type="text/css">
	.st0{fill:#DEDEDE;}
</style>
<g>
	<path class="st0" d="M43.2,41.8c0.2,0.2,0.5,0.3,0.8,0.3c0.4,0,0.8-0.2,1.2-0.6c0.4-0.4,0.7-0.9,0.9-1.6c0.2-0.7,0.3-1.5,0.3-2.3
		c0-1.7-0.4-3.3-1.1-4.7c-0.8-1.4-1.8-2.5-3.3-3.3c-1.4-0.8-3.1-1.2-4.9-1.2c-1.8,0-3.4,0.4-4.8,1.2c-1.5,0.8-2.6,1.9-3.5,3.4
		c-0.9,1.4-1.3,3-1.3,4.7c0,1.7,0.4,3.2,1.2,4.5c0.8,1.3,1.9,2.4,3.4,3.2c1.4,0.8,3,1.1,4.7,1.1c0.8,0,1.7-0.1,2.6-0.4
		c0.9-0.3,1.7-0.7,2.4-1.2l1.1,2c-0.8,0.6-1.7,1-2.9,1.4c-1.2,0.3-2.3,0.5-3.3,0.5c-2.2,0-4.2-0.5-5.9-1.4c-1.8-1-3.2-2.3-4.2-4
		c-1-1.7-1.5-3.6-1.5-5.6c0-2.1,0.5-4.1,1.6-5.8c1.1-1.7,2.5-3.1,4.3-4.1c1.8-1,3.8-1.5,6-1.5c2.2,0,4.2,0.5,6,1.5
		c1.8,1,3.2,2.3,4.2,4c1,1.7,1.5,3.7,1.5,5.8c0,1.3-0.2,2.5-0.6,3.4c-0.4,1-1,1.8-1.8,2.3c-0.8,0.5-1.6,0.8-2.6,0.8
		c-0.8,0-1.5-0.2-2-0.5c-0.5-0.4-0.9-0.9-1-1.6l-0.1-0.5c-0.5,0.8-1.2,1.3-1.9,1.7c-0.8,0.4-1.6,0.6-2.5,0.6c-1.1,0-2-0.3-3-0.8
		c-0.9-0.5-1.6-1.2-2.2-2.2c-0.6-0.9-0.8-2-0.8-3.2c0-1.2,0.2-2.2,0.7-3.2c0.5-0.9,1.1-1.7,2-2.3c0.9-0.6,1.9-0.8,3-0.8
		c0.7,0,1.3,0.1,1.9,0.3s1,0.5,1.4,0.8c0.4,0.3,0.6,0.5,0.7,0.7v-1.6h3v9.1C42.9,41.3,43,41.6,43.2,41.8z M34.3,35.1
		c-0.6,0.7-0.9,1.5-0.9,2.4c0,1,0.3,1.8,0.9,2.5c0.6,0.7,1.3,1.1,2.3,1.1c1,0,1.7-0.3,2.3-1c0.6-0.7,0.9-1.5,0.9-2.5
		c0-1-0.3-1.8-0.9-2.4c-0.6-0.7-1.4-1-2.3-1C35.6,34.2,34.8,34.5,34.3,35.1z"/>
</g>
</svg>
