<svg xmlns="http://www.w3.org/2000/svg" xmlns:xlink="http://www.w3.org/1999/xlink" viewBox="0 0 1540.94 1591.72"><defs><style>.cls-1{fill:none;}.cls-2{fill:#231f20;}.cls-3{isolation:isolate;}.cls-4{fill:#304284;}.cls-5{opacity:0.11;}.cls-35,.cls-5{fill:url(#_10_dpi_20_);}.cls-6{fill:#e6e6e6;}.cls-7{clip-path:url(#clip-path);}.cls-8{fill:url(#linear-gradient);}.cls-9{fill:#fff2ed;}.cls-10{fill:#ffd3c2;}.cls-11{fill:#ff7742;}.cls-12{fill:#5070ff;}.cls-13{font-size:10.1px;font-family:Montserrat-Black, Montserrat;letter-spacing:0.2em;}.cls-13,.cls-31{fill:#fff;}.cls-14{letter-spacing:0.19em;}.cls-15{letter-spacing:0.2em;}.cls-16{letter-spacing:0.19em;}.cls-17{letter-spacing:0.15em;}.cls-18{fill:#ff5512;}.cls-19,.cls-29{fill:#4d6cf5;}.cls-19{opacity:0.39;mix-blend-mode:multiply;}.cls-20{fill:#374db0;}.cls-21{fill:#8ca1ff;}.cls-22{fill:url(#linear-gradient-2);}.cls-23{fill:url(#linear-gradient-3);}.cls-24{fill:url(#linear-gradient-4);}.cls-25{fill:#2e4194;}.cls-26{fill:#385cff;}.cls-27{fill:#3151e0;}.cls-28{fill:#4a68ed;}.cls-30{fill:url(#linear-gradient-5);}.cls-32{fill:url(#linear-gradient-6);}.cls-33{fill:url(#linear-gradient-7);}.cls-34{fill:#75abcf;}.cls-35{opacity:0.26;}.cls-36{fill:url(#linear-gradient-8);}.cls-37{fill:#4763e3;}.cls-38{fill:#92a1eb;}.cls-39{fill:#91d3ff;}.cls-40{fill:#293982;}.cls-41{fill:#31449c;}.cls-42{fill:url(#linear-gradient-9);}.cls-43{fill:url(#linear-gradient-10);}.cls-44{fill:url(#linear-gradient-11);}.cls-45{fill:url(#linear-gradient-12);}.cls-46{fill:url(#linear-gradient-13);}</style><pattern id="_10_dpi_20_" data-name="10 dpi 20%" width="28.8" height="28.8" patternTransform="translate(420.27)" patternUnits="userSpaceOnUse" viewBox="0 0 28.8 28.8"><rect class="cls-1" width="28.8" height="28.8"/><circle class="cls-2" cx="28.8" cy="28.8" r="1.44"/><circle class="cls-2" cx="14.4" cy="28.8" r="1.44"/><circle class="cls-2" cx="28.8" cy="14.4" r="1.44"/><circle class="cls-2" cx="14.4" cy="14.4" r="1.44"/><circle class="cls-2" cx="7.2" cy="21.6" r="1.44"/><circle class="cls-2" cx="21.6" cy="21.6" r="1.44"/><circle class="cls-2" cx="7.2" cy="7.2" r="1.44"/><circle class="cls-2" cx="21.6" cy="7.2" r="1.44"/><circle class="cls-2" cy="28.8" r="1.44"/><circle class="cls-2" cy="14.4" r="1.44"/><circle class="cls-2" cx="28.8" r="1.44"/><circle class="cls-2" cx="14.4" r="1.44"/><circle class="cls-2" r="1.44"/></pattern><clipPath id="clip-path"><rect class="cls-1" x="512.03" y="188.92" width="760.04" height="1038.25" transform="translate(-147.82 243.55) rotate(-14.37)"/></clipPath><linearGradient id="linear-gradient" x1="980.36" y1="1036.21" x2="470.48" y2="330.78" gradientTransform="translate(28.54 -52.58)" gradientUnits="userSpaceOnUse"><stop offset="0" stop-color="#fff"/><stop offset="0.67" stop-color="#ff5512"/><stop offset="0.85" stop-color="#ff5512"/></linearGradient><linearGradient id="linear-gradient-2" x1="762.96" y1="869.19" x2="708.6" y2="873.94" gradientTransform="translate(-163.76 191.21) rotate(-14.37)" gradientUnits="userSpaceOnUse"><stop offset="0" stop-color="#fff"/><stop offset="1" stop-color="#374db0"/></linearGradient><linearGradient id="linear-gradient-3" x1="628.21" y1="985.27" x2="500.88" y2="992.03" xlink:href="#linear-gradient-2"/><linearGradient id="linear-gradient-4" x1="615.67" y1="904.78" x2="568.86" y2="906.51" xlink:href="#linear-gradient-2"/><linearGradient id="linear-gradient-5" x1="968.43" y1="951.53" x2="1053.45" y2="479.89" gradientTransform="translate(-163.76 191.21) rotate(-14.37)" xlink:href="#linear-gradient"/><linearGradient id="linear-gradient-6" x1="-639.52" y1="2500" x2="-598.85" y2="2274.41" gradientTransform="matrix(0.4, -0.92, 0.92, 0.4, -1430.49, -939.06)" xlink:href="#linear-gradient"/><linearGradient id="linear-gradient-7" x1="407.62" y1="768.43" x2="329.03" y2="1120.53" gradientTransform="matrix(1, 0, 0, 1, 0, 0)" xlink:href="#linear-gradient-2"/><linearGradient id="linear-gradient-8" x1="234.71" y1="723.78" x2="327.75" y2="723.78" gradientTransform="matrix(1, 0, 0, 1, 0, 0)" xlink:href="#linear-gradient"/><linearGradient id="linear-gradient-9" x1="103.37" y1="675.38" x2="114.04" y2="675.38" gradientTransform="matrix(1, 0, 0, 1, 0, 0)" xlink:href="#linear-gradient"/><linearGradient id="linear-gradient-10" x1="253.01" y1="652.08" x2="269.79" y2="652.08" gradientTransform="matrix(1, 0, 0, 1, 0, 0)" xlink:href="#linear-gradient"/><linearGradient id="linear-gradient-11" x1="173.7" y1="639.88" x2="190.47" y2="639.88" gradientTransform="matrix(1, 0, 0, 1, 0, 0)" xlink:href="#linear-gradient"/><linearGradient id="linear-gradient-12" x1="203.83" y1="695.54" x2="234.71" y2="695.54" gradientTransform="matrix(1, 0, 0, 1, 0, 0)" xlink:href="#linear-gradient"/><linearGradient id="linear-gradient-13" x1="230.13" y1="591.83" x2="256.06" y2="591.83" gradientTransform="matrix(1, 0, 0, 1, 0, 0)" xlink:href="#linear-gradient"/></defs><title>mail-thanks</title><g class="cls-3"><g id="Layer_2" data-name="Layer 2"><g id="nuvem1"><path class="cls-4" d="M202.92,1155.1c-18.84,15.82-59.41,29.67-74.63,35.6S87,1211.14,87,1211.14c12.32,38.24,28.26,29,55.06,25.05s44.92-19.78,58.69-27,97.81-26.37,84.77-39.56S202.92,1155.1,202.92,1155.1Z"/><path class="cls-5" d="M0,1032.1c12,1,750,0,750,0l-69,157s-58,84-98,41-189-98-262-103S0,1032.1,0,1032.1Z"/><path class="cls-6" d="M1223,77.44,1203.17,0,281.92,236l19.93,77.79A36.94,36.94,0,0,1,320,384.7l8.55,33.37A36.94,36.94,0,0,1,346.73,489l9.9,38.66a36.94,36.94,0,0,1,18.16,70.89l9.9,38.66a36.94,36.94,0,0,1,18.16,70.89l9.9,38.66a36.94,36.94,0,0,1,18.16,70.89l9.9,38.66A36.94,36.94,0,0,1,459,927.14l9.9,38.66a36.94,36.94,0,0,1,18.16,70.89l9.9,38.66a36.94,36.94,0,0,1,18.16,70.89l9.9,38.66a36.94,36.94,0,0,1,18.16,70.89l9.9,38.66a36.94,36.94,0,0,1,18.16,70.89l14.57,56.88,921.24-236-14.49-56.54a36.94,36.94,0,0,1-18.34-71.58l-9.73-38a36.94,36.94,0,0,1-18.34-71.58l-9.73-38A36.94,36.94,0,0,1,1418.12,839l-9.73-38a36.94,36.94,0,0,1-18.34-71.58l-9.73-38A36.94,36.94,0,0,1,1362,619.88l-9.73-38a36.94,36.94,0,0,1-18.34-71.58l-9.73-38a36.94,36.94,0,0,1-18.34-71.58l-9.73-38a36.94,36.94,0,0,1-18.34-71.58l-9.73-38a36.94,36.94,0,0,1-18.34-71.58L1241.35,149A36.94,36.94,0,0,1,1223,77.44Z"/><path class="cls-5" d="M1223,77.44,1203.17,0,281.92,236l19.93,77.79A36.94,36.94,0,0,1,320,384.7l8.55,33.37A36.94,36.94,0,0,1,346.73,489l9.9,38.66a36.94,36.94,0,0,1,18.16,70.89l9.9,38.66a36.94,36.94,0,0,1,18.16,70.89l9.9,38.66a36.94,36.94,0,0,1,18.16,70.89l9.9,38.66A36.94,36.94,0,0,1,459,927.14l9.9,38.66a36.94,36.94,0,0,1,18.16,70.89l9.9,38.66a36.94,36.94,0,0,1,18.16,70.89l9.9,38.66a36.94,36.94,0,0,1,18.16,70.89l9.9,38.66a36.94,36.94,0,0,1,18.16,70.89l14.57,56.88,921.24-236-14.49-56.54a36.94,36.94,0,0,1-18.34-71.58l-9.73-38a36.94,36.94,0,0,1-18.34-71.58l-9.73-38A36.94,36.94,0,0,1,1418.12,839l-9.73-38a36.94,36.94,0,0,1-18.34-71.58l-9.73-38A36.94,36.94,0,0,1,1362,619.88l-9.73-38a36.94,36.94,0,0,1-18.34-71.58l-9.73-38a36.94,36.94,0,0,1-18.34-71.58l-9.73-38a36.94,36.94,0,0,1-18.34-71.58l-9.73-38a36.94,36.94,0,0,1-18.34-71.58L1241.35,149A36.94,36.94,0,0,1,1223,77.44Z"/><g class="cls-7"><rect class="cls-8" x="405.46" y="174.27" width="987.68" height="1315.47" transform="translate(-178.36 249.23) rotate(-14.37)"/><circle class="cls-9" cx="1166.67" cy="784.04" r="244.16" transform="translate(-158.09 314.09) rotate(-14.37)"/><circle class="cls-10" cx="1166.67" cy="784.04" r="173.52" transform="translate(-158.09 314.09) rotate(-14.37)"/><circle class="cls-11" cx="1166.67" cy="784.04" r="91.75" transform="translate(-158.09 314.09) rotate(-14.37)"/><path class="cls-12" d="M1164.8,1018.67a13.56,13.56,0,0,1-16.49-9.76l5.21-1.33a8.17,8.17,0,1,0,15.84-4.06l5.21-1.33A13.56,13.56,0,0,1,1164.8,1018.67Z"/><path class="cls-12" d="M1143.71,1024.07a13.56,13.56,0,0,1-16.49-9.76l5.21-1.33a8.17,8.17,0,1,0,15.84-4.06l5.21-1.33A13.56,13.56,0,0,1,1143.71,1024.07Z"/><path class="cls-12" d="M1122.61,1029.48a13.56,13.56,0,0,1-16.49-9.76l5.21-1.33a8.17,8.17,0,1,0,15.84-4.06l5.21-1.33A13.56,13.56,0,0,1,1122.61,1029.48Z"/><path class="cls-12" d="M1101.51,1034.88a13.56,13.56,0,0,1-16.49-9.76l5.21-1.33a8.17,8.17,0,1,0,15.84-4.06l5.21-1.33A13.56,13.56,0,0,1,1101.51,1034.88Z"/><path class="cls-12" d="M1080.41,1040.29a13.56,13.56,0,0,1-16.49-9.76l5.21-1.33a8.17,8.17,0,1,0,15.84-4.06l5.21-1.33A13.56,13.56,0,0,1,1080.41,1040.29Z"/><path class="cls-12" d="M1059.31,1045.69a13.56,13.56,0,0,1-16.49-9.76l5.21-1.33a8.17,8.17,0,1,0,15.84-4.06l5.21-1.33A13.56,13.56,0,0,1,1059.31,1045.69Z"/><text class="cls-13" transform="matrix(0.97, -0.25, 0.25, 0.97, 789.98, 1121.95)">TROPI<tspan class="cls-14" x="42.26" y="0">C</tspan><tspan class="cls-15" x="51.13" y="0">AL</tspan><tspan class="cls-16" x="69.15" y="0">C</tspan><tspan x="78.01" y="0">ON</tspan><tspan class="cls-17" x="98.03" y="0">F</tspan><tspan x="105.92" y="0">.</tspan><tspan class="cls-14" x="110.61" y="0">C</tspan><tspan x="119.48" y="0">OM</tspan></text><path class="cls-11" d="M687,1062.38q-2.51-7.21-4.75-14.56c-6.77-70.42,194.34-179.55,458-247.1q22.58-5.79,44.79-10.92c-78.65,7-169.88,22.76-265.71,47.31-263.64,67.55-464.75,176.68-458,247.1q2.25,7.35,4.75,14.56c33.61,57.28,234.75,58.5,473.51,3.26C806.51,1113.87,709.44,1100.62,687,1062.38Z"/><path class="cls-18" d="M687,1062.38q-2.51-7.21-4.75-14.56c-6.77-70.42,194.34-179.55,458-247.1q22.58-5.79,44.79-10.92c-78.65,7-169.88,22.76-265.71,47.31-263.64,67.55-464.75,176.68-458,247.1q2.25,7.35,4.75,14.56c33.61,57.28,234.75,58.5,473.51,3.26C806.51,1113.87,709.44,1100.62,687,1062.38Z"/><path class="cls-19" d="M541.28,1135.78c77.39-22.56,101.22-54.18,91-60.26S587.83,1065,587.83,1065l5.63-45s26.65,3.48,50.17-3.74,38.5-24.53,32.06-26.44-30.4-7.27-30.4-7.27l-1.47-25.83s32.14.14,48.16.79,22.69-4.23,35.6-11.1S799,908,799,908L782,877.8c-192.87,65.44-326.23,148.86-320.69,206.42q2.25,7.35,4.75,14.56C476.45,1116.46,502.8,1128.8,541.28,1135.78Z"/><path class="cls-11" d="M768.53,753.68s78.22-30.35,146-39.77L902.94,746.2l-115.73,17Z"/><path class="cls-20" d="M984.38,1091.12c-258,66.1-482.61,68.49-518.3,7.66,76.25,219.1,333,341.4,591.18,275.25,260.81-66.82,427.87-301.56,384.75-532.6C1454.08,911.74,1251.27,1022.74,984.38,1091.12Z"/><path class="cls-12" d="M1442,841.43l-.25-1.33c-.1-.47-.21-.95-.33-1.42-11.6-45.28-113.14-61.62-256.42-48.87q-22.19,5.13-44.79,10.92c-263.64,67.55-464.75,176.68-458,247.1q2.25,7.35,4.75,14.56c22.43,38.24,119.51,51.49,252.58,39.65q22.2-5.14,44.8-10.92C1251.27,1022.74,1454.08,911.74,1442,841.43Z"/><path class="cls-21" d="M1154.7,961.09c108.39-27.77,190.81-72.66,186-101l-.1-.54c0-.19-.08-.38-.13-.57-7.24-28.24-102.12-28.33-211.94-.19-107.07,27.43-188.8,71.57-186.11,99.93q.91,3,1.92,5.86C958.74,989.09,1049.92,987.93,1154.7,961.09Z"/><polygon class="cls-22" points="787.88 906.44 714.47 944.7 680.49 812.33 756 782.24 787.88 906.44"/><polygon class="cls-20" points="714.43 944.69 649.64 947.02 616.77 818.72 680.51 812.3 714.43 944.69"/><polygon class="cls-11" points="756.04 782.25 691.85 791.56 616.77 818.72 680.51 812.3 756.04 782.25"/><path class="cls-20" d="M679.86,810.47c8.61-2.21,15.15-5.77,14.77-8v-.09c-.57-2.24-8.11-2.25-16.83,0-8.5,2.18-15,5.68-14.78,7.94q.07.23.15.47C664.3,812.69,671.54,812.6,679.86,810.47Z"/><rect class="cls-20" x="661.51" y="797.97" width="32.5" height="8.63" transform="translate(-177.91 193.32) rotate(-14.37)"/><path class="cls-11" d="M677.66,801.88c8.61-2.21,15.15-5.77,14.77-8v-.09c-.57-2.24-8.11-2.25-16.83,0-8.5,2.18-15,5.68-14.78,7.94q.07.23.15.47C662.1,804.11,669.34,804,677.66,801.88Z"/><path class="cls-20" d="M714.44,945.43c8.61-2.21,15.15-5.77,14.77-8v-.09c-.57-2.24-8.11-2.25-16.83,0-8.5,2.18-15,5.68-14.78,7.94q.07.23.15.47C698.88,947.66,706.12,947.57,714.44,945.43Z"/><path class="cls-20" d="M870.66,876.12c8.61-2.21,15.15-5.77,14.77-8V868c-.57-2.24-8.11-2.25-16.83,0-8.5,2.18-15,5.68-14.78,7.94q.07.23.15.47C855.1,878.34,862.34,878.25,870.66,876.12Z"/><rect class="cls-20" x="836.83" y="740.8" width="32.5" height="133.4" transform="translate(-173.72 236.99) rotate(-14.37)"/><path class="cls-20" d="M926.88,857.35c8.61-2.21,15.15-5.77,14.77-8v-.09c-.57-2.24-8.11-2.25-16.83,0-8.5,2.18-15,5.68-14.78,7.94q.07.23.15.47C911.32,859.58,918.56,859.49,926.88,857.35Z"/><rect class="cls-20" x="893.05" y="722.03" width="32.5" height="133.4" transform="translate(-167.31 250.36) rotate(-14.37)"/><polygon class="cls-20" points="853.79 876.09 799.31 873.38 768.53 753.68 820.64 746.68 853.79 876.09"/><polygon class="cls-20" points="908.47 719.81 914.49 713.91 946.98 840.73 941.63 849.23 908.47 719.81"/><polygon class="cls-12" points="910.3 858.45 885.5 868.37 852.34 738.95 878.18 731.54 910.3 858.45"/><polygon class="cls-20" points="572.35 872.56 529.49 877.15 561.98 1003.96 610.15 1009.45 572.35 872.56"/><path class="cls-23" d="M618.75,1083.21,583.24,944.62,478,971.58l35.51,138.59a3.92,3.92,0,0,0,0,.52q.24.79.51,1.56c3.83,6.5,28,6.19,55.85-.93,28.77-7.37,50.65-19.29,49.37-26.8l0-.14,0-.15A3.79,3.79,0,0,0,618.75,1083.21Z"/><path class="cls-11" d="M533.86,970.75c28.77-7.37,50.65-19.29,49.37-26.8l0-.14,0-.15c-1.92-7.5-27.11-7.52-56.26-.05-28.42,7.28-50.12,19-49.4,26.53q.24.79.51,1.56C481.84,978.18,506,977.87,533.86,970.75Z"/><path class="cls-20" d="M1363.31,822.94c5.26-1.35,9.26-3.53,9-4.9V818c-.35-1.37-5-1.38-10.29,0s-9.16,3.47-9,4.85l.09.28C1353.8,824.3,1358.22,824.24,1363.31,822.94Z"/><rect class="cls-20" x="1342.75" y="741.14" width="19.87" height="80.61" transform="translate(-151.62 360.17) rotate(-14.37)"/><path class="cls-11" d="M1343.27,744.72c5.26-1.35,9.26-3.53,9-4.9v-.05c-.35-1.37-5-1.38-10.29,0s-9.16,3.47-9,4.85l.09.28C1333.76,746.08,1338.18,746,1343.27,744.72Z"/><path class="cls-20" d="M1340.82,735.17c5.26-1.35,9.26-3.53,9-4.9v-.05c-.35-1.37-5-1.38-10.29,0s-9.16,3.47-9,4.85l.09.28C1331.31,736.53,1335.74,736.47,1340.82,735.17Z"/><rect class="cls-20" x="1320.26" y="653.38" width="19.87" height="80.61" transform="translate(-130.55 351.85) rotate(-14.37)"/><path class="cls-11" d="M1320.78,657c5.26-1.35,9.26-3.53,9-4.9V652c-.35-1.37-5-1.38-10.29,0s-9.16,3.47-9,4.85l.09.28C1311.27,658.31,1315.7,658.25,1320.78,657Z"/><polygon class="cls-11" points="529.49 877.15 571.51 857.46 580.16 864.56 575.86 877.16 529.49 877.15"/><rect class="cls-20" x="586.85" y="847.06" width="49.66" height="156.89" transform="translate(-210.56 180.77) rotate(-14.37)"/><path class="cls-24" d="M655.07,994.8l-38.8-151.44-48.11,12.33L607,1007.11a1.82,1.82,0,0,0,0,.22q.11.36.23.71c1.75,3,12.82,2.83,25.53-.43,13.15-3.37,23.15-8.82,22.56-12.25v-.07l0-.07A1.73,1.73,0,0,0,655.07,994.8Z"/><path class="cls-11" d="M593.69,855.3c13.15-3.37,23.15-8.82,22.56-12.25V843l0-.07c-.88-3.43-12.39-3.44-25.72,0-13,3.33-22.91,8.68-22.58,12.13q.11.36.23.71C569.92,858.69,581,858.55,593.69,855.3Z"/><path class="cls-20" d="M691.84,791.68c-2.43-7-12.52-18.32-20.75-16.21s-11.73,17-10.36,24.41V800c.37,1.44,3.61,2,8.17,1.56A54.14,54.14,0,0,0,677.4,800c8.4-2.15,14.81-5.63,14.6-7.88Q691.92,791.91,691.84,791.68Zm-.56-.55-.05,0Zm.51.46,0,0Zm-.06-.08,0,0Zm-.07-.08,0,0Zm-.08-.08,0,0Zm-.09-.08,0,0Zm-.1-.07,0,0Zm-14.6.37.22-.05Zm.37-.08.22,0Zm.36-.08.22,0Zm.36-.08.22,0Zm.36-.07.21,0Zm.36-.07.21,0Zm.35-.07.21,0Zm.35-.07.21,0Zm.34-.06.22,0Zm.34-.06.22,0Zm.33-.06.23,0Zm.3,0,.88-.13Zm.92-.14.23,0Zm.33,0,.2,0Zm.33,0,.19,0Zm.32,0,.19,0Zm.32,0,.18,0Zm.32,0,.18,0Zm.31,0,.18,0Zm.61-.05h0Zm-.3,0h0Zm3.62-.12h0Zm-.25,0h0Zm-.25,0h0Zm-.25,0h0Zm-.25,0h0Zm-.42,0h0Zm-.28,0h0Zm-.28,0h0Zm-.29,0h0Zm-.29,0h0Zm-.29,0h0Zm-8.53,1.4-.69.17Zm.7-.17-.66.16Zm14.4-.55.05,0Zm-3.6-.73h0Zm.24,0h0Zm.24,0h0Zm.23,0h0Zm.22,0h0Zm.22,0h0Zm.21,0h0Zm.21,0h0Zm.2,0,.09,0Zm.2,0,.08,0Zm.2,0h0Zm.24.05h0Zm.18,0,.06,0Zm.16,0,.07,0Zm.16,0,.07,0Zm.15.05.07,0Zm.14.05.06,0Zm.14.06.06,0Zm.13.06.06,0Z"/><path class="cls-20" d="M673.34,785.62c1-.25,1.73-.66,1.69-.92h0c-.07-.26-2.83-7.69-3.83-7.44s.19,8.09.22,8.34l0,.05C671.56,785.87,672.39,785.86,673.34,785.62Z"/><rect class="cls-20" x="668.96" y="766.06" width="3.71" height="19.41" transform="translate(-171.55 190.76) rotate(-14.37)"/><path class="cls-11" d="M668.52,766.79c1-.25,1.73-.66,1.69-.92h0c-.07-.26-.93-.26-1.92,0s-1.71.65-1.69.91l0,.05C666.74,767,667.57,767,668.52,766.79Z"/><rect class="cls-20" x="663.58" y="802.8" width="32.63" height="15.74" transform="translate(-179.93 194.11) rotate(-14.37)"/><path class="cls-20" d="M740.91,788.88c8.61-2.21,15.15-5.77,14.77-8v-.09c-.57-2.24-8.11-2.25-16.83,0-8.5,2.18-15,5.68-14.78,7.94q.07.23.15.47C725.35,791.11,732.59,791,740.91,788.88Z"/><rect class="cls-20" x="722.56" y="776.38" width="32.5" height="8.63" transform="matrix(0.97, -0.25, 0.25, 0.97, -170.65, 207.79)"/><path class="cls-11" d="M738.71,780.3c8.61-2.21,15.15-5.77,14.77-8v-.09c-.57-2.24-8.11-2.25-16.83,0-8.5,2.18-15,5.68-14.78,7.94q.07.23.15.47C723.15,782.52,730.39,782.43,738.71,780.3Z"/><path class="cls-20" d="M752.62,770.57c-2.43-7-12.52-18.32-20.75-16.21s-11.73,17-10.36,24.41v.09c.37,1.44,3.61,2,8.17,1.56a54.14,54.14,0,0,0,8.47-1.51c8.4-2.15,14.81-5.63,14.6-7.88Q752.7,770.8,752.62,770.57Zm-.56-.55-.05,0Zm.51.46,0,0Zm-.06-.08,0,0Zm-.07-.08,0,0Zm-.08-.08,0,0Zm-.09-.08,0,0Zm-.1-.07,0,0Zm-14.6.37.22-.05Zm.37-.08.22,0Zm.36-.08.22,0Zm.36-.08.22,0Zm.36-.07.21,0Zm.36-.07.21,0Zm.35-.07.21,0Zm.35-.07.21,0Zm.34-.06.22,0Zm.34-.06.22,0Zm.33-.06.23,0Zm.3,0,.88-.13Zm.92-.14.23,0Zm.33,0,.2,0Zm.33,0,.19,0Zm.32,0,.19,0Zm.32,0,.18,0Zm.32,0,.18,0Zm.31,0,.18,0Zm.61-.05h0Zm-.3,0h0Zm3.62-.12h0Zm-.25,0h0Zm-.25,0h0Zm-.25,0h0Zm-.25,0h0Zm-.42,0h0Zm-.28,0h0Zm-.28,0h0Zm-.29,0h0Zm-.29,0h0Zm-.29,0h0Zm-8.53,1.4-.69.17Zm.7-.17-.66.16Zm14.4-.55.05,0Zm-3.6-.73h0Zm.24,0h0Zm.24,0h0Zm.23,0h0Zm.22,0h0Zm.22,0h0Zm.21,0h0Zm.21,0h0Zm.2,0,.09,0Zm.2,0,.08,0Zm.2,0h0Zm.24.05h0Zm.18,0,.06,0Zm.16,0,.07,0Zm.16,0,.07,0Zm.15.05.07,0Zm.14.05.06,0Zm.14.06.06,0Zm.13.06.06,0Z"/><path class="cls-20" d="M734.68,765.15c1-.25,1.73-.66,1.69-.92h0c-.07-.26-.93-.26-1.92,0s-1.71.65-1.69.91l0,.05C732.9,765.4,733.72,765.39,734.68,765.15Z"/><rect class="cls-20" x="730.29" y="745.59" width="3.71" height="19.41" transform="translate(-164.55 205.35) rotate(-14.37)"/><path class="cls-11" d="M729.85,746.32c1-.25,1.73-.66,1.69-.92h0c-.07-.26-.93-.26-1.92,0s-1.71.65-1.69.91l0,.05C728.07,746.58,728.9,746.57,729.85,746.32Z"/><path class="cls-20" d="M838.36,750c8.61-2.21,15.15-5.77,14.77-8v-.09c-.57-2.24-8.11-2.25-16.83,0-8.5,2.18-15,5.68-14.78,7.94q.07.23.15.47C822.8,752.27,830,752.18,838.36,750Z"/><rect class="cls-20" x="820.01" y="737.54" width="32.5" height="8.63" transform="translate(-157.96 230.76) rotate(-14.37)"/><path class="cls-11" d="M836.16,741.46c8.61-2.21,15.15-5.77,14.77-8v-.09c-.57-2.24-8.11-2.25-16.83,0-8.5,2.18-15,5.68-14.78,7.94q.07.23.15.47C820.6,743.69,827.84,743.59,836.16,741.46Z"/><path class="cls-20" d="M850.06,731.73c-2.43-7-10.61-10.88-18.84-8.77s-13.64,9.61-12.26,17V740c.37,1.44,3.61,2,8.17,1.56a54.14,54.14,0,0,0,8.47-1.51c8.4-2.15,14.81-5.63,14.6-7.88Q850.14,732,850.06,731.73Zm-.56-.55-.05,0Zm.51.46,0,0Zm-.06-.08,0,0Zm-.07-.08,0,0Zm-.08-.08,0,0Zm-.09-.08,0,0Zm-.1-.07,0,0Zm-14.6.37.22-.05Zm.37-.08.22,0Zm.36-.08.22,0Zm.36-.08.22,0Zm.36-.07.21,0Zm.36-.07.21,0Zm.35-.07.21,0Zm.35-.07.21,0Zm.34-.06.22,0Zm.34-.06.22,0Zm.33-.06.23,0Zm.3,0,.88-.13Zm.92-.14.23,0Zm.33,0,.2,0Zm.33,0,.19,0Zm.32,0,.19,0Zm.32,0,.18,0Zm.32,0,.18,0Zm.31,0,.18,0Zm.61-.05h0Zm-.3,0h0Zm3.62-.12h0Zm-.25,0h0Zm-.25,0h0Zm-.25,0h0Zm-.25,0h0Zm-.42,0h0Zm-.28,0h0Zm-.28,0h0Zm-.29,0h0Zm-.29,0h0Zm-.29,0h0Zm-8.53,1.4-.69.17Zm.7-.17-.66.16Zm14.4-.55.05,0Zm-3.6-.73h0Zm.24,0h0Zm.24,0h0Zm.23,0h0Zm.22,0h0Zm.22,0h0Zm.21,0h0Zm.21,0h0Zm.2,0,.09,0Zm.2,0,.08,0Zm.2,0h0Zm.24.05h0Zm.18,0,.06,0Zm.16,0,.07,0Zm.16,0,.07,0Zm.15.05.07,0Zm.14.05.06,0Zm.14.06.06,0Zm.13.06.06,0Z"/><path class="cls-20" d="M832.12,726.31c1-.25,1.73-.66,1.69-.92h0c-.07-.26-.93-.26-1.92,0s-1.71.65-1.69.91l0,.05C830.34,726.57,831.17,726.55,832.12,726.31Z"/><rect class="cls-20" x="828.69" y="714.31" width="3.71" height="11.73" transform="translate(-152.75 228.67) rotate(-14.37)"/><path class="cls-11" d="M829.2,714.93c1-.25,1.73-.66,1.69-.92h0c-.07-.26-.93-.26-1.92,0s-1.71.65-1.69.91l0,.05C827.43,715.18,828.25,715.17,829.2,714.93Z"/><path class="cls-20" d="M895.06,733.14c8.61-2.21,15.15-5.77,14.77-8V725c-.57-2.24-8.11-2.25-16.83,0-8.5,2.18-15,5.68-14.78,7.94q.07.23.15.47C879.49,735.37,886.74,735.27,895.06,733.14Z"/><rect class="cls-20" x="876.71" y="720.64" width="32.5" height="8.63" transform="translate(-151.99 244.31) rotate(-14.37)"/><path class="cls-11" d="M892.86,724.56c8.61-2.21,15.15-5.77,14.77-8v-.09c-.57-2.24-8.11-2.25-16.83,0-8.5,2.18-15,5.68-14.78,7.94q.07.23.15.47C877.29,726.78,884.54,726.69,892.86,724.56Z"/><path class="cls-20" d="M906.76,714.82c-2.43-7-10.61-10.88-18.84-8.77s-13.64,9.61-12.26,17v.09c.37,1.44,3.61,2,8.17,1.56a54.14,54.14,0,0,0,8.47-1.51c8.4-2.15,14.81-5.63,14.6-7.88Q906.84,715.05,906.76,714.82Zm-.56-.55-.05,0Zm.51.46,0,0Zm-.06-.08,0,0Zm-.07-.08,0,0Zm-.08-.08,0,0Zm-.09-.08,0,0Zm-.1-.07,0,0Zm-14.6.37.22-.05Zm.37-.08.22,0Zm.36-.08.22,0Zm.36-.08.22,0Zm.36-.07.21,0Zm.36-.07.21,0Zm.35-.07.21,0Zm.35-.07.21,0Zm.34-.06.22,0Zm.34-.06.22,0Zm.33-.06.23,0Zm.3,0,.88-.13Zm.92-.14.23,0Zm.33,0,.2,0Zm.33,0,.19,0Zm.32,0,.19,0Zm.32,0,.18,0Zm.32,0,.18,0Zm.31,0,.18,0Zm.61-.05h0Zm-.3,0h0Zm3.62-.12h0Zm-.25,0h0Zm-.25,0h0Zm-.25,0h0Zm-.25,0h0Zm-.42,0h0Zm-.28,0h0Zm-.28,0h0Zm-.29,0h0Zm-.29,0h0Zm-.29,0h0Zm-8.53,1.4-.69.17Zm.7-.17-.66.16Zm14.4-.55.05,0Zm-3.6-.73h0Zm.24,0h0Zm.24,0h0Zm.23,0h0Zm.22,0h0Zm.22,0h0Zm.21,0h0Zm.21,0h0Zm.2,0,.09,0Zm.2,0,.08,0Zm.2,0h0Zm.24.05h0Zm.18,0,.06,0Zm.16,0,.07,0Zm.16,0,.07,0Zm.15.05.07,0Zm.14.05.06,0Zm.14.06.06,0Zm.13.06.06,0Z"/><path class="cls-20" d="M888.82,709.41c1-.25,1.73-.66,1.69-.92h0c-.07-.26-.93-.26-1.92,0s-1.71.65-1.69.91l0,.05C887,709.66,887.87,709.65,888.82,709.41Z"/><rect class="cls-20" x="885.39" y="697.4" width="3.71" height="11.73" transform="translate(-146.78 242.21) rotate(-14.37)"/><path class="cls-11" d="M885.9,698c1-.25,1.73-.66,1.69-.92h0c-.07-.26-.93-.26-1.92,0s-1.71.65-1.69.91l0,.05C884.13,698.27,885,698.26,885.9,698Z"/><rect class="cls-20" x="725.11" y="783.08" width="32.63" height="15.74" transform="translate(-173.11 208.76) rotate(-14.37)"/><polygon class="cls-25" points="695.61 806.44 725.48 794.44 725.47 794.41 758.14 921.93 729.1 936.97 695.61 806.44"/><polygon class="cls-25" points="664.01 814.38 680.24 877.76 616.77 818.72 664.01 814.38"/><polygon class="cls-25" points="529.49 877.15 584.47 919.34 573.61 877.16 529.49 877.15"/><path class="cls-25" d="M602.29,1099.8C529.94,1093.49,478,971.58,478,971.58v.1l0,0,35.47,138.46a3.92,3.92,0,0,0,0,.52q.24.79.51,1.56c3.83,6.5,28,6.19,55.85-.93A173.33,173.33,0,0,0,602.29,1099.8Z"/><path class="cls-26" d="M1442,841.43l-.25-1.33c-.1-.47-.21-.95-.33-1.42-11.52-45-111.7-61.38-253.35-49.14,29.05,3,255.27,29.64,196.26,135.49C1424.89,894.61,1446.16,865.61,1442,841.43Z"/><path class="cls-20" d="M1311.53,620.91c-15.79,23.46-2,32.23-2,32.23h0l.08.26c.7,1.19,5.13,1.13,10.21-.17,5.26-1.35,9.26-3.53,9-4.9v-.05l0-.09h0S1336.65,633.89,1311.53,620.91Z"/><path class="cls-27" d="M1384.45,924.94c10.74,94.8-6,189.16-45.24,275.57C1425,1099.3,1466,969.79,1442,841.43,1446.16,865.59,1424.93,894.56,1384.45,924.94Z"/><circle class="cls-21" cx="989.05" cy="741.97" r="7.68" transform="translate(-153.2 268.69) rotate(-14.37)"/><circle class="cls-21" cx="1091.96" cy="682.71" r="7.68" transform="translate(-135.28 292.38) rotate(-14.37)"/><path class="cls-25" d="M511.18,1101.13l1.87,7.3c7.82,4.34,30.12,3.3,55.27-3.15s45.21-16.25,50-23.82l-1.87-7.3c-4.76,7.57-24.81,17.38-50,23.83S519,1105.47,511.18,1101.13Z"/><path class="cls-25" d="M507,1084.76l1.87,7.3c7.82,4.34,30.12,3.3,55.27-3.15s45.21-16.25,50-23.82l-1.87-7.3c-4.76,7.57-24.81,17.38-50,23.83S514.81,1089.11,507,1084.76Z"/><path class="cls-25" d="M606,1002.34l1.79,7c3.57,2,13.73,1.5,25.19-1.43s20.61-7.41,22.78-10.86l-1.79-7c-2.17,3.45-11.31,7.92-22.78,10.86S609.52,1004.32,606,1002.34Z"/><path class="cls-25" d="M593,951.76l1.79,7c3.57,2,13.73,1.5,25.19-1.43s20.61-7.41,22.78-10.86l-1.79-7c-2.17,3.45-11.31,7.92-22.78,10.86S596.56,953.74,593,951.76Z"/><path class="cls-25" d="M580,901.19l1.79,7c3.57,2,13.73,1.5,25.19-1.43s20.61-7.41,22.78-10.86l-1.79-7c-2.17,3.45-11.31,7.92-22.78,10.86S583.6,903.17,580,901.19Z"/><path class="cls-25" d="M502.8,1068.4l1.87,7.3c7.82,4.34,30.12,3.3,55.27-3.15s45.21-16.25,50-23.82l-1.87-7.3c-4.76,7.57-24.81,17.38-50,23.83S510.62,1072.74,502.8,1068.4Z"/><path class="cls-25" d="M498.61,1052l1.87,7.3c7.82,4.34,30.12,3.3,55.27-3.15s45.21-16.25,50-23.82l-1.87-7.3c-4.76,7.57-24.81,17.38-50,23.83S506.43,1056.38,498.61,1052Z"/><path class="cls-25" d="M494.42,1035.67l1.87,7.3c7.82,4.34,30.12,3.3,55.27-3.15s45.21-16.25,50-23.82l-1.87-7.3c-4.76,7.57-24.81,17.38-50,23.83S502.23,1040,494.42,1035.67Z"/><path class="cls-25" d="M490.22,1019.31l1.87,7.3c7.82,4.34,30.12,3.3,55.27-3.15s45.21-16.25,50-23.82l-1.87-7.3c-4.76,7.57-24.81,17.38-50,23.83S498,1023.65,490.22,1019.31Z"/><path class="cls-25" d="M486,1002.95l1.87,7.3c7.82,4.34,30.12,3.3,55.27-3.15s45.21-16.25,50-23.82l-1.87-7.3c-4.76,7.57-24.81,17.38-50,23.83S493.85,1007.29,486,1002.95Z"/><path class="cls-25" d="M481.84,986.58l1.87,7.3c7.82,4.34,30.12,3.3,55.27-3.15s45.21-16.25,50-23.82l-1.87-7.3c-4.76,7.57-24.81,17.38-50,23.83S489.66,990.93,481.84,986.58Z"/><rect class="cls-25" x="597.54" y="854.59" width="6.91" height="154.71" transform="translate(-212.5 178.32) rotate(-14.37)"/><path class="cls-20" d="M582.11,858c1.79-.46,3.16-1.2,3.08-1.67h0c-.12-.47-1.69-.47-3.51,0s-3.13,1.18-3.08,1.65l0,.1C578.87,858.46,580.38,858.44,582.11,858Z"/><rect class="cls-20" x="575.85" y="836.09" width="6.78" height="21.41" transform="translate(-192.04 170.26) rotate(-14.37)"/><path class="cls-11" d="M576.79,837.22c1.79-.46,3.16-1.2,3.08-1.67h0c-.12-.47-1.69-.47-3.51,0s-3.13,1.18-3.08,1.65l0,.1C573.54,837.68,575.05,837.66,576.79,837.22Z"/><path class="cls-20" d="M610.71,844.33c1.79-.46,3.16-1.2,3.08-1.67h0c-.12-.47-1.69-.47-3.51,0s-3.13,1.18-3.08,1.65l0,.1C607.46,844.8,609,844.78,610.71,844.33Z"/><rect class="cls-20" x="604.45" y="822.43" width="6.78" height="21.41" transform="translate(-187.76 176.93) rotate(-14.37)"/><path class="cls-11" d="M605.38,823.55c1.79-.46,3.16-1.2,3.08-1.67h0c-.12-.47-1.69-.47-3.51,0s-3.13,1.18-3.08,1.65l0,.1C602.14,824,603.65,824,605.38,823.55Z"/><path class="cls-20" d="M591.26,845.75c1.79-.46,3.16-1.2,3.08-1.67h0c-.12-.47-1.69-.47-3.51,0s-3.13,1.18-3.08,1.65l0,.1C588,846.21,589.52,846.19,591.26,845.75Z"/><rect class="cls-20" x="585" y="823.84" width="6.78" height="21.41" transform="translate(-188.72 172.14) rotate(-14.37)"/><path class="cls-11" d="M585.93,825c1.79-.46,3.16-1.2,3.08-1.67h0c-.12-.47-1.69-.47-3.51,0s-3.13,1.18-3.08,1.65l0,.1C582.69,825.43,584.2,825.41,585.93,825Z"/><path class="cls-20" d="M589.65,839.53c13.15-3.37,23.15-8.82,22.56-12.25v-.07l0-.07c-.88-3.43-12.39-3.44-25.72,0-13,3.33-22.91,8.68-22.58,12.13q.11.36.23.71C565.88,842.92,576.94,842.78,589.65,839.53Z"/><rect class="cls-20" x="562.41" y="826.73" width="49.66" height="6.79" transform="translate(-187.65 171.72) rotate(-14.37)"/><path class="cls-11" d="M587.88,832.61c13.15-3.37,23.15-8.82,22.56-12.25v-.07l0-.07c-.88-3.43-12.39-3.44-25.72,0-13,3.33-22.91,8.68-22.58,12.13q.11.36.23.71C564.1,836,575.17,835.87,587.88,832.61Z"/><path class="cls-20" d="M609.12,815.34c-3.76-10.81-18.34-24.29-31.08-21S558.82,816.64,561,828v.07l0,.07c.57,2.23,5.58,3,12.65,2.41a83.83,83.83,0,0,0,13.11-2.33c13-3.33,22.94-8.72,22.6-12.19Q609.24,815.69,609.12,815.34Zm-.87-.85-.08,0Zm.78.72,0,0Zm-.1-.13,0,0Zm-.11-.13-.05-.05Zm-.12-.12-.06-.05Zm-.14-.12-.07-.05Zm-.15-.11-.07,0Zm-22.61.57.35-.08Zm.57-.13.34-.08Zm.56-.12.34-.07Zm.56-.12.33-.07Zm.56-.12.33-.07Zm.55-.11.33-.06Zm.55-.11.33-.06Zm.54-.1.33-.06Zm.53-.1.34-.06Zm.52-.09.35-.06Zm.52-.09.36-.06Zm.46-.08,1.36-.21Zm1.43-.22.35,0Zm.51-.07.32,0Zm.51-.07.3,0Zm.5-.06.29,0Zm.5-.06.29,0Zm.49-.05.28,0Zm.48,0,.27,0Zm1-.08.26,0Zm-.47,0,.27,0Zm5.61-.19h0Zm-.39,0h0Zm-.39,0h0Zm-.39,0h0Zm-.39,0h0Zm-.65,0h0Zm-.43,0h0Zm-.43,0h0Zm-.44,0h0Zm-.45,0-.25,0Zm-.46,0-.26,0Zm-13.21,2.16-1.07.27Zm1.09-.26-1,.24Zm22.3-.85.08,0Zm-5.57-1.13h0Zm.37,0h0Zm.37,0h0Zm.36,0h0Zm.35,0,.17,0Zm.34,0,.16,0Zm.33,0,.16,0Zm.32,0,.15,0Zm.31,0,.14,0Zm.31.05.13,0Zm.3.06.11,0Zm.37.08.07,0Zm.28.07.1,0Zm.26.07.1,0Zm.24.08.1,0Zm.23.08.1,0Zm.22.09.1,0Zm.21.09.09,0Zm.2.09.09,0Z"/><path class="cls-25" d="M578,794.18s-5,14.37.11,34.45c0,0-8.1.89-14.34-.29C563.75,828.34,559.06,805.37,578,794.18Z"/><rect class="cls-25" x="687.59" y="798.79" width="1.92" height="150.11" transform="translate(-195.34 198.24) rotate(-14.37)"/><rect class="cls-25" x="701.73" y="795.17" width="1.92" height="150.11" transform="translate(-194 201.63) rotate(-14.37)"/><rect class="cls-28" x="726.53" y="926.56" width="32.35" height="1.15" transform="translate(-354.53 471.88) rotate(-28.77)"/><rect class="cls-28" x="726.05" y="924.52" width="29.09" height="1.15" transform="translate(-348.25 457.43) rotate(-28.08)"/><rect class="cls-28" x="725.48" y="922.35" width="25.56" height="1.15" transform="translate(-348.78 459.07) rotate(-28.23)"/><rect class="cls-28" x="724.91" y="920.17" width="22.02" height="1.15" transform="translate(-349.71 461.65) rotate(-28.44)"/><rect class="cls-28" x="724.43" y="918.28" width="17.64" height="1.15" transform="translate(-346.83 454.77) rotate(-28.16)"/><path class="cls-25" d="M635.42,842l-6.3.17-2-7.9a3.07,3.07,0,0,1,2.89-3.83h0a3.07,3.07,0,0,1,3.06,2.31Z"/><path class="cls-20" d="M648.73,841.38l-6.3.17-2-7.9a3.07,3.07,0,0,1,2.89-3.83h0a3.07,3.07,0,0,1,3.06,2.31Z"/><path class="cls-20" d="M663.16,840.46l-6.3.17-2-7.9a3.07,3.07,0,0,1,2.89-3.83h0a3.07,3.07,0,0,1,3.06,2.31Z"/><path class="cls-25" d="M641.14,864.33l-6.3.17-2-7.9a3.07,3.07,0,0,1,2.89-3.83h0a3.07,3.07,0,0,1,3.06,2.31Z"/><path class="cls-25" d="M654.45,863.69l-6.3.17-2-7.9a3.07,3.07,0,0,1,2.89-3.83h0a3.07,3.07,0,0,1,3.06,2.31Z"/><path class="cls-20" d="M668.87,862.77l-6.3.17-2-7.9a3.07,3.07,0,0,1,2.89-3.83h0a3.07,3.07,0,0,1,3.06,2.31Z"/><path class="cls-25" d="M646.85,886.64l-6.3.17-2-7.9a3.07,3.07,0,0,1,2.89-3.83h0a3.07,3.07,0,0,1,3.06,2.31Z"/><path class="cls-25" d="M660.16,886l-6.3.17-2-7.9a3.07,3.07,0,0,1,2.89-3.83h0a3.07,3.07,0,0,1,3.06,2.31Z"/><path class="cls-25" d="M674.59,885.08l-6.3.17-2-7.9a3.07,3.07,0,0,1,2.89-3.83h0a3.07,3.07,0,0,1,3.06,2.31Z"/><path class="cls-25" d="M652.57,909l-6.3.17-2-7.9a3.07,3.07,0,0,1,2.89-3.83h0a3.07,3.07,0,0,1,3.06,2.31Z"/><path class="cls-25" d="M665.88,908.32l-6.3.17-2-7.9a3.07,3.07,0,0,1,2.89-3.83h0a3.07,3.07,0,0,1,3.06,2.31Z"/><path class="cls-25" d="M680.31,907.4l-6.3.17-2-7.9a3.07,3.07,0,0,1,2.89-3.83h0a3.07,3.07,0,0,1,3.06,2.31Z"/><path class="cls-25" d="M658.29,931.27l-6.3.17-2-7.9a3.07,3.07,0,0,1,2.89-3.83h0a3.07,3.07,0,0,1,3.06,2.31Z"/><path class="cls-25" d="M671.6,930.63l-6.3.17-2-7.9a3.07,3.07,0,0,1,2.89-3.83h0a3.07,3.07,0,0,1,3.06,2.31Z"/><path class="cls-25" d="M686,929.71l-6.3.17-2-7.9a3.07,3.07,0,0,1,2.89-3.83h0a3.07,3.07,0,0,1,3.06,2.31Z"/><path class="cls-29" d="M939.47,1102.23s75.85-51.11,65.5-118.22c0,0-305,70.81-317.15,38.35C687.82,1022.35,619.89,1129.42,939.47,1102.23Z"/><path class="cls-29" d="M1144.8,854.82s30.62-40.13,91.5-58.3c0,0,65.07,12.31,91.49,25.63C1327.8,822.15,1204.49,827.82,1144.8,854.82Z"/><path class="cls-9" d="M663.51,656.06a18.24,18.24,0,0,0-13.14,22.19l35.33-9.05A18.24,18.24,0,0,0,663.51,656.06Z"/><path class="cls-6" d="M633.57,656A25.72,25.72,0,0,0,615,687.3l49.83-12.77A25.72,25.72,0,0,0,633.57,656Z"/><path class="cls-9" d="M470.43,744.06a36.85,36.85,0,0,0-26.55,44.85l71.4-18.29A36.85,36.85,0,0,0,470.43,744.06Z"/><path class="cls-6" d="M440.7,771.89a17.28,17.28,0,0,0-12.45,21l33.47-8.58A17.28,17.28,0,0,0,440.7,771.89Z"/><path class="cls-9" d="M1226.7,448.45a36.85,36.85,0,0,0-26.55,44.85l71.4-18.29A36.85,36.85,0,0,0,1226.7,448.45Z"/><path class="cls-6" d="M1184.78,478.21a18.43,18.43,0,0,0-13.28,22.42l35.7-9.15A18.43,18.43,0,0,0,1184.78,478.21Z"/></g><polygon class="cls-30" points="903.27 459.08 716.5 694.27 1095.56 957.5 1277.72 681.3 903.27 459.08"/><polygon class="cls-31" points="903.27 459.08 997.41 687.71 1277.72 681.3 903.27 459.08"/><polygon class="cls-32" points="423.96 557.87 458.34 697.35 668.84 630.89 617.59 481.16 423.96 557.87"/><polygon class="cls-31" points="423.96 557.87 538.02 589.12 617.59 481.16 423.96 557.87"/><polygon class="cls-33" points="329.35 752.56 255.65 875.87 452.01 976.72 520.92 834.26 329.35 752.56"/><polygon class="cls-31" points="329.35 752.56 388.42 855.01 520.92 834.26 329.35 752.56"/><path class="cls-19" d="M1095.46,957.53,798,1011.46s-93.22,126.48-88.53,121.31,359.85-103.4,359.85-103.4Z"/><path class="cls-9" d="M664.2,501a50.59,50.59,0,0,0-36.45,61.57l98-25.11A50.59,50.59,0,0,0,664.2,501Z"/><path class="cls-6" d="M623.39,539.23a23.72,23.72,0,0,0-17.09,28.86l45.95-11.77A23.72,23.72,0,0,0,623.39,539.23Z"/><path class="cls-9" d="M761,293.89a21.08,21.08,0,0,0-15.19,25.65l40.84-10.46A21.08,21.08,0,0,0,761,293.89Z"/><path class="cls-9" d="M794.7,270.55a35.31,35.31,0,0,0-25.44,43L837.67,296A35.31,35.31,0,0,0,794.7,270.55Z"/><path class="cls-9" d="M1035.28,306a25,25,0,0,0-18,30.46l48.5-12.43A25,25,0,0,0,1035.28,306Z"/><path class="cls-6" d="M994.18,305.95a35.31,35.31,0,0,0-25.44,43l68.41-17.53A35.31,35.31,0,0,0,994.18,305.95Z"/><path class="cls-34" d="M179.8,584.21c18.22-4.12,27.46,96.1,54.91,114.4s45.76,9.15,54.91,4.58,9.15,0,4.58,6.1S285,720,292.67,724.54s19.83,6.1,12.2,15.25S292.67,747.42,282,752s-19.11-10.55-42.35-24.34-47.64-32.1-58.32-58S124,596.81,179.8,584.21Z"/><path class="cls-35" d="M179.8,584.21c18.22-4.12,27.46,96.1,54.91,114.4s45.76,9.15,54.91,4.58,9.15,0,4.58,6.1S285,720,292.67,724.54s19.83,6.1,12.2,15.25S292.67,747.42,282,752s-19.11-10.55-42.35-24.34-47.64-32.1-58.32-58S124,596.81,179.8,584.21Z"/><path class="cls-36" d="M246.91,738.27l-12.2,39.66s83.89-74.74,93-85.42L314,669.63S271.32,716.91,246.91,738.27Z"/><path class="cls-12" d="M68.45,791.65l-19.83-96.1L37.07,645.49S-.47,582.63,53.21,560c11.45-4.82,29.41-11.76,45.55-11.43,31,.63,36.94-3.78,67.31,11.19,27.86,13.74,46.71,31,54.91,51.86,21.8,55.35-10.68,180-10.68,180Z"/><polygon class="cls-20" points="110.53 457.77 89.28 553.86 155.67 563.02 154.7 473.82 110.53 457.77"/><path class="cls-37" d="M210.9,435.93c.38,1.61-2.48,70.62-2.48,70.62L197.26,505l-19.63,51.83s-53.49-3.06-62.5-59.62c0,0-7.36-5.68-5.26-29.12s-1.63-61.41,36-61.54S203.77,405.82,210.9,435.93Z"/><path class="cls-31" d="M176.4,518.93,174,525.36s-14.29-7.13-15.43-13.81C158.53,511.55,168.08,519.1,176.4,518.93Z"/><circle class="cls-31" cx="174.03" cy="476.77" r="3.63" transform="translate(-330.21 534.55) rotate(-76.49)"/><path class="cls-21" d="M188.17,456.06l54.5,4.95-23.61-60-65.85-2.92-51.43,16.16.34,81.54,10.69-48.33s7.14,9.87,8.27,10.82,22.43-17,22.43-17Z"/><polygon class="cls-38" points="155.67 563.02 174.03 574.23 169.84 560.63 155.59 555.22 155.67 563.02"/><path class="cls-38" d="M117,557.68s-8.46,15.06-9.74,14.75-30-20.88-30-20.88L93.65,534.1Z"/><path class="cls-39" d="M103.15,705.25C36.9,687.29,96,600,62.87,573.32c-21.62-17.42-37.34-2.86-38.5,10.44S8.64,685.93,56.81,717.2s114,26,136.74,30.15,45,7,49.57,8.52c11.42,3.75,28.2,5.28,28.2.7s0-9.15,4.58-10.68,7.63-7.63,7.63-7.63,3.05-6.1,0-6.1-15.25,7.63-21.35,7.63,0-9.15,1.53-10.68,0-4.58-12.2-1.53S133.28,713.41,103.15,705.25Z"/><path class="cls-35" d="M103.15,705.25C36.9,687.29,96,600,62.87,573.32c-21.62-17.42-37.34-2.86-38.5,10.44S8.64,685.93,56.81,717.2s114,26,136.74,30.15,45,7,49.57,8.52c11.42,3.75,28.2,5.28,28.2.7s0-9.15,4.58-10.68,7.63-7.63,7.63-7.63,3.05-6.1,0-6.1-15.25,7.63-21.35,7.63,0-9.15,1.53-10.68,0-4.58-12.2-1.53S133.28,713.41,103.15,705.25Z"/><polygon class="cls-20" points="68.45 791.65 86.75 1177.56 124.89 1177.56 159.97 887.75 170.65 1154.68 198.1 1154.68 210.3 791.65 68.45 791.65"/><path class="cls-40" d="M86.75,1177.56v36.61L131,1240.1s32,0,36.61-3.05-27.46-33.56-32-41.18-7.63-18.3-7.63-18.3Z"/><path class="cls-40" d="M170.64,1154.68v30.51s80.84,1.53,83.89,1.53-1.53-9.15-4.58-9.15-51.86-22.88-51.86-22.88Z"/><polygon class="cls-41" points="159.97 887.75 178.27 797.75 168.04 1028.18 159.97 887.75"/><circle class="cls-42" cx="108.71" cy="675.38" r="5.34"/><polygon class="cls-43" points="269.79 662 262.17 636.07 253.01 640.64 262.17 668.1 269.79 662"/><circle class="cls-44" cx="182.08" cy="639.88" r="8.39"/><polygon class="cls-45" points="234.71 683.35 203.83 699.33 210.93 707.72 234.71 683.35"/><polygon class="cls-46" points="234.71 579.63 256.06 599.46 230.13 604.04 234.71 579.63"/></g></g></g></svg>