<svg xmlns="http://www.w3.org/2000/svg" xmlns:xlink="http://www.w3.org/1999/xlink" viewBox="0 0 988 753.55"><defs><style>.cls-1,.cls-3,.cls-4{fill:none;}.cls-2{fill:#231f20;}.cls-3,.cls-4{stroke:#8ca1ff;stroke-width:3px;}.cls-3{stroke-linejoin:round;}.cls-4{stroke-miterlimit:10;}.cls-5{opacity:0.26;fill:url(#_10_dpi_20_);}.cls-6{fill:url(#linear-gradient);}.cls-7{fill:#8ca1ff;}.cls-8{fill:url(#linear-gradient-2);}.cls-9{fill:url(#linear-gradient-3);}.cls-10{fill:url(#linear-gradient-4);}.cls-11{fill:url(#linear-gradient-5);}.cls-12{fill:url(#linear-gradient-6);}.cls-13{fill:#415acf;}.cls-14{fill:#6d7ec7;}.cls-15{fill:#7a8cde;}.cls-16{fill:#75abcf;}.cls-17{fill:#2c3d8c;}.cls-18{fill:#374db0;}.cls-19{fill:#2b3c8a;}.cls-20{fill:#7384d1;}.cls-21{fill:url(#linear-gradient-7);}.cls-22{fill:url(#linear-gradient-8);}.cls-23{fill:#4763e3;}.cls-24{fill:#293982;}.cls-25{fill:#91d3ff;}.cls-26{fill:#27377d;}.cls-27{fill:#fff;}.cls-28{fill:url(#linear-gradient-9);}.cls-29{fill:url(#linear-gradient-10);}</style><pattern id="_10_dpi_20_" data-name="10 dpi 20%" width="28.8" height="28.8" patternTransform="translate(420.27)" patternUnits="userSpaceOnUse" viewBox="0 0 28.8 28.8"><rect class="cls-1" width="28.8" height="28.8"/><circle class="cls-2" cx="28.8" cy="28.8" r="1.44"/><circle class="cls-2" cx="14.4" cy="28.8" r="1.44"/><circle class="cls-2" cx="28.8" cy="14.4" r="1.44"/><circle class="cls-2" cx="14.4" cy="14.4" r="1.44"/><circle class="cls-2" cx="7.2" cy="21.6" r="1.44"/><circle class="cls-2" cx="21.6" cy="21.6" r="1.44"/><circle class="cls-2" cx="7.2" cy="7.2" r="1.44"/><circle class="cls-2" cx="21.6" cy="7.2" r="1.44"/><circle class="cls-2" cy="28.8" r="1.44"/><circle class="cls-2" cy="14.4" r="1.44"/><circle class="cls-2" cx="28.8" r="1.44"/><circle class="cls-2" cx="14.4" r="1.44"/><circle class="cls-2" r="1.44"/></pattern><linearGradient id="linear-gradient" x1="487.73" y1="212.25" x2="535.53" y2="90.4" gradientUnits="userSpaceOnUse"><stop offset="0" stop-color="#fff"/><stop offset="0.67" stop-color="#ff5512"/><stop offset="0.85" stop-color="#ff5512"/></linearGradient><linearGradient id="linear-gradient-2" x1="-1410.89" y1="-1529.62" x2="-1388.9" y2="-1651.61" gradientTransform="matrix(-0.27, -0.96, -0.96, 0.27, -1424.52, -674.38)" xlink:href="#linear-gradient"/><linearGradient id="linear-gradient-3" x1="489.34" y1="205.56" x2="482.48" y2="273.77" xlink:href="#linear-gradient"/><linearGradient id="linear-gradient-4" x1="372.01" y1="308.98" x2="388.79" y2="308.98" xlink:href="#linear-gradient"/><linearGradient id="linear-gradient-5" x1="433.7" y1="308.78" x2="450.47" y2="308.78" xlink:href="#linear-gradient"/><linearGradient id="linear-gradient-6" x1="525.13" y1="313.73" x2="551.06" y2="313.73" xlink:href="#linear-gradient"/><linearGradient id="linear-gradient-7" x1="431" y1="438" x2="637" y2="438" xlink:href="#linear-gradient"/><linearGradient id="linear-gradient-8" x1="725" y1="265" x2="725" y2="265" xlink:href="#linear-gradient"/><linearGradient id="linear-gradient-9" x1="536.21" y1="324.29" x2="359.09" y2="593.58" gradientUnits="userSpaceOnUse"><stop offset="0.01" stop-color="#fff" stop-opacity="0"/><stop offset="1" stop-color="#ff5512"/></linearGradient><linearGradient id="linear-gradient-10" x1="372" y1="399.51" x2="559.06" y2="399.51" gradientUnits="userSpaceOnUse"><stop offset="0" stop-color="#fff"/><stop offset="1" stop-color="#374db0"/></linearGradient></defs><title>success</title><g id="Layer_2" data-name="Layer 2"><g id="braco"><polygon class="cls-3" points="224.5 302.5 200.5 22.5 451.5 1.5 476.5 308.5 224.5 302.5"/><line class="cls-4" x1="71" y1="586.5" x2="948" y2="582.5"/><path class="cls-5" d="M0,570c9,6,977-78,977-78l11,56Z"/><polygon class="cls-6" points="440 182 514 168 538 236 440 182"/><polygon class="cls-7" points="427 235 459 162 541 202 521 261 427 235"/><polygon class="cls-8" points="538.2 236.27 509.91 308.62 401.76 258.11 439.82 181.46 538.2 236.27"/><polygon class="cls-9" points="538.2 236.27 474.85 244.96 439.82 181.46 538.2 236.27"/><polygon class="cls-10" points="388.79 318.9 381.17 292.97 372.01 297.54 381.17 325 388.79 318.9"/><circle class="cls-11" cx="442.08" cy="308.78" r="8.39"/><polygon class="cls-12" points="529.71 301.53 551.06 321.36 525.13 325.94 529.71 301.53"/><polygon class="cls-13" points="445.75 192.22 474.85 244.96 528.95 237.54 530.78 232.14 448.38 186.23 445.75 192.22"/><line class="cls-4" x1="574" y1="535" x2="569" y2="720"/><line class="cls-4" x1="733.37" y1="514" x2="733.5" y2="719.5"/><rect class="cls-7" x="552.5" y="338.5" width="204" height="98"/><path class="cls-4" d="M733.37,514C733,508,742,344,742,344l-162-4s-13,182-11,179S733.37,514,733.37,514Z"/><polygon class="cls-7" points="542.4 514 527 549 771 544.23 747.31 514 542.4 514"/><path class="cls-14" d="M549,505l-4,39s138,2,157-5,7-34,7-34Z"/><path class="cls-15" d="M585,174.62s6.27,57.66-2,71.38c0,0,35.45,5.86,68,1s42-26,42-26-18.38-36.8-18.3-68.23-36-61.67-63.58-39.57S572.74,156.51,585,174.62Z"/><path class="cls-16" d="M592,259c-20.88,9.17-25.65,120.33-57.35,133.71S424.07,415,424.07,415l41.53,15.46s83.81,1.42,103.19-30.1,45.53-84.07,48.4-106S613.61,249.5,592,259Z"/><path class="cls-5" d="M592,259c-20.88,9.17-25.65,120.33-57.35,133.71S424.07,415,424.07,415l41.53,15.46s83.81,1.42,103.19-30.1,45.53-84.07,48.4-106S613.61,249.5,592,259Z"/><path class="cls-17" d="M427.73,522.17c-4.92,14.77-2,176.24-2,176.24h32.49s-1-70.89,6.89-99.44,33.48-90.58,25.6-112.24S433.63,471,433.63,471Z"/><path class="cls-18" d="M709.32,430.61s22.65,62-9.85,98.46-257-37.41-257-37.41S435.6,537.93,411,569.44s-56.12,49.23-78.77,78.77c0,0-23.63-3.94-24.61-14.77,0,0,79.75-141.78,96.49-174.27S625.63,411.9,709.32,430.61Z"/><path class="cls-19" d="M712.76,442.5c-1.81-4.69-3.58-8.86-5.07-12.25l-2.77-.57c2.92,20,6.16,69.56-41.91,79.32-58.2,11.82-193.29-11.91-217.31-16.31,20.95,6.73,140,44.05,208.72,46.36a166.63,166.63,0,0,0,25.79-1.32h0c8.71-1.51,15.38-4.29,19.28-8.67C723.18,502.49,717.54,462.31,712.76,442.5Z"/><path class="cls-19" d="M442,492l.42.15v-.06Z"/><path class="cls-20" d="M424.77,698.42s-7.88,6.89-27.57,12.8S349.94,727,356.84,732.88s51.2,3.94,67.94,5.91,40.37,3.94,41.35-3-7.88-37.41-7.88-37.41Z"/><path class="cls-7" d="M307.8,631.55s-9.93,3.31-30.37,1.15-49.68-3.74-45.6,4.37,45.7,23.43,60.37,31.71S327.91,688,331.48,682s7.2-37.55,7.2-37.55Z"/><path class="cls-21" d="M560,455c0-1,77-28,77-28l-137-6-69,34Z"/><path class="cls-22" d="M725,265"/><path class="cls-18" d="M621,218s10,26,3,29-30,4-36,18-17,56-8,75,26,36,19,60-16.13,35.45-16.13,35.45L697,444s4.54-49.42,10.27-77.21S748,273,694,259c-21.49-5.57-25-49-29-57s-14-18-14-18Z"/><path class="cls-23" d="M670,198l1.7-47.23c-2.5-25-22.39-43.69-44.21-41.51h0c-21.82,2.18-37.62,24.43-39.76,52L589,174.06C606,223,604.44,222,620,235,626,240,655,244,670,198Z"/><path class="cls-7" d="M667,131.54h0a51.48,51.48,0,0,0-9.17-14.1c-13.63-14.81-21.71-16.31-36.68-12.88s-15.35,15.72-15.35,15.72c1.92-.69,8.94,2,17.72,5.94l-.17.37a219,219,0,0,0,19.29,16.76c5.61,15.13,23.27,65.83,17.35,88.65,0,0,16-2,23-6s10-5,10-5S676,145.09,667,131.54Z"/><path class="cls-7" d="M623.36,126.59s-12.45,36.7-40.77,51.61c0,0-22.49-39.65,7.19-65.18S623.36,126.59,623.36,126.59Z"/><path class="cls-4" d="M548.5,548.5c1,1,8,205,8,205"/><line class="cls-4" x1="756.5" y1="546.5" x2="749.5" y2="747.5"/><path class="cls-24" d="M595,368c9.67,8.51-.29,40-.29,40L606,415l43,1,38-5,22-24s1-32-4-37-13-17-12-40,19-43,15.16-45-19.64-8.44-19.64-8.44C675,259.13,618,307,618,307c-1-23-.95-58.07-.95-58.07S594,255,592,257s-12.71,31.14-15.41,55.58C575,327,570,346,595,368Z"/><path class="cls-25" d="M734,292s26,76,17,108-41,44-89,35-106.94,8-114,6,.18-14.93.18-14.93S581,403,637,404s78-6,68-54-16-75,0-85S731,278,734,292Z"/><path class="cls-5" d="M734,292s26,76,17,108-41,44-89,35-91.94,2-99,0-14.82-8.93-14.82-8.93S581,403,637,404s78-6,68-54-16-75,0-85S731,278,734,292Z"/><path class="cls-26" d="M618,360s16,29,54,10c0,0-3,14.46-21.06,20.72S600,402,600,402s7.85-15.19,5.84-20.68S614,368.62,618,360Z"/><path class="cls-27" d="M620,218s12-3,13-6C633,212,631,225,620,218Z"/><path class="cls-13" d="M606,184c0,5,5,26,5,26l8-2Z"/><path class="cls-28" d="M372,348,488,215s56.46-30.72,129.23,60.14S605.81,437,605.81,437L559,454,466,351Z"/><path class="cls-29" d="M372,349c0-2,47,112,60,110s125-2,127-4-48-115-48-115Z"/><path class="cls-27" d="M468.51,404.45a8.4,8.4,0,0,1-8.11-10.69A8.42,8.42,0,1,0,470,404.31,8.45,8.45,0,0,1,468.51,404.45Z"/><polygon class="cls-4" points="92.5 504.5 112.53 584.5 157.66 586.5 178.5 504.5 92.5 504.5"/><path class="cls-4" d="M131.87,504.5s-31.37-72,24.63-153-60-112-57-158,65-114,65-114"/><path class="cls-4" d="M134.16,393.76s2.34-25.26-13.66-43.26C120.5,350.5,107.82,384,134.16,393.76Z"/><path class="cls-3" d="M137.73,248.93S133.5,205.5,159.5,196.5C159.5,196.5,150,239.36,137.73,248.93Z"/><circle class="cls-3" cx="171.5" cy="70.5" r="12"/><line class="cls-3" x1="320.81" y1="12.43" x2="338.5" y2="301.5"/><path class="cls-3" d="M212.46,162c0-2.5,249.28-15.43,249.28-15.43"/></g></g></svg>