<?xml version="1.0" encoding="UTF-8"?>
<svg width="35px" height="25px" viewBox="0 0 35 25" version="1.1" xmlns="http://www.w3.org/2000/svg" xmlns:xlink="http://www.w3.org/1999/xlink">
    <!-- Generator: Sketch 46.2 (44496) - http://www.bohemiancoding.com/sketch -->
    <title>swipe</title>
    <desc>Created with Sketch.</desc>
    <defs></defs>
    <g id="Page-1" stroke="none" stroke-width="1" fill="none" fill-rule="evenodd">
        <g id="swipe" fill="#FFFFFF">
            <path d="M27.4201053,14.4051471 C27.4079474,13.2569853 26.5451053,12.3272059 25.4866316,12.3272059 C25.2585789,12.3272059 25.0434211,12.3779412 24.8404211,12.4569853 C24.8043158,11.4378676 23.9569474,10.6183824 22.9132105,10.6183824 C22.5897368,10.6183824 22.2894737,10.7044118 22.0212632,10.8430147 C21.6896842,10.2613971 21.0648421,9.8625 20.3401579,9.8625 C20.1150526,9.8625 19.9021053,9.90808824 19.7013158,9.97794118 L19.7013158,7.03897059 C19.7013158,5.98897059 18.8336842,5.13492647 17.7671053,5.13492647 C16.7001579,5.13492647 15.8328947,5.98897059 15.8328947,7.03897059 L15.8328947,14.8816176 C14.7313158,14.9334559 13.8633158,15.5514706 13.6172105,16.5496324 C13.2944737,17.8617647 13.4009474,19.3422794 13.9336842,20.9492647 C14.3345263,22.1591912 15.2673684,23.3761029 16.7845263,24.6680147 C16.9064737,24.7720588 17.0556842,24.8231618 17.2045263,24.8231618 C17.3876316,24.8231618 17.5692632,24.7463235 17.6974737,24.5963235 C17.9295789,24.325 17.8971579,23.9172794 17.6252632,23.6856618 C16.3118421,22.5661765 15.4832632,21.5091912 15.1631053,20.54375 C14.7014737,19.1511029 14.6075263,17.9455882 14.8753684,16.8584559 C14.9844211,16.4139706 15.3823158,16.2095588 15.8332632,16.1713235 L15.8332632,17.3316176 C15.8332632,17.6886029 16.1232105,17.9779412 16.4805789,17.9779412 C16.8383158,17.9779412 17.1282632,17.6886029 17.1282632,17.3316176 L17.1282632,7.03897059 C17.1282632,6.70183824 17.4148947,6.42720588 17.7674737,6.42720588 C18.1200526,6.42720588 18.4063158,6.70147059 18.4063158,7.03897059 L18.4063158,14.3496324 C18.4063158,14.7066176 18.6962632,14.9959559 19.054,14.9959559 C19.4113684,14.9959559 19.7016842,14.7066176 19.7016842,14.3496324 L19.7016842,11.7669118 C19.7016842,11.4297794 19.9879474,11.1551471 20.3405263,11.1551471 C20.6931053,11.1551471 20.9793684,11.4294118 20.9793684,11.7669118 L20.9793684,12.5216912 L20.9793684,14.35 L20.9793684,14.7025735 C20.9793684,15.0595588 21.2693158,15.3488971 21.6270526,15.3488971 C21.9847895,15.3488971 22.2747368,15.0595588 22.2747368,14.7025735 L22.2747368,14.35 L22.2747368,12.5216912 C22.2747368,12.1845588 22.561,11.9106618 22.9132105,11.9106618 C23.2654211,11.9106618 23.5516842,12.1845588 23.5516842,12.5216912 L23.5516842,15.2856618 C23.5516842,15.6426471 23.8416316,15.9319853 24.1993684,15.9319853 C24.5571053,15.9319853 24.8470526,15.6426471 24.8470526,15.2856618 L24.8470526,14.4301471 C24.8470526,13.9911765 25.1399474,13.6198529 25.4866316,13.6198529 C25.8322105,13.6198529 26.1247368,13.9911765 26.1247368,14.4301471 C26.1247368,14.4455882 26.1254737,14.4617647 26.1265789,14.4772059 C26.131,14.5323529 26.509,20.0279412 24.7298947,23.9084559 C24.5814211,24.2334559 24.7243684,24.6169118 25.0496842,24.7650735 C25.1366316,24.8047794 25.228,24.8235294 25.3182632,24.8235294 C25.564,24.8235294 25.7986842,24.6834559 25.9077368,24.4459559 C27.7855789,20.3488971 27.4517895,14.8613971 27.4201053,14.4051471 L27.4201053,14.4051471 Z" id="Shape"></path>
            <path d="M12.3708421,6.71764706 C12.3708421,3.74852941 14.7913684,1.33235294 17.7671053,1.33235294 C20.7424737,1.33235294 23.163,3.74852941 23.163,6.71801471 C23.1633684,7.15441176 23.1110526,7.58860294 23.0067895,8.00955882 C22.9220526,8.35625 23.1338947,8.70625 23.4809474,8.79154412 C23.8291053,8.87647059 24.1794737,8.66397059 24.2649474,8.31838235 C24.3935263,7.79595588 24.458,7.25735294 24.458,6.71764706 C24.458,3.03566176 21.4564737,0.0400735294 17.7667368,0.0400735294 C14.077,0.0400735294 11.0754737,3.03566176 11.0754737,6.71764706 C11.0754737,7.99191176 11.4368947,9.23125 12.1206842,10.3011029 C12.2441053,10.4941176 12.4533684,10.6 12.6670526,10.6 C12.7864211,10.6 12.9068947,10.5672794 13.0148421,10.4985294 C13.3162105,10.3069853 13.405,9.90735294 13.2126842,9.60625 C12.6622632,8.74411765 12.3708421,7.74558824 12.3708421,6.71764706 L12.3708421,6.71764706 Z" id="Shape"></path>
            <path d="M21.0497368,8.39889706 C21.3916316,8.50330882 21.7537895,8.31213235 21.8584211,7.97095588 C21.9836842,7.56617647 22.0466842,7.14448529 22.0466842,6.71764706 C22.0466842,4.3625 20.1268421,2.44669118 17.7671053,2.44669118 C15.4073684,2.44669118 13.4878947,4.3625 13.4878947,6.71764706 C13.4878947,7.41948529 13.6625263,8.11544118 13.9926316,8.73051471 C14.1094211,8.94816176 14.3326842,9.07169118 14.5636842,9.07169118 C14.6668421,9.07169118 14.7714737,9.04742647 14.8691053,8.99522059 C15.1844737,8.82683824 15.3031053,8.43529412 15.1343684,8.12058824 C14.9044737,7.69227941 14.7828947,7.20735294 14.7828947,6.71764706 C14.7828947,5.07536765 16.1213684,3.73897059 17.7671053,3.73897059 C19.4128421,3.73897059 20.7520526,5.075 20.7520526,6.71764706 C20.7520526,7.01580882 20.7082105,7.30955882 20.6212632,7.59117647 C20.5158947,7.93235294 20.7078421,8.29411765 21.0497368,8.39889706 L21.0497368,8.39889706 Z" id="Shape"></path>
            <path d="M8.92614513,5.69855093 C8.92614513,5.96459428 8.71579279,6.18029535 8.45634648,6.18029535 L1.60186661,6.18029535 L3.73075923,8.36922156 C3.9139807,8.55770407 3.91362836,8.86264829 3.72993708,9.05052861 C3.63820889,9.14434834 3.51817534,9.19119798 3.39814178,9.19119798 C3.27775587,9.19119798 3.15725252,9.14398703 3.06552433,9.04968556 L0.137151846,6.03878292 C-0.0457172819,5.85066173 -0.0457172819,5.54644012 0.137151846,5.35831893 L3.06552433,2.34741629 C3.24874581,2.15905422 3.54612836,2.15869291 3.72993708,2.34657324 C3.91362836,2.53445356 3.9139807,2.83939778 3.73075923,3.02788029 L1.60186661,5.2168065 L8.45634648,5.2168065 C8.71579279,5.2168065 8.92614513,5.43250757 8.92614513,5.69855093" id="arrow-thin-left"></path>
            <path d="M34.8627894,6.03874679 L31.9344169,9.04964943 C31.8426888,9.1439509 31.7221854,9.19116185 31.6017995,9.19116185 C31.4817659,9.19116185 31.3617324,9.14431221 31.2700042,9.05049248 C31.0863129,8.86261216 31.0859606,8.55766794 31.269182,8.36930587 L33.3980747,6.18025922 L26.5435948,6.18025922 C26.2841485,6.18025922 26.0737961,5.96455815 26.0737961,5.69851479 C26.0737961,5.43247144 26.2841485,5.21677037 26.5435948,5.21677037 L33.3980747,5.21677037 L31.269182,3.02784416 C31.0859606,2.83948209 31.0863129,2.53441743 31.2700042,2.34653711 C31.4536955,2.15865678 31.7511955,2.15901809 31.9344169,2.3475006 L34.8627894,5.35840323 C35.0456586,5.54640399 35.0456586,5.8506256 34.8627894,6.03874679" id="arrow-thin-right"></path>
        </g>
    </g>
</svg>