<?xml version="1.0" encoding="UTF-8"?>
<svg width="76px" height="73px" viewBox="0 0 76 73" version="1.1" xmlns="http://www.w3.org/2000/svg" xmlns:xlink="http://www.w3.org/1999/xlink">
    <!-- Generator: Sketch 46.2 (44496) - http://www.bohemiancoding.com/sketch -->
    <title>tropical-neg</title>
    <desc>Created with Sketch.</desc>
    <defs>
        <polygon id="path-1" points="4.69141272 4.4645653 0.0304329316 4.4645653 0.0304329316 0.0331157991 4.69141272 0.0331157991"></polygon>
        <polygon id="path-3" points="3.91201095 0.0175148331 0.00521581427 0.0175148331 0.00521581427 4.48812018 3.91201095 4.48812018 3.91201095 0.0175148331"></polygon>
    </defs>
    <g id="Hero-(MD)" stroke="none" stroke-width="1" fill="none" fill-rule="evenodd">
        <g id="Hero-Day---Speakers-" transform="translate(-93.000000, -2016.000000)">
            <g id="tropical-neg" transform="translate(93.708984, 2016.548828)">
                <g id="Group-11" transform="translate(11.676555, 8.611030)">
                    <path d="M29.970365,20.1187007 L30.2511707,20.4596098 C30.2715283,20.4407321 30.2907549,20.422132 30.3112741,20.4032543 C30.2390531,20.3258002 30.1236933,20.23044 29.970365,20.1187007" id="Fill-1" fill="#242D33"></path>
                    <path d="M49.7771772,17.9742927 C48.8662341,15.5615386 47.5977824,13.3018675 46.0070664,11.258084 C44.4310319,9.23323189 42.5686213,7.45809497 40.4715206,5.98212686 C36.1187411,2.91857649 30.9941929,1.29927007 25.6519112,1.29927007 C17.0005281,1.29927007 8.97096444,5.60560087 4.17262995,12.8186642 L3.10036157,12.105407 C8.13797958,4.53251684 16.5684526,0.0114146915 25.6519112,0.0114146915 C31.2609936,0.0114146915 36.641868,1.711856 41.2127243,4.92896166 C43.4140555,6.47833753 45.3690199,8.34160669 47.0233989,10.4670832 C48.6935756,12.6129078 50.0254327,14.9856955 50.9820088,17.5194222 L49.7771772,17.9742927 Z" id="Fill-3" fill="#FFFFFF"></path>
                    <path d="M25.6518983,54.1442432 C19.8917076,54.1442432 14.3924363,52.3590181 9.74847278,48.9815745 C7.51335685,47.3560005 5.54508455,45.4060586 3.89851852,43.1859677 C2.23276345,40.9400767 0.93177195,38.4649045 0.0316898279,35.8292656 L1.25047323,35.4130736 C2.10749805,37.9227174 3.34645785,40.2797933 4.93288103,42.4187493 C6.50157474,44.5337942 8.37660631,46.3913968 10.5059893,47.9400858 C14.928313,51.1563329 20.1657203,52.8563878 25.6518983,52.8563878 C30.9043735,52.8563878 35.9574887,51.2867926 40.2650645,48.3172986 C42.3412591,46.886062 44.1945259,45.162053 45.7735224,43.1931368 C47.3653546,41.2082511 48.6500762,39.0091951 49.5921424,36.6570561 L50.7876585,37.1358807 C49.7984139,39.6058585 48.4494712,41.9148974 46.7782213,43.998862 C45.1208373,46.0655694 43.175403,47.8752208 40.9960512,49.37759 C36.472545,52.4959601 31.1666238,54.1442432 25.6518983,54.1442432" id="Fill-5" fill="#FFFFFF"></path>
                    <path d="M25.6518983,43.154544 C20.8797502,43.154544 16.3843193,41.0537085 13.318365,37.3907473 L14.3059354,36.5641158 C17.1265104,39.9340041 21.2619857,41.8666886 25.6518983,41.8666886 C30.0893757,41.8666886 34.2535273,39.8994466 37.0765921,36.4693297 L38.0709882,37.2877189 C35.0023293,41.016146 30.4757753,43.154544 25.6518983,43.154544" id="Fill-7" fill="#FFFFFF"></path>
                    <path d="M38.9063298,20.5103418 C37.6995235,18.0795577 35.8471582,16.0261152 33.5496242,14.5719977 C31.1897151,13.078386 28.4587319,12.2889306 25.651894,12.2889306 C22.9795941,12.2889306 20.3613412,13.0090994 18.0801201,14.3715645 C15.863678,15.6953081 14.0229034,17.5834329 12.7566411,19.8318566 L11.6344898,19.1999489 C13.0106062,16.7564151 15.0111178,14.7044751 17.4197507,13.2658977 C19.9005466,11.784263 22.7471792,11.0010753 25.651894,11.0010753 C28.7029522,11.0010753 31.6721028,11.8595597 34.2383263,13.4837599 C36.7351345,15.0640014 38.7481383,17.2956831 40.0598619,19.9376754 L38.9063298,20.5103418 Z" id="Fill-9" fill="#FFFFFF"></path>
                </g>
                <polygon id="Fill-12" fill="#FFFFFF" points="14.2480892 58.0028296 15.3640588 58.98864 14.6867328 61.346231 16.9382045 60.3791375 18.0541741 61.3649478 15.245061 64.5450062 14.3241156 63.7315109 15.8629311 61.9895147 13.9570339 62.8580444 13.2720236 62.2529241 13.8986511 60.2543443 12.3598786 61.9963404 11.4389761 61.1828451"></polygon>
                <path d="M19.3167574,65.283823 L20.0780946,65.7325119 L20.3326607,64.4422525 L19.3167574,65.283823 Z M19.743381,67.3971508 L19.8651262,66.7733136 L18.4936891,65.9650556 L18.0017283,66.3706442 L16.7606221,65.6392282 L20.45857,62.8934347 L21.6996333,63.6248936 L21.0314081,68.1562557 L19.743381,67.3971508 Z" id="Fill-13" fill="#FFFFFF"></path>
                <g id="Group-56" transform="translate(7.383704, 0.025328)">
                    <path d="M17.3963762,67.3399829 L18.0026556,67.5677616 C18.1461656,67.6216798 18.272633,67.6206924 18.3820148,67.5647995 C18.4913537,67.5089066 18.5744204,67.4054059 18.6312578,67.2542976 C18.6865926,67.1069669 18.6906708,66.9781814 18.6438787,66.8678551 C18.596915,66.7575718 18.5016566,66.6754495 18.3581466,66.6215313 L17.7518672,66.3937097 L17.3963762,67.3399829 Z M17.6032057,69.7324747 L17.5146872,68.5224488 L17.0216961,68.3372122 L16.6342663,69.3684839 L15.3197094,68.8746343 L16.8119474,64.9026307 L18.7328266,65.6242161 C19.2729532,65.8271821 19.6438984,66.1077629 19.8456195,66.4658296 C20.0472977,66.8239392 20.0630095,67.2296566 19.8926692,67.6829388 C19.7848328,67.9700876 19.636944,68.2001415 19.4491318,68.3730575 C19.2612766,68.5461024 19.0419978,68.6565574 18.7911665,68.7045515 L19.0877596,70.2902449 L17.6032057,69.7324747 Z" id="Fill-14" fill="#FFFFFF"></path>
                    <path d="M24.1017326,68.3515289 C23.9503666,68.2125693 23.7934629,68.126884 23.6312361,68.0947305 C23.4688804,68.0625341 23.313007,68.0758849 23.1635728,68.134654 C23.0140528,68.193509 22.887843,68.2908709 22.7847716,68.4267396 C22.6817003,68.5626942 22.6113834,68.725565 22.5737351,68.9155666 C22.5360438,69.1055253 22.5386625,69.284065 22.5817627,69.4509281 C22.6247342,69.6178771 22.7038514,69.7580387 22.8192862,69.871327 C22.9345922,69.9847441 23.07338,70.057465 23.2356927,70.0896614 C23.3861143,70.1194967 23.5562399,70.1069616 23.7461128,70.0520131 C23.9359426,69.9970646 24.1126364,69.909748 24.2762799,69.7899775 L24.9035513,70.796737 C24.6189353,71.0077735 24.2983451,71.1570789 23.9416092,71.244696 C23.5848303,71.3323131 23.2461244,71.344376 22.9255342,71.2807989 C22.505908,71.1976463 22.1475408,71.0288085 21.8503896,70.7745429 C21.5531097,70.5203203 21.3426741,70.2070709 21.21904,69.8348807 C21.095363,69.4627764 21.0747144,69.0688643 21.1570942,68.6532305 C21.2387442,68.241589 21.4088699,67.8916787 21.6675571,67.6035854 C21.9262014,67.3154492 22.2452032,67.1124403 22.6245195,66.9942152 C23.0037071,66.8760759 23.4091239,66.8597201 23.8405984,66.9452767 C24.1572391,67.0080382 24.4619886,67.1415029 24.7547182,67.3455421 C25.0474477,67.5496672 25.2775874,67.7896805 25.4450086,68.0655391 L24.4622462,68.8518607 C24.3732554,68.6573945 24.2530985,68.4905743 24.1017326,68.3515289" id="Fill-16" fill="#FFFFFF"></path>
                    <g id="Group-20" transform="translate(26.358107, 67.440693)">
                        <mask id="mask-2" fill="white">
                            <use xlink:href="#path-1"></use>
                        </mask>
                        <g id="Clip-19"></g>
                        <path d="M1.95426902,1.32578272 C1.81247614,1.41254124 1.69794287,1.53334207 1.61075506,1.68827108 C1.52352432,1.84320008 1.47707567,2.01955041 1.47136618,2.21715035 C1.46565669,2.41479322 1.5018025,2.59449198 1.57993239,2.75616075 C1.65797642,2.91795832 1.76529771,3.04717314 1.90176745,3.14393401 C2.03823719,3.24078073 2.1871562,3.29143638 2.34852448,3.29607266 C2.50976397,3.30075186 2.65838248,3.25962635 2.79412244,3.17269611 C2.92986239,3.0858088 3.03834275,2.96281861 3.11964935,2.80368262 C3.20091302,2.64458955 3.24448546,2.46613572 3.25015203,2.26849285 C3.25586152,2.07089291 3.22267778,1.89132294 3.15068666,1.72969709 C3.07860969,1.56820003 2.97734133,1.44117456 2.84679572,1.34853483 C2.71625012,1.25602388 2.57025024,1.20730002 2.40896782,1.20266374 C2.24759954,1.19798453 2.0960619,1.23902419 1.95426902,1.32578272 M3.6143146,0.353408979 C3.96375269,0.553284134 4.23355839,0.823433263 4.42355999,1.16394222 C4.61351866,1.50457997 4.70246653,1.88458316 4.69031776,2.30403766 C4.67812607,2.72752744 4.56728465,3.10585642 4.35783643,3.43893875 C4.14834529,3.77193522 3.8633429,4.02924872 3.50291511,4.2104929 C3.14240146,4.39178001 2.74033301,4.47613454 2.29666683,4.46329891 C1.8529148,4.45050621 1.45629827,4.34309908 1.10698897,4.14133507 C0.757507946,3.93952813 0.487916888,3.66628815 0.298001148,3.32165805 C0.108128337,2.97707088 0.0193092449,2.59303241 0.031543871,2.1694997 C0.0437784971,1.745967 0.154534059,1.36974151 0.363896415,1.04065154 C0.573215842,0.711647416 0.858046523,0.458497978 1.21843139,0.281160293 C1.57877332,0.103865536 1.98075591,0.0216145061 2.42455087,0.0344072028 C2.86821705,0.047242828 3.26479065,0.153576754 3.6143146,0.353408979" id="Fill-18" fill="#FFFFFF" mask="url(#mask-2)"></path>
                    </g>
                    <polygon id="Fill-21" fill="#FFFFFF" points="34.5126953 67.2742078 38.2066938 66.4867272 38.3896981 67.3450828 36.9309014 69.9955321 38.9081886 69.5739741 39.1327906 70.6277403 35.3262765 71.439175 35.1432722 70.5807765 36.6021119 67.9304131 34.7372973 68.3279311"></polygon>
                    <polygon id="Fill-23" fill="#FFFFFF" points="39.4903079 66.0937982 42.8367142 64.7955971 43.2220405 65.7887911 41.184868 66.579105 41.3731095 67.064369 43.2241011 66.3463467 43.6093845 67.3395407 41.7584358 68.057563 41.9488667 68.5485364 44.0368237 67.7385183 44.42215 68.7317124 41.0249592 70.0496177"></polygon>
                    <path d="M46.4169736,65.2384133 L46.9746579,64.9090657 C47.1066631,64.8311505 47.1852223,64.7320285 47.2102925,64.6117428 C47.2352769,64.4915859 47.2068582,64.3619418 47.1247789,64.2229393 C47.0447602,64.087414 46.9470549,64.0034029 46.8317489,63.9706914 C46.7164,63.9381086 46.59268,63.9607319 46.4606748,64.0386901 L45.9029476,64.3680377 L46.4169736,65.2384133 Z M48.4101015,66.5779975 L47.4121424,65.8879646 L46.9586885,66.1557097 L47.5188627,67.1043011 L46.3096523,67.8183739 L44.1521082,64.1647712 L45.9189599,63.1213937 C46.4158145,62.8279773 46.8669932,62.7150753 47.2724101,62.7825589 C47.6778269,62.8501284 48.0036544,63.092374 48.2498923,63.5093386 C48.4058516,63.7733919 48.4923096,64.0328948 48.5091376,64.2876326 C48.5260943,64.5424562 48.4745801,64.7825554 48.3546379,65.0080159 L49.7756146,65.7716283 L48.4101015,66.5779975 Z" id="Fill-25" fill="#FFFFFF"></path>
                    <path d="M50.6788433,61.2403607 C50.6317078,61.3997543 50.6276726,61.566231 50.6667804,61.7396193 C50.7058025,61.9130934 50.7894701,62.0751056 50.9176547,62.225613 C51.0458821,62.3761633 51.193084,62.4852876 51.359432,62.5529858 C51.52578,62.6207699 51.692085,62.644767 51.8582184,62.6251486 C52.0243946,62.6055732 52.1688491,62.5434128 52.2917534,62.4387101 C52.4146148,62.3341363 52.4973381,62.2040199 52.5398802,62.0485329 C52.5823794,61.8930887 52.5804906,61.7291018 52.5342137,61.5564433 C52.4878938,61.3839566 52.4006631,61.2223307 52.2724356,61.0717375 C52.144294,60.9212731 51.9992815,60.810217 51.8375698,60.7385264 C51.675858,60.6669216 51.5155201,60.6404347 51.3565558,60.6591945 C51.1976773,60.6779972 51.0567001,60.7396854 50.9338387,60.8443022 C50.8109344,60.9490049 50.7259789,61.0809671 50.6788433,61.2403607 M51.2594085,59.4061971 C51.6527625,59.3204259 52.0340536,59.340173 52.4032817,59.4656101 C52.7725098,59.591176 53.0931858,59.8136316 53.3652667,60.1331056 C53.6400092,60.4556704 53.8112081,60.8107321 53.8789064,61.1983337 C53.9466476,61.5858923 53.9074538,61.9678273 53.761411,62.343924 C53.6152395,62.7200636 53.3733373,63.0520727 53.035404,63.3398655 C52.6973849,63.6277011 52.3310759,63.8137104 51.9365629,63.8980649 C51.5419211,63.9824624 51.1586983,63.9602683 50.7868515,63.8317403 C50.4150047,63.7031695 50.0917101,63.477623 49.8170105,63.1551011 C49.542268,62.8324934 49.3723999,62.47902 49.3072774,62.0944664 C49.2421977,61.7099557 49.2839672,61.3311545 49.4326716,60.9580628 C49.5812901,60.5849711 49.8246089,60.2545503 50.1625851,59.9667147 C50.5004754,59.6789219 50.8660975,59.492097 51.2594085,59.4061971" id="Fill-27" fill="#FFFFFF"></path>
                    <path d="M2.94791383,15.0282806 C2.92554808,14.9075227 2.85016561,14.7983555 2.72155179,14.700736 C2.59620053,14.6056065 2.47394013,14.5649102 2.3548135,14.5783039 C2.23568688,14.5917835 2.12973931,14.6595676 2.03709958,14.7816992 L1.72612544,15.1915806 L2.5314214,15.8025392 L2.84239555,15.3926578 C2.93503528,15.2705691 2.97027959,15.1490385 2.94791383,15.0282806 M2.32377619,13.2972742 C2.71730186,13.2159246 3.10687812,13.3215717 3.49263373,13.6143012 C3.90096974,13.9240305 4.12694543,14.2854456 4.17064666,14.6985038 C4.21434788,15.1115619 4.06912072,15.5383142 3.73500811,15.9787179 L3.3801181,16.4464669 L4.25774861,17.1123311 L3.40892313,18.2310481 L0.0286461964,15.6664129 L1.23231876,14.0799039 C1.56643137,13.6395003 1.93033637,13.3786666 2.32377619,13.2972742" id="Fill-29" fill="#FFFFFF"></path>
                    <path d="M5.66980905,10.9326343 C5.6304436,11.0940885 5.63439303,11.2605652 5.6817861,11.4318929 C5.72913625,11.6032636 5.82057398,11.7610688 5.9557988,11.9051798 C6.09110947,12.0494196 6.24346276,12.1513319 6.4129016,12.2108737 C6.58225458,12.2706302 6.74946114,12.2865567 6.91447834,12.2589537 C7.0795814,12.2313936 7.22085913,12.1623645 7.33861204,12.0518665 C7.45623617,11.9414973 7.53264892,11.8075603 7.56759273,11.6502273 C7.60253654,11.4928944 7.59279177,11.329165 7.53822963,11.1589535 C7.48371042,10.9889136 7.38879548,10.8316235 7.2534848,10.6874267 C7.11817413,10.5433157 6.9680102,10.4393857 6.80299299,10.3755081 C6.63806165,10.3118022 6.47665044,10.2931283 6.31875937,10.3194864 C6.16095416,10.3458874 6.02306778,10.4143155 5.90544365,10.5247276 C5.78773367,10.6351827 5.70921742,10.7711373 5.66980905,10.9326343 M6.16138345,9.07262774 C6.55014405,8.96796803 6.93190732,8.96938467 7.30675909,9.07687767 C7.68165379,9.18445652 8.01263262,9.39124316 8.29982437,9.6972376 C8.58976354,10.0061941 8.77783336,10.3525843 8.86416259,10.736451 C8.9504489,11.1203178 8.92971443,11.5037123 8.80195918,11.88642 C8.67407514,12.2691277 8.44844288,12.61247 8.12480482,12.9161892 C7.80103798,13.2199513 7.4440874,13.4233896 7.05408186,13.5266326 C6.66399047,13.6299186 6.28012371,13.6262268 5.90252451,13.5157717 C5.52492532,13.4052737 5.19115613,13.1955679 4.90121696,12.8866114 C4.61127779,12.577612 4.42453876,12.2327243 4.34095694,11.8517767 C4.25746099,11.470872 4.28089995,11.0905254 4.41148849,10.710651 C4.54199117,10.3308624 4.769083,9.98910856 5.09280691,9.68526055 C5.41644497,9.38154132 5.77266576,9.17733039 6.16138345,9.07262774" id="Fill-31" fill="#FFFFFF"></path>
                    <path d="M11.2921435,6.5573217 C11.0868164,6.56522055 10.9151023,6.61476005 10.777173,6.70615486 C10.6392008,6.79754966 10.5379324,6.91676214 10.4731533,7.06370644 C10.4083742,7.21077952 10.3872533,7.36875645 10.409705,7.53780893 C10.4321995,7.70690434 10.4969357,7.87209326 10.6039135,8.03359032 C10.7108914,8.19500153 10.838432,8.32000935 10.9864924,8.40814159 C11.13451,8.49648847 11.289396,8.54031848 11.4511077,8.5395887 C11.6128624,8.53894477 11.76264,8.4929254 11.9006122,8.40148767 C12.0283674,8.31678972 12.1404109,8.18809004 12.2365707,8.01547449 C12.3327306,7.84281601 12.3967799,7.65642041 12.4287188,7.45611597 L13.5829377,7.72965645 C13.52932,8.07991018 13.4067591,8.4116188 13.2149974,8.72495401 C13.0232787,9.03833215 12.79125,9.28534282 12.5187398,9.46590014 C12.1621756,9.70217867 11.7887834,9.83457021 11.398735,9.86316059 C11.0086436,9.89179391 10.6386856,9.8173988 10.2888612,9.64014697 C9.93903674,9.46293807 9.64712286,9.19763986 9.4130766,8.84442406 C9.18126264,8.49464254 9.0557826,8.12635883 9.03676526,7.73961587 C9.01766208,7.3528729 9.10128682,6.98411697 9.28746778,6.63317638 C9.47364874,6.28232165 9.75006543,5.9853422 10.1167608,5.74236682 C10.3858367,5.56404178 10.6962528,5.44435709 11.0478373,5.38314103 C11.3994218,5.32209668 11.7317744,5.3305536 12.0449379,5.40859764 L11.9004405,6.65889056 C11.7003078,6.58342224 11.4975564,6.54950871 11.2921435,6.5573217" id="Fill-33" fill="#FFFFFF"></path>
                    <polygon id="Fill-35" fill="#FFFFFF" points="19.0129051 6.04037655 17.4807006 6.72113691 16.0623855 5.73519776 15.8791237 6.30670505 16.296904 7.24705411 15.013599 7.81727354 13.2908349 3.93962687 14.5741399 3.36945036 15.2033001 4.78557613 15.7302047 2.85581071 17.2071602 2.1996484 16.5068673 4.365306"></polygon>
                    <polygon id="Fill-37" fill="#FFFFFF" points="19.0789721 1.59111097 22.5568685 0.703349335 22.8203208 1.73556542 20.7031294 2.27599246 20.8318721 2.78035956 22.7555416 2.28938616 23.0189939 3.32160224 21.0953673 3.81261857 21.2255694 4.32286687 23.3956057 3.76891734 23.659058 4.80113343 20.1284025 5.70237462"></polygon>
                    <g id="Group-41" transform="translate(24.383395, 0.000000)">
                        <mask id="mask-4" fill="white">
                            <use xlink:href="#path-3"></use>
                        </mask>
                        <g id="Clip-40"></g>
                        <polygon id="Fill-39" fill="#FFFFFF" mask="url(#mask-4)" points="0.00521581427 0.377414604 3.80760881 0.0175019546 3.91201095 1.12029251 2.70683589 1.23435357 3.00222699 4.3558145 1.60421705 4.48812018 1.30878303 1.36665925 0.109617957 1.48016223"></polygon>
                    </g>
                    <polygon id="Fill-42" fill="#FFFFFF" points="32.6373418 0.109407607 36.196416 0.574752683 36.0583149 1.63105166 33.89167 1.34780934 33.8241434 1.86393884 35.7927592 2.12129527 35.6546581 3.17768011 33.6860853 2.92028075 33.6177861 3.44242025 35.8384351 3.73274578 35.700377 4.78908769 32.0872558 4.31670233"></polygon>
                    <path d="M39.895948,4.50685418 C40.0949216,4.37360408 40.2398053,4.15840344 40.3305991,3.86120935 C40.4225949,3.56019462 40.4181304,3.29515399 40.3172484,3.06600159 C40.2164093,2.83689211 40.0347358,2.68213483 39.7723568,2.60198729 L39.3323824,2.46753519 L38.7291939,4.44147406 L39.2328312,4.59537277 C39.4759354,4.66968203 39.6969743,4.64019014 39.895948,4.50685418 M41.2071564,2.1733461 C41.4882953,2.44070487 41.6726732,2.75545673 41.7603762,3.11773044 C41.8479503,3.4799183 41.8298774,3.86365628 41.7060716,4.26885851 C41.5810638,4.6779243 41.3793427,5.00667085 41.1009513,5.25484058 C40.8225599,5.5031391 40.4869448,5.65901253 40.094106,5.7225038 C39.7012672,5.78599507 39.2791082,5.74877605 38.8275861,5.61080381 L37.0678176,5.07303833 L38.3078506,1.01517776 L40.1196914,1.56886971 C40.5634434,1.70448088 40.9258888,1.90598732 41.2071564,2.1733461" id="Fill-44" fill="#FFFFFF"></path>
                    <polygon id="Fill-46" fill="#FFFFFF" points="44.0580862 3.01102304 45.3338357 3.59789873 43.5606306 7.45270744 42.284881 6.86587468"></polygon>
                    <polygon id="Fill-48" fill="#FFFFFF" points="46.9611655 4.38754297 50.2083211 6.39848621 49.6250943 7.34016606 48.5958832 6.70284936 46.9451102 9.36845242 45.7511824 8.62913757 47.4020413 5.96344866 46.3779387 5.32926574"></polygon>
                    <polygon id="Fill-50" fill="#FFFFFF" points="51.6395362 7.50216538 52.7339557 8.38207111 50.0752642 11.6888974 48.9808017 10.8089916"></polygon>
                    <path d="M54.6242441,11.7997946 C54.4626182,11.7609872 54.2961844,11.7654947 54.1250284,11.8134888 C53.9538295,11.8614829 53.7963248,11.9533928 53.6526431,12.0891757 C53.5089613,12.2250015 53.4075213,12.3776982 53.3485375,12.5472658 C53.2894249,12.7168764 53.2740565,12.8841688 53.3022606,13.0491002 C53.3303787,13.2140315 53.39988,13.3550946 53.5108073,13.4724611 C53.6216487,13.5896989 53.7558432,13.6656394 53.9132621,13.7000681 C54.0707239,13.7344539 54.2344103,13.7241081 54.4044072,13.6689879 C54.5743182,13.6138677 54.731179,13.5183947 54.8749466,13.3825688 C55.0186283,13.246786 55.1220431,13.0962357 55.1852768,12.9310897 C55.2484247,12.7658578 55.2665834,12.6043608 55.2396673,12.4465985 C55.2126652,12.2889221 55.1438079,12.1512932 55.0329665,12.0340125 C54.9220392,11.9166889 54.7858699,11.838602 54.6242441,11.7997946 M56.4859249,12.2848868 C56.5919154,12.673261 56.5919154,13.0550243 56.4856673,13.4302195 C56.3794193,13.8055435 56.1737917,14.1372092 55.8687846,14.4254312 C55.5608155,14.7164436 55.2151121,14.9058012 54.8315459,14.9934613 C54.4479796,15.0810784 54.0644992,15.0616317 53.6813622,14.9352073 C53.2981823,14.808697 52.9541103,14.5842238 52.649232,14.2616589 C52.3443537,13.9389653 52.1396706,13.5827445 52.0350967,13.1930824 C51.9303941,12.8033773 51.9327551,12.4195106 52.0419653,12.0414821 C52.1511325,11.6634966 52.3596792,11.3289976 52.6676054,11.0379852 C52.9755746,10.7469728 53.3197754,10.5590747 53.7004654,10.4741621 C54.0810696,10.3893354 54.461545,10.4114436 54.8418058,10.5406584 C55.2220666,10.6698732 55.5646361,10.8957201 55.8695573,11.2184137 C56.1743927,11.5410215 56.3798485,11.8965125 56.4859249,12.2848868" id="Fill-52" fill="#FFFFFF"></path>
                    <polygon id="Fill-54" fill="#FFFFFF" points="60.1813486 16.9326452 60.878336 17.9955981 57.3300368 20.3222376 56.6861521 19.3402479 57.5821989 16.7549641 55.7701005 17.9432253 55.0698077 16.8751639 58.6181068 14.5485244 59.2619916 15.5305141 58.3591191 18.1274745"></polygon>
                </g>
                <g id="Group-68" transform="translate(0.000000, 20.244657)" fill="#FFFFFF">
                    <path d="M66.0184501,17.639373 C65.7896411,17.7867895 65.7237029,18.0916678 65.8709906,18.3203909 L68.7515368,22.7928122 C68.8457649,22.9390696 69.0043428,23.0188308 69.1662262,23.0188308 C69.257621,23.0188308 69.3500032,22.9934171 69.4325547,22.9402287 C69.6613637,22.792898 69.7273019,22.4879339 69.5800141,22.2592107 L66.6995109,17.7868325 C66.5520515,17.5578947 66.2470444,17.4920424 66.0184501,17.639373" id="Fill-57"></path>
                    <g id="Group-61">
                        <path d="M73.1756462,20.407674 C73.0717592,20.6537831 72.9020199,20.9505479 72.6595597,21.3094732 L69.5826156,16.4265266 C69.4375172,16.1961722 69.1330253,16.1273149 68.9031431,16.2723274 C68.6727887,16.4174258 68.6038455,16.7216172 68.7489439,16.9517999 L72.0184653,22.1404404 C71.7904719,22.3927742 71.5407997,22.6308987 71.2699637,22.8515083 C70.9456817,23.116549 70.6025971,23.3460448 70.2502398,23.5338141 C69.4453302,23.9626699 68.5731946,24.1800599 67.6578728,24.1800599 C66.9147373,24.1800599 66.303607,24.0241006 65.8413099,23.7165178 C65.558969,23.5287056 65.3256526,23.2795914 65.1478427,22.9762586 C65.0720739,22.8470008 64.9415712,22.7591691 64.7932102,22.7377048 C64.6449781,22.7165411 64.4949,22.7635049 64.3856469,22.866104 C64.172421,23.0660221 63.9467029,23.2525894 63.7144597,23.4204828 C63.713644,23.4210409 63.7128713,23.421599 63.7123132,23.4219424 C63.4625981,23.5994947 63.2081608,23.7486284 62.9559987,23.8653939 C62.5051635,24.0741982 62.0567751,24.1800599 61.6234118,24.1800599 C60.8237395,24.1800599 60.2549796,23.9534832 59.9329728,23.5065116 C59.8547571,23.3979454 59.7358451,23.3258684 59.6034965,23.306851 C59.471105,23.2876191 59.3365241,23.3233356 59.2309629,23.4054578 C58.6678696,23.8428135 58.0246717,24.0974655 57.3191416,24.1622875 C57.1913005,24.1740499 57.0649618,24.1800599 56.9434742,24.1800599 C56.2012831,24.1800599 55.5973648,23.9525817 55.148676,23.5039788 C55.0331983,23.3885011 54.931286,23.2617332 54.8458582,23.1271952 C54.7707334,23.0087555 54.6485159,22.9279211 54.5100714,22.905126 C54.3713265,22.8819446 54.2299629,22.91955 54.1207527,23.0075535 C54.0994602,23.0247249 54.0780389,23.0416816 54.0564888,23.0586384 C53.8949058,23.185578 53.7208307,23.3090833 53.5391143,23.4255055 C52.6243507,24.0114797 51.6326591,24.3086308 50.5916856,24.3086308 C50.1342394,24.3086308 49.7125096,24.253253 49.3383877,24.1441717 C48.8902569,24.0133685 48.5020115,23.8022461 48.1843405,23.5165568 C48.0021089,23.3526987 47.8455057,23.1635986 47.7188666,22.9545367 C47.6431407,22.8296577 47.5160294,22.7447451 47.3716179,22.7227657 C47.2272493,22.7007863 47.0806913,22.7440153 46.9711807,22.8406474 C46.713953,23.0679109 46.4361197,23.2758567 46.14412,23.4595907 C45.8532364,23.643754 45.5520929,23.7977386 45.2492751,23.9171228 C44.719709,24.1257983 44.1755042,24.2315741 43.6317717,24.2315741 C42.8150568,24.2315741 42.221613,23.9412486 41.8632458,23.3697842 C41.8594251,23.3621 41.8560767,23.35433 41.8518268,23.3467316 L39.3503394,18.8743533 C39.2175186,18.6368728 38.9171907,18.5520461 38.6797961,18.684824 C38.4423155,18.8176448 38.3574029,19.1178868 38.4903096,19.3553673 L40.6911257,23.2901948 C40.6017056,23.3545446 40.510783,23.4170056 40.418315,23.4766762 C40.3593741,23.514024 40.293393,23.5537329 40.2113137,23.601126 C39.4743599,24.0251309 38.6987275,24.2401598 37.9059238,24.2401598 C36.9538982,24.2401598 36.3027585,23.8878455 35.969762,23.1914592 L35.9556385,23.1594775 C35.9513886,23.1502908 35.946924,23.1411899 35.9422019,23.1323037 L35.7338269,22.7385634 C35.7270013,22.6754585 35.7079839,22.6125682 35.6754012,22.5535415 L32.3616635,16.5396862 C32.5716268,16.5774204 32.8017236,16.5985841 33.0544867,16.5985841 C34.0626199,16.5985841 35.0378269,16.3038799 35.9530199,15.7227566 C35.9546941,15.7217263 35.9563683,15.7206102 35.9580855,15.719537 C36.1123276,15.6200287 36.2626632,15.514725 36.4084055,15.4041841 C36.7884087,16.0055696 37.4897748,16.5899555 38.7803347,16.5899555 C39.7769201,16.5899555 40.7518266,16.2926326 41.6779234,15.7061862 C41.9281966,15.5487673 42.169369,15.3750786 42.3983068,15.1873951 C42.5305266,15.3697984 42.6816779,15.5376059 42.8513314,15.6902168 C43.5722299,16.3384373 44.5441743,16.6670122 45.7402915,16.6670122 C47.101297,16.6670122 48.3752436,16.2261363 49.5292478,15.3561042 C49.6081934,15.4593902 49.6944797,15.5578682 49.7880638,15.6514523 C50.3768284,16.2400452 51.1520315,16.5384842 52.0920371,16.5384842 C53.0406714,16.5384842 53.8948629,16.2720698 54.643665,15.7445643 C55.023153,16.162087 55.6707725,16.5384842 56.7720606,16.5384842 C57.6027703,16.5384842 58.4459292,16.2386285 59.2780984,15.6472024 C59.2798585,15.6459575 59.2816614,15.6447126 59.2834215,15.6434676 C59.4690873,15.5092731 59.6503744,15.3649045 59.8257803,15.2116927 C60.0189587,15.4820994 60.25176,15.7139133 60.523154,15.905675 C61.1173705,16.3255588 61.8856192,16.5384842 62.8064358,16.5384842 C64.2950678,16.5384842 65.6636717,16.0368216 66.8742557,15.0473623 C67.3915872,14.6258902 67.8437962,14.1457348 68.2172743,13.6210196 C68.5523313,13.1502655 68.790284,12.7586287 68.9425515,12.4276928 L73.2977349,19.5281117 C73.2992804,19.5306015 73.3008258,19.5330484 73.3023712,19.5354954 C73.3464588,19.6046532 73.3688675,19.6899522 73.3688675,19.7892029 C73.3688675,19.8580173 73.3487769,19.9969769 73.1756462,20.407674 L73.1756462,20.407674 Z M32.6280349,28.0023717 C32.6276915,28.047833 32.6215097,28.0894737 32.6107776,28.1281523 L28.3777258,20.1559841 C28.4590324,19.992126 28.4957363,19.8150888 28.4968095,19.6465514 C28.5070694,18.9112719 28.8364169,17.3110686 30.2377324,13.8315839 C30.2339976,13.8876485 30.2321087,13.9434556 30.2321087,13.9989192 C30.2321087,14.4318962 30.3116982,14.8158918 30.4686448,15.1403025 C30.5252246,15.2583989 30.5942966,15.3804446 30.6778784,15.5013743 C30.6878378,15.5350731 30.7012315,15.5683427 30.7188751,15.6004103 L34.3293348,22.1526751 C33.2000573,24.979904 32.6431028,26.8939576 32.6280349,28.0023717 L32.6280349,28.0023717 Z M30.1772461,27.5565591 L28.3201157,24.3341733 C28.271306,24.2494324 28.1981987,24.1810902 28.1104529,24.13799 L28.1021247,24.1339547 C28.0114597,24.0893949 27.9093757,24.0736831 27.8094381,24.089309 C27.2007118,24.1837088 26.5428324,24.2315741 25.854259,24.2315741 L25.8400497,24.2315741 C25.807467,24.2266374 25.7744979,24.2250919 25.7416575,24.2266374 L25.6460557,24.2314454 L25.6399599,24.2315741 C24.7114162,24.2315741 23.9904747,23.9965835 23.4964105,23.5322687 C23.3681401,23.4121976 23.2558391,23.2783465 23.1626413,23.1345789 C23.1530253,23.1197686 23.1426366,23.1055163 23.131604,23.091908 L19.58382,16.4514252 C19.9491416,16.5431634 20.3508667,16.5899555 20.7884799,16.5899555 C20.8023887,16.5899555 20.8162547,16.5896121 20.8302064,16.5889252 L20.910912,16.584847 C20.9414342,16.5882383 20.9720852,16.5899555 21.002822,16.5899555 C22.1317131,16.5899555 23.1598509,16.471344 24.0586452,16.2373407 C24.2679217,16.1835083 24.4723902,16.1245675 24.6717073,16.060604 C24.5978703,16.2799258 24.5336063,16.4907048 24.4793876,16.691739 C24.3550237,17.152319 24.2919187,17.5888161 24.2919187,17.9889528 C24.2919187,18.4284978 24.3720233,18.8396671 24.5298286,19.2109558 C24.966111,20.2450178 25.8751652,20.8157095 27.0885826,20.8157095 C27.2739908,20.8157095 27.4377631,20.7952326 27.5821746,20.7590009 L31.662959,28.4444925 C30.9890243,28.3820744 30.4900662,28.0847945 30.1772461,27.5565591 L30.1772461,27.5565591 Z M21.936603,23.4204399 C21.9357444,23.420998 21.9348858,23.421599 21.9342848,23.4220282 C21.2265225,23.9250646 20.5208636,24.1800599 19.8368406,24.1800599 C18.6563495,24.1800599 17.8840226,23.8195033 17.4739265,23.0746078 C17.4052409,22.9518322 17.3525247,22.8169938 17.3174521,22.6739989 C17.2961596,22.587455 17.2518144,22.5082519 17.1891388,22.4448894 C17.0634441,22.317864 16.9558223,22.173753 16.866531,22.0116549 L16.8685486,22.0149175 C16.8637836,22.0053873 16.8589756,21.9959001 16.853953,21.9864988 C16.8421047,21.9643906 16.8286251,21.9432268 16.8135143,21.9231363 L16.7651768,21.8587435 C16.6892362,21.757604 16.5772358,21.6895193 16.4524855,21.6685702 L16.4030748,21.6600704 C16.3390254,21.6487802 16.2735165,21.6503256 16.2099823,21.6646208 C16.0971662,21.6899486 15.9785977,21.681921 15.8266736,21.648866 C15.4227163,21.5602187 15.1514511,21.4525539 15.0204762,21.3290057 C15.0107314,21.319819 15.0006861,21.3111045 14.9902545,21.3027334 C14.9340611,21.2386841 14.7768998,20.9854488 14.4544208,19.993285 C14.4296511,19.9170011 14.4120504,19.8647141 14.4044091,19.8452675 C14.3826873,19.7896751 14.3510919,19.7385472 14.3111254,19.6942879 C14.3050296,19.6875482 14.2985474,19.6812377 14.292151,19.6749272 L11.1828389,14.0362671 C11.1967048,14.0366534 11.2108283,14.037512 11.2245654,14.037512 C11.3930169,14.037512 11.5512943,14.008063 11.6937311,13.9519984 C11.7090995,14.3615793 11.8098957,14.7351862 11.9938014,15.0640186 C12.6652033,16.2825444 13.9909646,16.5384842 14.9854036,16.5384842 C15.8218657,16.5384842 16.6679008,16.2386285 17.5000271,15.6472024 L17.5053502,15.6434676 C17.6242193,15.5575677 17.7413282,15.4674607 17.8562049,15.3735331 C17.8927371,15.4198959 17.9311581,15.4649709 17.9707382,15.5092731 C17.9791522,15.5335706 17.9889399,15.5576106 18.0014321,15.5809637 L22.1171603,23.2844853 C22.0574467,23.330891 21.9973039,23.3764811 21.936603,23.4204399 L21.936603,23.4204399 Z M12.9739023,21.4424228 C12.7615349,21.7928483 12.5235393,22.131683 12.266655,22.449354 C12.010243,22.7661235 11.7343415,23.0654211 11.4465487,23.3388757 C11.1582838,23.6126308 10.8601023,23.8539749 10.5581002,24.0576278 C9.91284176,24.4972587 9.31742329,24.7201435 8.78824352,24.7201435 C8.25434161,24.7201435 7.70696015,24.4162955 7.16112411,23.8170993 C6.94618105,23.5810355 6.77077514,23.3347546 6.63975732,23.0849536 C6.63250241,23.0712164 6.62468942,23.0577798 6.61618957,23.0449442 L6.08499216,22.1192337 L3.44192657,17.0205714 C3.60582763,17.0584343 3.77084483,17.0785678 3.93684939,17.0785678 C4.61284468,17.0785678 5.34404603,16.8139994 6.11027705,16.2921604 C6.44421795,16.0670003 6.77425235,15.8001996 7.09110771,15.4991849 C7.40135207,15.2044377 7.69880373,14.8819158 7.97504871,14.5406771 C8.25253861,14.1974636 8.50920819,13.8319703 8.73836059,13.4539847 C8.97004577,13.0719639 9.1751582,12.6682641 9.34785961,12.2541757 C9.53043457,11.8160044 9.70279255,11.1253275 9.87485003,10.1423075 C9.95692934,9.69130059 10.0323977,9.20255947 10.0993661,8.68952082 C10.1668498,8.17236103 10.2230432,7.64910539 10.2663151,7.13426374 C10.3103598,6.61199546 10.337233,6.16721314 10.3461622,5.81262362 C10.3544474,5.48525079 10.3588261,5.20132161 10.3592124,4.96804807 C11.1329989,4.89017575 11.7692424,4.80809643 12.2572108,4.72309798 C12.679198,4.64964729 13.077961,4.55915399 13.4421665,4.45419377 C13.8373664,4.34034736 14.1881353,4.19954184 14.4845996,4.03564078 C14.8266969,3.84649775 15.104659,3.61541357 15.3108446,3.34878458 C15.3999642,3.23373616 15.4732432,3.10761219 15.5311108,2.97122831 C16.8319736,4.93576583 19.1547066,8.42950282 19.5798706,9.06888008 L19.6260187,9.05681717 C19.2584648,9.3394585 18.9161528,9.66095013 18.6009717,10.0211203 C18.1065211,10.5878196 17.7413712,11.1829376 17.5122617,11.7943684 C17.0914764,12.0896307 16.8163046,12.1535942 16.656954,12.1535942 C16.6112781,12.1535942 16.5743595,12.1514049 16.5450394,12.1483999 C16.5484737,12.1334178 16.5538397,12.114658 16.5622537,12.0918201 C16.6613327,11.8376833 16.8287539,11.590458 17.0608684,11.3549522 C17.1799091,11.3063571 17.3059902,11.2317044 17.4309122,11.1191029 C17.8774116,10.7369104 18.1455002,10.2180334 18.2065016,9.61742062 C18.2295113,9.39075807 18.158808,9.1646536 18.0108764,8.99143705 C17.8629018,8.81826343 17.6504915,8.71317443 17.4231421,8.70055345 C16.5421632,8.65165787 15.7695358,8.52016784 15.1159921,8.30844441 C15.1569889,8.14664685 15.1765213,8.00421005 15.1765213,7.87452301 C15.1765213,7.46601528 15.0291048,7.10897885 14.7500695,6.84149128 C14.2990196,6.40207503 13.6746244,6.17923312 12.8940982,6.17923312 C12.3073942,6.17923312 11.8311453,6.66097689 11.4040495,7.18307346 C10.8576125,7.83086471 10.6030464,8.37622853 10.6030464,8.89879732 C10.6030464,9.26514924 10.7072339,9.86795142 11.2880996,10.3784573 C10.9252249,11.0700356 10.406305,11.6480251 9.71485546,12.1335895 C9.37687928,12.3708983 9.26350508,12.8198877 9.44839819,13.1892446 C9.53614406,13.3645646 9.6667326,13.5007339 9.82213382,13.6096006 L13.4650903,20.2159123 C13.4686963,20.2567802 13.4731609,20.2986355 13.4776684,20.3411777 C13.4809739,20.3725155 13.4851379,20.411237 13.4887869,20.4465243 C13.3396532,20.7898665 13.166823,21.1243655 12.9739023,21.4424228 L12.9739023,21.4424228 Z M4.33123364,7.25609486 C4.29216869,7.15753099 4.24769475,7.04162401 4.19467804,6.90021749 C4.15423938,6.79250985 4.11586129,6.66775959 4.08048819,6.5288 C4.06700864,6.47539693 4.04442824,6.35167696 4.04215303,6.11750192 C4.05726387,6.09977244 4.08842997,6.06813413 4.14702739,6.02572076 C4.29650447,5.91749798 4.60408726,5.75303885 5.2199397,5.58424394 C5.521212,5.50173534 6.16024584,5.38007593 7.5150697,5.23497756 C7.30330334,5.98940324 6.96090553,6.69720855 6.49165396,7.34864873 C6.4906666,7.35002244 6.48963632,7.35143908 6.48864896,7.35285572 C6.18617466,7.77832021 5.84733991,8.16660861 5.48158899,8.50690293 C5.09179809,8.869563 4.69492399,9.2111881 4.30204225,9.52224811 C3.90181972,9.83918931 3.50893798,10.1377142 3.13417206,10.4097092 C3.07948114,10.4493752 3.02556293,10.489127 2.97233157,10.5289217 L2.45791921,9.42694681 C2.7123565,9.39238935 3.00912131,9.29232299 3.390026,9.11416967 C3.6821116,8.9767555 4.45336525,8.61379492 4.45336525,7.85314461 C4.45336525,7.6626708 4.41223974,7.46185122 4.33123364,7.25609486 L4.33123364,7.25609486 Z M1.88387914,12.7345458 C2.06387839,12.4574422 2.30247506,12.183172 2.59962623,11.911692 L2.60027015,11.9110481 C2.64916573,11.8664454 2.69969259,11.821628 2.75099216,11.7767248 C2.76361314,11.7656922 2.77636291,11.7546595 2.78915561,11.743584 C2.84092739,11.6987237 2.89347189,11.6538205 2.94764768,11.6087455 C2.94781939,11.6085738 2.94794818,11.608445 2.94811989,11.6083162 C3.00427038,11.5616529 3.06200923,11.514775 3.12073544,11.4677683 C3.131811,11.458925 3.14301534,11.4500388 3.15421968,11.4411526 C3.21264538,11.394704 3.27197259,11.3481695 3.33293108,11.3015062 C3.42698745,11.2294721 3.5238771,11.1571805 3.62390053,11.0845025 C4.00969908,10.8045657 4.40829032,10.501705 4.81967425,10.1759635 C5.23101526,9.85022194 5.64102548,9.49743542 6.04957613,9.1173893 C6.45808386,8.73730025 6.83104678,8.31024741 7.16825024,7.8359732 C7.93396612,6.77302031 8.39407392,5.59317307 8.54823021,4.29587342 C7.19641135,4.41796211 6.1875913,4.54090937 5.52125493,4.66462934 L5.52125493,4.66462934 C5.52116907,4.66462934 5.52104029,4.66467227 5.52086857,4.66467227 C5.46952607,4.67424533 5.42015828,4.68377546 5.37289399,4.69330559 C5.37220714,4.6934773 5.37152028,4.69360609 5.37083342,4.69373487 C5.34812424,4.69837115 5.32584434,4.70292158 5.30407959,4.70755785 C5.30167559,4.70803007 5.29935745,4.70854521 5.29691052,4.70906035 C5.27686291,4.71331028 5.25707286,4.7175602 5.23784089,4.72185305 C5.23359097,4.72275455 5.22959862,4.72365605 5.22539162,4.7246434 C5.20809143,4.72850697 5.19092003,4.73237053 5.17426376,4.73619117 C5.1676957,4.7377366 5.16142814,4.73928203 5.15490301,4.74078452 C5.14095124,4.74409002 5.12695654,4.74735259 5.11347699,4.75065808 C5.10270193,4.75331965 5.09248495,4.75589536 5.08205332,4.75855693 C5.07316712,4.76078921 5.06402334,4.76302149 5.05539471,4.76525378 C5.0362486,4.77019055 5.01757469,4.77517026 4.99950179,4.78010704 C4.99924422,4.78014997 4.99902958,4.78023583 4.99881493,4.78032168 C4.95030571,4.79358659 4.90317021,4.807152 4.8566357,4.82080327 C4.84478743,4.82428048 4.83293916,4.82775769 4.82121968,4.83127783 C4.77696038,4.84449981 4.73334501,4.85785058 4.69088871,4.87141599 C4.68895693,4.87205991 4.68689636,4.87261799 4.68496458,4.87326191 C4.63971793,4.88777175 4.59580206,4.90253916 4.55261597,4.91739242 C4.54398734,4.92039742 4.53544457,4.92335949 4.52681594,4.92636448 C4.48526114,4.94091725 4.44439319,4.9555988 4.40472725,4.97049499 C4.40382575,4.97083842 4.40296718,4.97113892 4.40206568,4.97148235 C4.35969524,4.98745176 4.31865558,5.00363581 4.27851742,5.0200345 C4.27358064,5.02205214 4.26872972,5.02406978 4.26379294,5.02608742 C4.18343077,5.05922823 4.10753316,5.09318468 4.03627183,5.12795678 C4.03403954,5.12907292 4.03189312,5.13014613 4.02966083,5.13126227 C3.99385846,5.14882003 3.95912929,5.16659244 3.92564505,5.18457949 C3.8263514,5.23793963 3.73701716,5.29314569 3.65807163,5.35024062 C3.3582589,5.56728717 3.20818082,5.81026256 3.20818082,6.0787804 C3.20818082,6.34734118 3.229688,6.56589023 3.2724448,6.7344705 C3.31533039,6.90305077 3.36242296,7.05600506 3.41393718,7.19294702 C3.46540847,7.3302324 3.51237226,7.45305087 3.55542956,7.56174587 C3.59818636,7.67022622 3.61956475,7.76733051 3.61956475,7.85314461 C3.61956475,8.0073009 3.42535616,8.17596702 3.03672434,8.35888542 C2.6823924,8.52458947 2.42379104,8.60722686 2.26092026,8.60722686 C2.19287857,8.60722686 2.12621059,8.59640888 2.06065875,8.57601783 C2.03885107,8.56923513 2.0172151,8.5612075 1.99570791,8.55223544 C1.99364734,8.55137687 1.99154385,8.55047537 1.98948328,8.54957387 C1.97042302,8.54141745 1.95144862,8.53218782 1.93264593,8.52227133 C1.92878236,8.52021077 1.92496172,8.51832191 1.92114109,8.51621841 C1.90392675,8.50677414 1.88679828,8.49629958 1.86975566,8.48539574 C1.8651623,8.48243367 1.86056895,8.47981504 1.85601853,8.47672418 C1.83528406,8.4629012 1.81467837,8.44809086 1.79420147,8.43199267 C1.79411562,8.43190682 1.79398683,8.43182096 1.79385805,8.4317351 C1.75887131,8.404175 1.72401336,8.37438261 1.68932712,8.34283015 C1.66876436,8.32419918 1.64833039,8.3049672 1.62789642,8.28487666 L1.62703785,8.28401809 C1.5906774,8.24825864 1.55453159,8.21035276 1.51855749,8.1702146 C1.50039873,8.14995235 1.48232583,8.12917495 1.46429586,8.10775362 C1.4282359,8.06508268 1.39230474,8.02013652 1.35658822,7.97295809 C1.2258709,7.79944104 1.11966576,7.6278987 1.03801573,7.45837401 C1.02440739,7.43008412 1.01144298,7.40192301 0.99920835,7.37376191 C0.979160735,7.32778547 0.961431259,7.28189489 0.945032568,7.23621896 C0.871195526,7.03024795 0.83384772,6.82723902 0.83384772,6.62727801 C0.83384772,6.58606663 0.835092647,6.5456709 0.837067359,6.50566153 C0.837367858,6.49947982 0.837625429,6.49325519 0.837968857,6.48715934 C0.840244068,6.44736461 0.843463707,6.40812795 0.847670701,6.36949229 C0.848014129,6.36631558 0.848443414,6.3631818 0.848786842,6.36004802 C0.858188187,6.27762527 0.871925311,6.19782117 0.890255786,6.12080742 C0.94292907,5.89869529 1.03252088,5.69877721 1.15958927,5.52152538 C1.37676462,5.21870765 1.66953707,4.95594223 2.03816421,4.73297153 C2.40666256,4.51004377 2.83955368,4.32463552 3.33670879,4.17588823 C3.83390682,4.02731265 4.36235681,3.90161796 4.92244511,3.79871832 C4.93279088,3.79678653 4.9433513,3.79515525 4.95369707,3.79326639 L4.95365414,3.79330932 C5.22869712,3.74312589 5.50756074,3.69779338 5.79015913,3.65726887 C5.79320706,3.65683958 5.79638377,3.65645323 5.79943169,3.65602394 C5.93731807,3.63627682 6.0760201,3.61768878 6.21570948,3.6002598 C6.34926008,3.58360354 6.48371218,3.5681922 6.618937,3.55359651 C6.62923984,3.55248037 6.63932804,3.55114958 6.64971674,3.55003344 C6.78043406,3.53616753 6.91033574,3.52281677 7.03985106,3.50959478 C7.36263055,3.4767974 7.68154647,3.44601766 7.99651296,3.41742727 C8.12671514,3.405579 8.25644511,3.39403123 8.38535943,3.38295567 C8.52071303,3.37136497 8.65417777,3.35986013 8.78605417,3.34839822 C9.20563745,3.31203777 9.60787761,3.2764071 9.99264587,3.24146329 C9.99290344,3.24142037 9.99316101,3.24137744 9.99346151,3.24137744 C10.0496549,3.23631187 10.1049039,3.23111752 10.1595519,3.22583732 C10.1849656,3.22334746 10.2098641,3.22085761 10.2349344,3.21836776 C10.2620223,3.21566326 10.2891102,3.21295876 10.3158117,3.21021134 C10.348652,3.20681999 10.381063,3.2033857 10.4133453,3.19990849 C10.4293576,3.19819135 10.4451982,3.19647421 10.4609959,3.19475707 C10.4986442,3.19067886 10.5361638,3.1865148 10.5730394,3.18226488 C10.573254,3.18226488 10.5734686,3.18222195 10.5736833,3.18217902 L10.5736404,3.18217902 C10.8479106,3.15079828 11.1016611,3.11632668 11.334076,3.07859252 C12.1739724,2.94160764 12.6168229,2.75873217 12.6625847,2.53009491 C12.7083036,2.30162937 12.771108,2.08874688 12.8512984,1.89157622 C12.9311025,1.69436263 13.0254594,1.51857037 13.1339827,1.36445701 C13.3740819,1.02154406 13.6340569,0.849958791 13.9139938,0.849958791 C14.1940165,0.849958791 14.4226108,0.99024917 14.5997768,1.27005721 C14.7712332,1.5387897 14.8568756,1.82293353 14.8568756,2.12291797 C14.8568756,2.1556295 14.8557166,2.18731074 14.8540853,2.2185627 C14.8535701,2.22830747 14.8529262,2.23796639 14.8522823,2.24758237 C14.8506939,2.2705062 14.8485046,2.29287195 14.8460147,2.31498014 C14.8441688,2.33116419 14.8420653,2.34713359 14.8397042,2.36284543 C14.8372144,2.37971633 14.8345957,2.3963726 14.8315478,2.41268543 C14.8284569,2.42912705 14.8251085,2.4453111 14.8214596,2.46123758 C14.8198712,2.46836371 14.8180682,2.47531813 14.8163511,2.48235841 C14.8020988,2.53983969 14.7844123,2.59427304 14.7627763,2.64514333 C14.7326405,2.71597537 14.6959796,2.78096914 14.651248,2.83866506 C14.5141773,3.01595982 14.3240469,3.17161861 14.0812433,3.30585606 C13.9552481,3.37548611 13.8163314,3.44005059 13.6650513,3.4996783 C13.5948632,3.52732426 13.5220135,3.55393994 13.4465023,3.5794824 C13.4447422,3.5800834 13.4429392,3.5806844 13.4411791,3.58119954 C13.4052909,3.59330538 13.3688446,3.60519658 13.3317544,3.61678728 C13.2983989,3.62721891 13.2644424,3.63730711 13.2301855,3.64726652 C13.2237462,3.64915538 13.2176504,3.65113009 13.2112111,3.65297602 C12.8739218,3.7502091 12.5084284,3.83297527 12.1140871,3.90161796 C12.1121982,3.90196139 12.1101806,3.90230482 12.1082917,3.90264824 C12.0737772,3.90857238 12.0385329,3.91458237 12.0025588,3.92054943 C11.9893798,3.92269586 11.9758144,3.92488521 11.9624207,3.92703164 C11.9373075,3.93115278 11.9121084,3.93518806 11.8862655,3.93926627 C11.8695234,3.94192783 11.8524378,3.94454647 11.8353952,3.94720804 C11.8123855,3.95072818 11.7892041,3.95429125 11.7656364,3.95785431 C11.746619,3.96068759 11.7273871,3.96352088 11.7079834,3.96639709 C11.6855318,3.96970258 11.6627796,3.97296515 11.6398987,3.97627064 C11.6192931,3.97927564 11.5987303,3.98219478 11.5776953,3.98511392 C11.5556301,3.98829063 11.5329638,3.99138148 11.5104264,3.99447233 C11.487846,3.99756319 11.4654373,4.00069697 11.4424276,4.00378782 C11.4243976,4.00623475 11.4058096,4.00859581 11.3874791,4.01104274 C11.325662,4.01919916 11.262643,4.02735557 11.1978209,4.03542613 C11.190566,4.03637056 11.1835257,4.03727206 11.1762279,4.03817356 C11.1422285,4.04238055 11.1074993,4.04658755 11.0727272,4.05083747 C11.0589901,4.05246875 11.0454247,4.05414297 11.0315588,4.05577425 C10.9967438,4.05998124 10.9614136,4.06405945 10.9258259,4.06822352 C10.91196,4.0698548 10.8980941,4.07144316 10.8840994,4.07307444 C10.8471808,4.07732436 10.8097901,4.08153136 10.7719701,4.08578128 C10.759993,4.08711206 10.7478872,4.08848578 10.7358243,4.08981656 C10.6949563,4.09436698 10.6538308,4.0989174 10.6119326,4.10338197 C10.606867,4.10394004 10.6016727,4.10449811 10.5965642,4.10505618 C10.3988355,4.1263058 10.1904175,4.14734077 9.97105283,4.16807524 C9.82161867,4.18224165 9.66776288,4.19627927 9.50824053,4.21023104 C9.51970244,4.46162041 9.52541194,4.70305036 9.52541194,4.9345209 C9.52541194,5.16586265 9.52116201,5.45168069 9.51261924,5.79158865 C9.50403354,6.13158247 9.47827643,6.55593082 9.43539085,7.06441905 C9.39263405,7.57312192 9.33815776,8.07890566 9.27252007,8.5816844 C9.2069253,9.08454899 9.13407562,9.55598992 9.05397101,9.99596424 C8.89397645,10.9103845 8.73548438,11.5559864 8.57832309,11.9331992 C8.42103302,12.3102404 8.23661213,12.6732868 8.02531799,13.0217375 C7.81398093,13.37036 7.58096496,13.701811 7.3268711,14.0160907 C7.07247673,14.3303703 6.80245639,14.6233145 6.51676714,14.8946656 C6.23112081,15.1660596 5.93955036,15.401823 5.64257091,15.6018699 C5.01383991,16.0303394 4.44529469,16.2447244 3.93684939,16.2447244 C3.56023755,16.2447244 3.17740108,16.0828839 2.78812532,15.7593746 C2.72326034,15.7054564 2.65813779,15.6470307 2.59292938,15.5840975 C2.59245716,15.5836682 2.59198495,15.5832389 2.59151274,15.5827667 C2.56120521,15.5535753 2.53085475,15.523139 2.50046136,15.49193 C2.49792858,15.4893113 2.49530994,15.4868644 2.49273423,15.4842029 C2.45980806,15.4502464 2.42683896,15.4151309 2.39382694,15.3788992 C2.39382694,15.3788992 2.39382694,15.3788563 2.39378401,15.3788563 C2.36424919,15.3464023 2.33578759,15.3138625 2.30792698,15.2812798 C2.29732364,15.2688734 2.28714958,15.2564671 2.27676088,15.2440178 C2.26040512,15.2244424 2.24430693,15.204867 2.22855216,15.1852487 C2.21558775,15.1690217 2.20279506,15.1527947 2.190217,15.1365248 C2.17875509,15.1217145 2.16755075,15.1069042 2.15647519,15.0921367 C2.14183657,15.0726472 2.12724087,15.0531577 2.11324618,15.0336252 C2.1074079,15.0255546 2.10187012,15.0174411 2.09616063,15.0092847 C2.01760145,14.8977564 1.94835776,14.7855842 1.88890177,14.6727681 C1.70602631,14.3256052 1.61385879,13.9724753 1.61385879,13.6131636 C1.61385879,13.3045935 1.70387988,13.011821 1.88387914,12.7345458 L1.88387914,12.7345458 Z M21.9970034,8.74451224 C21.9628323,8.48741338 22.0571033,8.27611924 22.2799881,8.11020054 C22.4398539,7.99008656 22.7041648,7.93024422 23.0729636,7.93024422 C23.441462,7.93024422 23.7971247,7.9645441 24.1399947,8.03314386 C24.4829077,8.10165777 24.828611,8.25323835 25.1772335,8.48741338 C25.9315304,8.98439677 26.3085715,9.65309421 26.3085715,10.4931193 C26.3085715,11.4017013 26.0827675,12.2646503 25.631503,13.0817945 C26.3462627,12.9280246 26.9957282,12.5372463 27.5805862,11.9119925 C27.742856,11.6398258 27.9086459,11.3722094 28.0786858,11.1102596 C28.3899604,10.6302759 28.700076,10.1902587 29.0086032,9.79020788 C29.8316716,8.72163135 30.4831547,8.15600527 30.9630096,8.09307207 C31.0316094,8.08161015 31.0915376,8.07590066 31.1430088,8.07590066 C31.1944801,8.07590066 31.2572416,8.07890566 31.3316367,8.08452929 C31.5202217,8.10165777 31.6602116,8.17313374 31.7517352,8.29869964 C31.6545021,8.51025135 31.5385951,8.75743373 31.4044864,9.0402897 C31.2700772,9.32314566 31.1287136,9.63587988 30.9801381,9.97879284 C32.1000571,9.12172508 33.2888335,8.54463709 34.5460379,8.24731421 C34.9574218,8.14454335 35.3487581,8.09307207 35.7203903,8.09307207 C36.4630535,8.09307207 36.6545576,8.43598502 36.2944733,9.12172508 C36.1231885,9.4531332 35.88867,9.82030077 35.5916906,10.223099 C35.2944106,10.6260689 35.0716546,10.9388032 34.9232078,11.1617309 C34.5687471,11.6875193 34.3915811,12.0817319 34.3915811,12.3445402 C34.3915811,12.8132767 34.6459755,13.0474946 35.1545496,13.0474946 C35.6002334,13.0474946 36.1030121,12.8474478 36.6632292,12.4474828 C36.9314465,12.2545621 37.176783,12.0387604 37.4005264,11.8013658 C37.4838077,11.6436464 37.5737,11.4861417 37.6702462,11.3288087 C37.9244689,10.9145915 38.2088274,10.5144977 38.5230641,10.1289138 C38.8373866,9.74307237 39.1489618,9.40166191 39.4575319,9.10455368 C40.1374766,8.45882299 40.6373362,8.13578594 40.9574971,8.13578594 C41.0946108,8.13578594 41.2475651,8.19451214 41.4161453,8.31162112 C41.5845539,8.42873011 41.6917464,8.51600377 41.7375082,8.57305576 C40.8745592,9.49876621 40.3287661,10.3932247 40.1002576,11.255959 C40.0259054,11.5189391 39.9889011,11.7745784 39.9889011,12.0232203 C39.9889011,12.2716905 40.0830862,12.4946183 40.2718429,12.6916602 C40.4602991,12.8888308 40.694517,12.9873947 40.9746685,12.9873947 C41.2544765,12.9873947 41.5160829,12.9347644 41.7590153,12.8289456 C42.0017761,12.7232556 42.2403728,12.5846823 42.4745907,12.4131829 C42.5179485,12.3805573 42.560276,12.3464291 42.6026035,12.3123009 C42.7102253,11.7361574 42.9899904,11.1583396 43.4431868,10.5787617 C43.9974368,9.86451714 44.697472,9.27888637 45.5432496,8.82156892 C46.4060698,8.35317592 47.2118379,8.11878625 47.9605112,8.11878625 C48.3661427,8.11878625 48.6804653,8.18730015 48.903393,8.32454261 C49.2918961,8.56447006 49.4861905,8.79315025 49.4861905,9.01019681 C49.4861905,9.24458649 49.374791,9.40166191 49.1518633,9.4815948 C48.7176414,9.25312926 48.3333883,9.13872477 47.9990181,9.13872477 C47.6646908,9.13872477 47.3617443,9.21462238 47.090479,9.36590246 C46.8189562,9.51744011 46.5805312,9.71598448 46.3746032,9.96166436 C45.9403383,10.4817004 45.7233347,11.0588313 45.7233347,11.6931001 C45.7233347,12.1730838 45.8947482,12.5502966 46.2376183,12.8245239 C46.5517691,13.0874611 47.0146244,13.2189511 47.6261839,13.2189511 C48.237443,13.2189511 48.8389573,13.0374923 49.4304693,12.6746605 C49.599393,12.5710311 49.7616628,12.4528918 49.9186524,12.3234194 C50.0847428,11.8215422 50.3685861,11.3285511 50.7719424,10.8445751 C51.4348445,10.0446022 52.3033742,9.39311914 53.377746,8.89021162 C54.4919127,8.3703044 55.6434271,8.11020054 56.8320747,8.11020054 C57.2835109,8.11020054 57.6062045,8.18171944 57.8007136,8.32454261 C57.954827,8.14171007 58.0933144,8.03451758 58.2164333,8.00305098 C58.3392947,7.97175609 58.4350253,7.95591547 58.5034963,7.95591547 C58.7206716,7.95591547 58.9520563,7.987425 59.197865,8.0503582 C59.1749412,8.12453867 59.1262173,8.25173585 59.0521227,8.4317351 C58.9778134,8.61160557 58.8948326,8.82461685 58.8034807,9.0702538 C58.7119572,9.31606246 58.6150246,9.58458031 58.512082,9.87602198 C58.1406216,10.916051 57.954827,11.6945596 57.954827,12.2117623 C57.954827,12.729008 58.1176548,12.9873947 58.4433964,12.9873947 C58.8664139,12.9873947 59.3378119,12.7960623 59.8577621,12.4131829 C59.8845065,12.3930495 59.9104354,12.3715852 59.9367935,12.3508507 C59.945508,11.8869223 60.0184006,11.4190015 60.1578753,10.9473889 C60.3062792,10.444696 60.5063261,9.94599545 60.7578442,9.45167363 C61.0092336,8.95752352 61.3021348,8.47311819 61.6364621,7.99884398 C61.9707464,7.52456977 62.3250783,7.07884303 62.6992862,6.66157789 C63.073494,6.24448446 63.4549139,5.86023134 63.8435457,5.50877561 C64.2322204,5.15727695 64.6093904,4.8529138 64.9751842,4.59585787 C65.7578998,4.05877924 66.3750401,3.79008969 66.8266051,3.79008969 C66.9345703,3.79008969 67.0331342,3.80601616 67.1227689,3.83696762 C67.1114358,4.00657817 67.1883207,4.17593116 67.3355226,4.27651266 C67.411549,4.34850378 67.5495212,4.52931867 67.7369471,4.79770773 C67.7641638,4.97332828 67.7780297,5.17148629 67.7780297,5.39299741 C67.7780297,6.80461569 66.9207903,8.29599514 65.206483,9.86743627 C64.5550858,10.4674052 63.8694316,10.984565 63.1493058,11.4188298 C63.2235721,12.2989072 63.5463945,12.8018147 64.1179447,12.9275524 C64.3008631,12.9675617 64.516536,12.9873947 64.7650491,12.9873947 C65.0136911,12.9873947 65.2822089,12.9546403 65.5709461,12.8888308 C65.8593399,12.8231931 66.1465316,12.7160436 66.4322208,12.567468 C67.0664896,12.2417264 67.5951543,11.7560333 68.018086,11.1102596 C68.0360301,11.1090576 68.0533303,11.1084566 68.0699865,11.1084566 C68.1673484,11.1084566 68.2433748,11.1288477 68.2981516,11.1695868 C68.2845003,11.2769511 68.3057499,11.3895096 68.3667513,11.488932 L68.3894605,11.5259364 C68.3649913,11.6321416 68.3086691,11.7901614 68.2195065,12.0016702 C68.0963876,12.2932407 67.8694245,12.6717843 67.5379735,13.1375157 C67.2064795,13.6032042 66.8094337,14.0247193 66.3465785,14.4017604 C65.2837544,15.2703759 64.1036495,15.7046408 62.8064358,15.7046408 C61.3093897,15.7046408 60.4035123,15.0647913 60.0892326,13.7845772 C60.0873438,13.7772364 60.0857554,13.7695951 60.0839095,13.7622544 C59.9527629,13.9141354 59.8149194,14.064514 59.669263,14.2130896 C59.3950356,14.4932411 59.103594,14.7446304 58.7950668,14.9675582 C58.1035313,15.4590038 57.4292103,15.7046408 56.7720606,15.7046408 C55.937702,15.7046408 55.3776137,15.4532943 55.0919245,14.9503868 C55.0005297,14.7961017 54.9549825,14.6603188 54.9549825,14.5432528 L54.9549825,14.3332036 C54.1719235,15.247538 53.2176227,15.7046408 52.0920371,15.7046408 C51.3776637,15.7046408 50.8062423,15.4902987 50.3776011,15.0617863 C50.0880053,14.7722764 49.8977462,14.4197904 49.8064802,14.0044141 C49.5965597,14.219443 49.3727305,14.4204772 49.1348636,14.6075168 C48.0947487,15.424661 46.9631531,15.8331687 45.7402915,15.8331687 C44.7516907,15.8331687 43.9746847,15.5789461 43.4090586,15.0703291 C43.0383709,14.7368604 42.7887416,14.3079187 42.6585394,13.784706 C42.5190217,13.937231 42.3710042,14.0886828 42.2132849,14.2388896 C41.9131287,14.5246647 41.5860993,14.7789303 41.2318961,15.0016864 C40.4374182,15.5047656 39.6204027,15.756155 38.7803347,15.756155 C37.8945477,15.756155 37.2945359,15.4074896 36.9802563,14.7102876 C36.8768415,14.4886906 36.8182011,14.2233066 36.8039059,13.9145647 C36.701178,14.0247193 36.5952734,14.1343587 36.4832299,14.2432254 C36.18595,14.5317479 35.8602514,14.7903493 35.5060482,15.0188578 C34.7230321,15.5160558 33.9059738,15.7647407 33.0544867,15.7647407 C32.5074058,15.7647407 32.068891,15.6446696 31.7371824,15.4064164 L31.5820817,15.1248053 C31.5144263,15.0020727 31.4019966,14.9199076 31.2764307,14.8866809 C31.2568123,14.8516941 31.237795,14.8159776 31.2201085,14.7789303 C31.1174235,14.5675933 31.0659522,14.3074894 31.0659522,13.9989192 C31.0659522,13.6903491 31.1529683,13.3617743 31.327258,13.0131947 C31.5015907,12.6647011 31.7115111,12.3288713 31.9573627,12.006006 C32.2030426,11.6831836 32.4600985,11.3818254 32.7287881,11.1017169 C32.997263,10.8217371 33.2243978,10.5787617 33.4101924,10.3731771 C33.5959441,10.1674207 33.7145126,10.004507 33.7660268,9.88456475 C33.8174981,9.76445077 33.7488554,9.7045655 33.5602705,9.7045655 C33.3716426,9.7045655 33.1302126,9.76595327 32.8359806,9.88877175 C32.541491,10.0117619 32.2344663,10.1731302 31.9146059,10.3731771 C31.1944801,10.8188609 30.6058014,11.3188922 30.1486557,11.8730993 C28.5086148,15.7132265 27.6801375,18.3018587 27.662966,19.638996 C27.662966,19.8675045 27.4715049,19.981866 27.0885826,19.981866 C26.2029244,19.981866 25.6057888,19.6161151 25.2972187,18.8846991 C25.182943,18.6160525 25.1257622,18.3175705 25.1257622,17.9889528 C25.1257622,17.6603779 25.1787789,17.3002936 25.284426,16.9089573 C25.390073,16.5174492 25.5358153,16.0888939 25.7215241,15.6232054 C25.8732334,15.2428158 26.0480813,14.8443963 26.2435348,14.4296639 C25.5658653,14.8599794 24.7679101,15.1938344 23.8485531,15.4304134 C23.0142804,15.6475888 22.0656461,15.756155 21.002822,15.756155 L20.9599364,15.7475263 L20.7884799,15.756155 C20.0233221,15.756155 19.4127499,15.5953877 18.9554754,15.2753556 L18.8706486,15.116606 C18.7955237,14.9761439 18.662016,14.8872819 18.516102,14.8631131 C18.3170854,14.6116379 18.1825046,14.3172342 18.1122306,13.979859 C18.0404112,14.0580318 17.9670893,14.1358612 17.8914063,14.2130896 C17.6170073,14.4932411 17.3256085,14.7446304 17.0170384,14.9675582 C16.325503,15.4590038 15.6483486,15.7046408 14.9854036,15.7046408 C13.8596892,15.7046408 13.1053923,15.35619 12.7225988,14.6589881 C12.5910658,14.4245984 12.525471,14.1518306 12.525471,13.8402984 C12.525471,13.5290237 12.589735,13.2217844 12.718263,12.9189667 C12.8468339,12.616106 13.0226261,12.321831 13.2453822,12.0359701 C13.7026567,11.4417107 14.2826209,10.9504368 14.9854036,10.5616333 C14.2998352,10.5274622 13.716866,10.4559433 13.2369682,10.347377 C12.6482895,11.3703635 12.0712015,12.2818217 11.5053608,13.0817945 C11.4549627,13.1630582 11.3613786,13.2037544 11.2245654,13.2037544 C11.159357,13.2037544 11.0844038,13.1945248 10.99962,13.1760226 C10.8710491,13.1478186 10.7580612,13.1182408 10.6596262,13.0874181 L10.6049782,12.9883821 C10.5352193,12.8620005 10.4180245,12.7787621 10.2879082,12.747639 C11.2547012,12.0434826 11.9383807,11.1494963 12.3368432,10.0646069 C11.7368743,9.79020788 11.4368898,9.40166191 11.4368898,8.89879732 C11.4368898,8.5902701 11.6396412,8.19601464 12.0454444,7.71585923 C12.428195,7.24746623 12.711051,7.01307655 12.8940982,7.01307655 C13.4540148,7.01307655 13.8796939,7.15589971 14.1711356,7.44163189 C14.2854971,7.55028395 14.3427208,7.69452376 14.3427208,7.87452301 C14.3427208,8.05452226 14.2454448,8.35588042 14.0513221,8.77885505 C14.9312707,9.20736747 16.0398566,9.45888562 17.3769081,9.53315195 C17.3368987,9.92727862 17.1712805,10.2474824 16.8798818,10.4931193 C16.7998201,10.5674715 16.7197584,10.6045188 16.6397826,10.6045188 C16.2339794,10.9702698 15.9482901,11.3673585 15.782629,11.7960426 C15.7312436,11.9331992 15.7055294,12.0646893 15.7055294,12.1902552 C15.7055294,12.7217531 16.0226423,12.9873947 16.656954,12.9873947 C17.0855093,12.9873947 17.5597836,12.7960623 18.0798196,12.4131829 C18.126998,12.3776381 18.1731891,12.3406767 18.2191655,12.3033289 C18.402599,11.7088977 18.7390298,11.1312088 19.2284578,10.570219 C19.9884642,9.70164636 20.9112984,9.09313469 21.9970034,8.74451224 L21.9970034,8.74451224 Z M40.8018812,5.91784141 C40.8007651,5.91522277 40.7995202,5.91273292 40.798447,5.91011428 C40.7883158,5.88676117 40.7793438,5.86306463 40.7716166,5.8389388 C40.7710586,5.83730752 40.7706293,5.83563331 40.7701141,5.83400202 C40.762387,5.8092752 40.755776,5.78420495 40.7505817,5.75874834 C40.7400212,5.7068907 40.7345693,5.65357349 40.7345693,5.59858206 C40.7345693,5.31881694 40.7845381,5.08172277 40.8846474,4.88725661 C40.984585,4.69309095 41.1289106,4.52721517 41.3175385,4.39023029 C41.72317,4.09307913 42.2102799,3.94437476 42.7789539,3.94437476 C43.0722415,3.94437476 43.3241031,3.97579843 43.5352684,4.03813063 C43.6095347,4.0600671 43.6788643,4.08578128 43.7430424,4.11540195 C43.7433858,4.11553074 43.7436863,4.11570245 43.7439868,4.11583124 C43.764936,4.12553308 43.785327,4.13557835 43.80516,4.14605291 C43.8070918,4.14712612 43.8088948,4.14819934 43.8108265,4.14927255 C43.8289853,4.15893146 43.8467577,4.16893381 43.864015,4.17936544 C43.8684366,4.18198408 43.8725148,4.18490321 43.8768935,4.18760771 C43.8914034,4.19666563 43.9058703,4.20576647 43.9197362,4.21533953 C43.9276779,4.22083438 43.9351046,4.22662973 43.9428317,4.23229629 C43.9527482,4.23950828 43.9628364,4.24659149 43.9724095,4.25414691 C43.9894521,4.26758353 44.0060225,4.28149237 44.021949,4.29587342 C44.0476631,4.31905482 44.071746,4.3426655 44.0948845,4.36653375 C44.0983617,4.37009682 44.1019248,4.37361696 44.1053161,4.37722295 C44.1272097,4.4001897 44.1478154,4.42349989 44.1673049,4.44711057 C44.1707392,4.45127463 44.1740876,4.45539577 44.177436,4.45955984 C44.1967968,4.48364273 44.2152131,4.5079832 44.2321699,4.53266709 C44.2339729,4.53532866 44.2356042,4.5379473 44.2374072,4.54060887 C44.2550079,4.56658062 44.2714495,4.5928958 44.2863457,4.61964026 C44.2863457,4.61964026 44.2865174,4.6198549 44.2865603,4.61994076 C44.3015424,4.64681401 44.3148931,4.67411654 44.3271707,4.70167665 C44.3285444,4.70459579 44.3298752,4.70755785 44.331163,4.71051992 C44.3428825,4.73752196 44.3533141,4.76482449 44.3624579,4.79247045 C44.3634023,4.79538959 44.3643468,4.79839459 44.3652483,4.80131373 C44.374392,4.82986119 44.3823767,4.85875208 44.388859,4.88807225 L44.3889877,4.88867325 C44.3957275,4.91953885 44.4009648,4.95083374 44.4046996,4.98247205 C44.4092929,5.02157992 44.4118257,5.0612888 44.4118257,5.10159867 C44.4118257,5.40445933 44.331764,5.64168229 44.1718553,5.81296705 C44.011732,5.98455232 43.8146901,6.12874919 43.5803433,6.24585817 C43.3461254,6.36296715 43.0932335,6.45161453 42.8218395,6.51171445 C42.5504883,6.57159973 42.3147249,6.60173554 42.1146781,6.60173554 C41.9146741,6.60173554 41.734632,6.57730922 41.5746374,6.5288 C41.5317947,6.51587852 41.4903687,6.50106818 41.4500159,6.48501292 L41.449973,6.48501292 C41.4194079,6.47282122 41.3897014,6.45959924 41.36051,6.4456904 C41.3481895,6.43980919 41.3362124,6.43345577 41.3241495,6.42727407 C41.3033292,6.41654194 41.2828094,6.40542345 41.2627617,6.39383276 C41.2524589,6.38786569 41.2422419,6.38198449 41.2321966,6.37584571 C41.2027477,6.35768695 41.1738139,6.33888426 41.146082,6.31870786 C41.1214411,6.30072081 41.0982168,6.28226155 41.0757222,6.26363058 C41.0711718,6.25985287 41.0665355,6.25603223 41.0620709,6.25221159 C41.0404779,6.23379526 41.0198293,6.21512136 41.0003827,6.1960611 C40.9975065,6.19322782 40.9947161,6.19030868 40.9918399,6.18738954 C40.9735524,6.16905906 40.9561663,6.15051395 40.9398105,6.1316254 C40.9378788,6.12939312 40.9358182,6.12720376 40.9338864,6.12492855 C40.9165862,6.10453751 40.900531,6.08380304 40.885463,6.06276807 C40.8830591,6.05941964 40.880698,6.05602829 40.8783369,6.05263694 C40.8480723,6.00910743 40.8226157,5.96416127 40.8018812,5.91784141 L40.8018812,5.91784141 Z M42.7754337,10.0793314 C42.3323256,10.6486064 42.0250863,11.2347953 41.8606701,11.8251911 C41.7164732,11.9212651 41.5708168,12.0014556 41.4262335,12.0643458 C41.2883471,12.1244457 41.140716,12.1535942 40.9746685,12.1535942 C40.9136242,12.1535942 40.899887,12.1419177 40.8746451,12.1155166 C40.8227445,12.0612979 40.8227445,12.0392756 40.8227445,12.0232203 C40.8227445,11.8522361 40.8495748,11.6704767 40.9026345,11.4828362 C40.9038794,11.4783716 40.9051243,11.4739071 40.9063263,11.4694425 C41.0868407,10.7876948 41.5267721,10.0541753 42.2145727,9.28704279 L42.7754337,10.0793314 Z M44.7814402,6.38189863 C44.887259,6.26852443 45.0032518,6.11033286 45.0928007,5.89968265 L46.3415053,7.56410693 C45.9500402,7.6941374 45.550805,7.86868473 45.1454311,8.08877921 C44.5102179,8.43220732 43.9427029,8.8466821 43.4493255,9.32572137 L42.1113297,7.43545018 C42.1124458,7.43545018 42.1135619,7.43553604 42.1146781,7.43553604 C42.3774006,7.43553604 42.6675544,7.3996478 43.0016241,7.32593955 C43.3388705,7.25124394 43.6589025,7.13881416 43.9532204,6.99169815 C44.275313,6.83071623 44.5540479,6.62551794 44.7814402,6.38189863 L44.7814402,6.38189863 Z M50.0034362,9.88598139 L50.2251619,10.2010767 C50.1932231,10.238124 50.1610267,10.2750425 50.1298606,10.3126049 C49.7281356,10.7945634 49.421626,11.2987587 49.2172863,11.8134287 C49.1422044,11.8686347 49.0676375,11.9190328 48.9943586,11.963979 C48.5324478,12.2473072 48.0848751,12.3851077 47.6261839,12.3851077 C47.2299108,12.3851077 46.9268785,12.3141039 46.772851,12.1851467 C46.7681288,12.1811972 46.7632779,12.1772478 46.7584699,12.1734272 C46.6538961,12.0897595 46.5571781,11.9736808 46.5571781,11.6931001 C46.5571781,11.2563024 46.706784,10.8647515 47.0146673,10.4961243 C47.1552152,10.3284026 47.3133209,10.1964404 47.4968833,10.09397 C47.6432695,10.01232 47.8075998,9.9725682 47.9990181,9.9725682 C48.1336848,9.9725682 48.3756299,10.0154109 48.7636607,10.2195789 C48.8845904,10.2831989 49.0180122,10.3154382 49.1519062,10.3154382 C49.2468641,10.3154382 49.3421224,10.2992542 49.4333455,10.2665427 C49.6652454,10.1833472 49.8574363,10.0524582 50.0034362,9.88598139 L50.0034362,9.88598139 Z M59.5849085,9.36122325 C59.6575006,9.16611317 59.7246837,8.99208098 59.7855563,8.8414019 L59.9792068,9.14520698 C59.7223656,9.65991984 59.513132,10.1863093 59.3581601,10.711282 C59.2414804,11.1057951 59.164209,11.5047727 59.1273334,11.9022048 C59.0007373,11.9805923 58.8901963,12.0358842 58.7943799,12.0742623 C58.8194072,11.7494223 58.9350137,11.1707888 59.2973304,10.1564739 C59.403836,9.85502993 59.4975919,9.59578465 59.5849085,9.36122325 L59.5849085,9.36122325 Z M68.5628917,6.04370781 C69.5925321,7.64515597 71.0806919,10.0795031 72.43895,12.3628278 C72.4487377,12.3969559 72.4624319,12.4301826 72.4797321,12.4619926 C72.4836386,12.4692476 72.4879315,12.4765883 72.4923531,12.4838003 C72.6611909,12.7713784 72.7431844,13.1820326 72.7431844,13.7388583 C72.7431844,14.4136516 72.6403277,15.0471047 72.1881187,15.8343278 L69.2067765,10.973704 C69.1778427,10.9265256 69.1419544,10.8862587 69.1016016,10.8527315 C68.9125015,10.4960385 68.5397103,10.2746132 68.0699865,10.2746132 C68.0350427,10.2746132 67.9989398,10.2758152 67.9627082,10.2782621 C67.7017028,10.2956053 67.4639218,10.4345219 67.3205835,10.6533715 C66.9748802,11.1811775 66.5597185,11.5646579 66.0513162,11.8257062 C66.0500712,11.8263931 66.0487404,11.827037 66.0474955,11.8276809 C65.826242,11.9427294 65.6036576,12.0262253 65.3859242,12.0757648 C65.1593046,12.1274078 64.9505003,12.1535942 64.7650491,12.1535942 C64.5771081,12.1535942 64.4193458,12.1399 64.2961839,12.1129409 C64.2359123,12.0997189 64.1961605,12.0793708 64.1488533,12.0055767 C64.1266592,11.9710192 64.0965663,11.913538 64.0672032,11.8237315 C64.6579425,11.4302058 65.229321,10.9800575 65.7713793,10.4807559 C66.6862718,9.64214744 67.3887969,8.80225109 67.8580914,7.98579371 C68.2313977,7.33619946 68.4672041,6.68548907 68.5628917,6.04370781 L68.5628917,6.04370781 Z M74.1356995,19.0094494 L72.7631032,16.7717148 C73.4474696,15.7618215 73.7286513,14.8730296 73.7286513,13.7388583 C73.7286513,13.0558657 73.6201281,12.5129917 73.3972003,12.0844364 C73.3856525,12.0400912 73.367923,11.9970339 73.3438831,11.9566811 C73.331906,11.9365476 72.1335995,9.92113984 70.8857965,7.89461355 C69.4900617,5.62781638 68.7704511,4.54052301 68.375938,4.00374489 C67.9876496,3.08275658 67.2179843,2.95628919 66.8266051,2.95628919 C66.1882152,2.95628919 65.4500165,3.25876349 64.5033999,3.90827188 C64.5008241,3.91007488 64.4982055,3.91183495 64.4956727,3.91368087 C64.1042076,4.18885264 63.6966014,4.51742747 63.284273,4.8902616 C62.8758512,5.25961853 62.4702626,5.66821211 62.0786258,6.10475215 C61.6840698,6.54472648 61.3060413,7.02033147 60.9548861,7.51847393 C60.7751873,7.77346929 60.6055338,8.03331558 60.4469559,8.29603807 L59.9303113,7.65266846 L59.9302683,7.65279724 C59.9285083,7.6495776 59.9271775,7.64614332 59.9253745,7.64288076 C59.8138891,7.44382124 59.6256476,7.29915216 59.4046087,7.24252945 C59.0924326,7.16263949 58.7892714,7.12211497 58.5034963,7.12211497 C58.3623474,7.12211497 58.2056583,7.1453393 58.0104194,7.19509344 C57.8817197,7.22793375 57.7570124,7.28262468 57.6350954,7.35998186 C57.4016502,7.30400308 57.1349353,7.27635712 56.8320747,7.27635712 C55.526361,7.27635712 54.2455459,7.56513722 53.0251742,8.13458394 C52.2167015,8.51299878 51.50602,8.97529593 50.9009855,9.51477854 L50.2265786,8.53781146 C50.0205217,8.03447465 49.5304069,7.7317857 49.3415214,7.61510601 C48.9804497,7.39277924 48.5290135,7.28498575 47.9605112,7.28498575 C47.7736005,7.28498575 47.5838135,7.29773551 47.3916225,7.32177548 L47.3916655,7.32177548 L44.7571427,3.8101373 C44.701679,3.7362144 44.629044,3.68233912 44.5486389,3.64971345 C44.1328333,3.29216187 43.5381876,3.11053133 42.7789539,3.11053133 C42.0321265,3.11053133 41.3746764,3.31478519 40.8247621,3.71758343 C40.5333205,3.92926392 40.3031378,4.19503434 40.1432291,4.5055792 C39.9822901,4.81827049 39.9007259,5.18599613 39.9007259,5.59858206 C39.9007259,5.95111101 40.0106658,6.44547576 40.5072199,6.87506138 L40.8148456,7.30966964 L40.8148886,7.30962671 C40.2833048,7.36478985 39.6943256,7.72972514 38.8833202,8.49994851 C38.8819464,8.50127929 38.8805298,8.50261008 38.8791561,8.50394086 C38.5474045,8.82337192 38.2101152,9.19290056 37.8766465,9.60222392 C37.540688,10.0143806 37.2321608,10.4486025 36.9595647,10.892655 C36.8760688,11.0287384 36.7958783,11.167097 36.7204529,11.3052839 C36.5520014,11.4755384 36.3692977,11.6317552 36.1762911,11.7706719 C35.7654223,12.0639595 35.474324,12.1716671 35.2807165,12.2029191 C35.332059,12.087055 35.4297213,11.9021619 35.6146144,11.6278916 C35.6155159,11.6265179 35.6163745,11.6251871 35.6173189,11.6238564 C35.7573517,11.4134637 35.9744841,11.1087571 36.2627062,10.7181077 C36.5845842,10.2815247 36.8439582,9.87421898 37.0339169,9.50709434 C37.3608175,8.88338598 37.3925846,8.34544879 37.1284026,7.90830775 C36.8680841,7.47760598 36.3943679,7.25922864 35.7203903,7.25922864 C35.2841507,7.25922864 34.8227551,7.31907099 34.3488672,7.43712439 C33.7359339,7.58243741 33.1352782,7.7900397 32.5501626,8.0583429 C32.523461,7.96965259 32.4818204,7.88469707 32.4255411,7.8075116 C32.2614683,7.58235155 31.9515244,7.30357379 31.4071051,7.25407722 C31.4028122,7.25369086 31.3984335,7.2533045 31.3941406,7.253004 C31.2963066,7.24566323 31.2141414,7.24210016 31.1430088,7.24210016 C31.0481798,7.24210016 30.9484568,7.25072879 30.8386028,7.2685012 C30.1090756,7.37165841 29.3399684,7.99347792 28.3480193,9.28137622 C28.0266993,9.69799744 27.7006144,10.1608527 27.3790798,10.6565482 C27.291892,10.7908715 27.2037168,10.929917 27.1151982,11.0725684 C27.133357,10.8808926 27.1424149,10.6877572 27.1424149,10.4931193 C27.1424149,9.37620531 26.6226794,8.44276773 25.6396165,7.79347398 C25.2012734,7.49949952 24.751726,7.30503336 24.3033377,7.21544156 C23.9086101,7.13649602 23.4945216,7.09640079 23.0729636,7.09640079 C22.5137768,7.09640079 22.0908451,7.20977499 21.7799998,7.44291974 C21.5313149,7.62858556 21.3521313,7.86383381 21.2513781,8.12793002 C20.9597217,8.24555414 20.6790122,8.38215267 20.4090348,8.53613724 C18.7543123,6.04770016 15.6684392,1.40249168 15.4911873,1.11967864 C15.4716978,1.08868425 15.4491603,1.05987922 15.4243476,1.03343525 C15.387515,0.961873423 15.3471192,0.891170163 15.3027312,0.821583044 C14.9744139,0.303049541 14.4806931,0.0161153636 13.9139938,0.0161153636 C13.5245034,0.0161153636 12.9544557,0.167094942 12.4509471,0.886190455 C12.3073083,1.09022968 12.1815278,1.32388957 12.0783706,1.57888493 C12.0122607,1.74132642 11.9551228,1.91402783 11.9077727,2.09437051 C11.7887748,2.13541017 11.5723293,2.19486616 11.1998815,2.25561 C10.8343023,2.31493721 10.402699,2.36726707 9.91777854,2.41096829 C9.42414358,2.45578566 8.88483267,2.50326459 8.31414103,2.5522031 C7.75315123,2.60036889 7.16365689,2.65712038 6.561885,2.7208263 C5.94796435,2.78633521 5.34584903,2.87300787 4.77168017,2.97861201 C4.18463277,3.08649136 3.62149654,3.22055711 3.0979404,3.37694568 C2.53441782,3.54552595 2.03271229,3.76171394 1.60651802,4.01954258 C1.14267544,4.30003749 0.76430353,4.64192016 0.482005631,5.03557462 C0.162145285,5.48177358 4.29285137e-06,6.01722091 4.29285137e-06,6.62727801 C4.29285137e-06,7.24489052 0.232333403,7.86640952 0.690638202,8.47466361 C0.843420778,8.67655641 1.0038017,8.85071738 1.16920526,8.9957299 L2.18236108,11.1663672 C2.13307915,11.2095962 2.084527,11.2528252 2.0373915,11.2958825 C1.68906955,11.6141974 1.40222123,11.9453051 1.1846166,12.2803192 C0.91609875,12.6938925 0.780015365,13.1422379 0.780015365,13.6131636 C0.780015365,14.424813 1.11138055,15.2026777 1.76432323,15.9255509 L5.21440192,22.5811445 C5.21822256,22.588657 5.22564919,22.6016644 5.22985619,22.6089193 L5.77526294,23.5593566 C5.77710887,23.5626191 5.77904065,23.5657958 5.78097243,23.5690584 C5.9492522,23.8838961 6.1683164,24.1904057 6.43249847,24.4806024 C7.17288652,25.2934967 7.96551858,25.7056105 8.78824352,25.7056105 C9.51901559,25.7056105 10.3011731,25.4251156 11.1108907,24.8733125 C11.4561218,24.640597 11.7974464,24.3646955 12.1252056,24.053335 C12.4440356,23.7503884 12.7493003,23.4193667 13.0328431,23.0691559 C13.3177167,22.7168416 13.5813837,22.3413888 13.816589,21.953358 C13.8869059,21.837451 13.9548617,21.7195693 14.0201989,21.6000134 C14.1355049,21.8217821 14.2455307,21.9676961 14.3622962,22.0625252 C14.6351499,22.3116393 15.0231807,22.4813787 15.6162381,22.6115809 C15.7924596,22.6500019 15.9530123,22.6675167 16.1087998,22.6642971 C16.1943564,22.7971608 16.2903874,22.9228984 16.3961633,23.0400503 C16.4505108,23.2212087 16.5232746,23.3937813 16.6123513,23.5529173 C17.3461713,24.8857617 18.7708398,25.1654839 19.8368406,25.1654839 C20.7295391,25.1654839 21.6272601,24.8491866 22.5051911,24.2252207 C22.5057063,24.2249202 22.5063931,24.2244051 22.5070371,24.2238899 C22.50884,24.2226879 22.5105143,24.221443 22.5122314,24.2201981 C22.5659779,24.1813907 22.6194239,24.1416389 22.6725265,24.1011573 C22.7206923,24.1526715 22.770661,24.2026832 22.822347,24.2510637 C23.5043523,24.8920722 24.4523426,25.2169981 25.6399599,25.2169981 L25.6551137,25.2169981 C25.6631842,25.2169981 25.6711689,25.2167835 25.6792395,25.2164401 L25.7361627,25.2136068 C25.7553947,25.2159249 25.7747125,25.2169981 25.7941591,25.2169981 L25.854259,25.2169981 C26.471013,25.2169981 27.0666461,25.1809811 27.6296106,25.109591 L29.3303095,28.060497 C29.7037875,28.6910309 30.4597157,29.4427521 31.9399767,29.4427521 C33.0882715,29.4427521 33.6078352,28.7232273 33.613416,28.0128463 C33.6217441,27.4001706 33.8673381,26.0948862 34.9287885,23.3241512 L35.0631548,23.5779446 C35.069594,23.5924974 35.0760333,23.6069213 35.0814852,23.6182974 C35.368677,24.2185239 36.1172644,25.2255838 37.9059238,25.2255838 C38.8734466,25.2255838 39.8144396,24.9664244 40.7033603,24.4548883 C40.7983611,24.4000685 40.8757183,24.353577 40.9466791,24.3084162 C40.9476665,24.3078581 40.9523457,24.3048531 40.953333,24.3042092 C41.0362709,24.2507203 41.1184361,24.1953854 41.199528,24.1383763 C41.7498716,24.8383687 42.5940178,25.2169981 43.6317717,25.2169981 C44.2997394,25.2169981 44.9654318,25.0881267 45.6106044,24.8338612 C45.971161,24.6917249 46.3280687,24.5094933 46.6700372,24.2928761 C46.8535995,24.1774413 47.0327402,24.053335 47.2059567,23.9216303 C47.3049499,24.0374943 47.4115843,24.1469191 47.5254307,24.2492607 C47.9539861,24.6346729 48.47106,24.9175288 49.0623144,25.0901444 C49.526157,25.225498 50.0406981,25.2940977 50.5916856,25.2940977 C51.8241632,25.2940977 52.9946949,24.9446167 54.070784,24.2552707 C54.1606763,24.1976606 54.2489802,24.1384622 54.3353524,24.0780618 C54.3730436,24.11996 54.4118939,24.1609138 54.4519033,24.2008373 C55.092225,24.8409444 55.93049,25.1654839 56.9434742,25.1654839 C57.0950118,25.1654839 57.2518297,25.1581002 57.4094632,25.1435904 C58.1511391,25.0754199 58.8383387,24.8423181 59.4581406,24.4492217 C59.9756009,24.9249555 60.7015649,25.1654839 61.6234118,25.1654839 C62.2008432,25.1654839 62.7885346,25.0288854 63.3700871,24.7595948 C63.6769831,24.6174585 63.9842224,24.4376739 64.2831766,24.2253066 C64.2836917,24.2248344 64.2845503,24.2243192 64.285323,24.2236753 C64.2869543,24.2225591 64.2885856,24.2213571 64.2902598,24.2202839 C64.4077122,24.1352855 64.5237909,24.0462947 64.6376802,23.953612 C64.8292702,24.1779994 65.04915,24.3731094 65.2954738,24.5370105 C65.9223589,24.9540181 66.7172232,25.1654839 67.6578728,25.1654839 C68.7364946,25.1654839 69.7645896,24.9091578 70.7136531,24.4034599 C71.1225901,24.1855977 71.519593,23.9202136 71.8929852,23.6150348 C72.2502792,23.3239366 72.5766218,23.0054929 72.8696518,22.6648551 C72.8851061,22.6572139 72.9004315,22.6490574 72.9153707,22.6396561 C73.0256969,22.5701548 73.0984608,22.4639926 73.1289829,22.3471412 C73.1822572,22.2777258 73.2343724,22.2076236 73.2848993,22.1365339 C73.6663621,21.6005285 73.927625,21.1603825 74.0835414,20.7906821 C74.2809267,20.3227614 74.3542915,20.0512814 74.3542915,19.7892029 C74.3542915,19.5049303 74.2786944,19.2354251 74.1356995,19.0094494 L74.1356995,19.0094494 Z" id="Fill-59"></path>
                    </g>
                    <path d="M65.090121,7.32479336 C65.2568124,7.05305587 65.4266805,6.81274206 65.5958618,6.60926091 C65.4601219,6.93770696 65.2326437,7.30770781 64.9193514,7.70659955 C64.872731,7.76622725 64.8251662,7.82521103 64.776657,7.88363673 C64.8759507,7.68998621 64.9807392,7.50307547 65.090121,7.32479336 M65.5751703,8.22161291 C66.2437389,7.37025465 66.5778945,6.6188769 66.5778945,5.96739379 C66.5778945,5.64169517 66.5094664,5.40734842 66.3723098,5.26448233 C66.326591,5.21301104 66.2464863,5.18738272 66.1322106,5.18738272 C66.0179779,5.18738272 65.8579833,5.2602324 65.6522269,5.4059747 C65.4466423,5.55167407 65.2349618,5.75021845 65.0179152,6.00160781 C64.8007399,6.25308304 64.5879003,6.54886049 64.3793966,6.88876845 C64.170764,7.2288052 63.9808053,7.59034913 63.8093918,7.97297097 C63.4321789,8.83604871 63.2122562,9.63889775 63.149323,10.3817757 C64.1093762,9.78159213 64.9179777,9.06168097 65.5751703,8.22161291" id="Fill-62"></path>
                    <path d="M54.3091102,10.5656814 C54.6997596,10.300512 55.1482338,10.0979753 55.6512701,9.95901567 C55.4115573,10.2849719 55.145143,10.6232056 54.8554614,10.9692524 C53.9641367,12.0328921 53.4897766,12.147039 53.3478979,12.1532637 C53.3421454,12.1166886 53.3372087,12.0644875 53.3372087,11.9930974 C53.3372087,11.8033963 53.3372087,11.2260936 54.3091102,10.5656814 M53.3348905,12.9874076 C53.9461496,12.9874076 54.6662325,12.4932575 55.4948386,11.504485 C55.9348559,10.9788683 56.319109,10.4759608 56.6477268,9.99597712 C56.9763016,9.51595049 57.2263172,9.15032835 57.3977308,8.8988102 C55.9691558,8.91040089 54.7833415,9.23597073 53.8405025,9.87603486 C52.949092,10.4817132 52.5034082,11.1873292 52.5034082,11.9930974 C52.5034082,12.6560853 52.7805546,12.9874076 53.3348905,12.9874076" id="Fill-64"></path>
                    <path d="M21.7496794,11.2823901 C21.7507096,11.2789129 21.7517399,11.2754357 21.7527273,11.2719155 C21.9304513,10.6536162 22.2858565,10.2494442 22.861399,10.0182313 C22.9512055,10.0929698 22.9718541,10.1908468 22.9718541,10.3474071 C22.9718541,10.7535967 22.7923271,11.163521 22.423056,11.600705 C22.1340613,11.9452922 21.8573011,12.1448668 21.6587568,12.1532808 C21.6529614,12.1167057 21.6480676,12.0645047 21.6480676,11.9931146 C21.6480676,11.7451165 21.6822387,11.5060047 21.7496794,11.2823901 M21.6457065,12.9874248 C22.1140995,12.9874248 22.5855834,12.7046117 23.0599863,12.138771 C23.5570556,11.5503928 23.8056975,10.9531284 23.8056975,10.3474071 C23.8056975,9.73030973 23.5085893,9.32175907 22.914287,9.1217122 C21.8913864,9.40740146 21.23707,10.0474226 20.9513378,11.041647 C20.8599859,11.3445935 20.8142241,11.6617923 20.8142241,11.9931146 C20.8142241,12.6561025 21.0913277,12.9874248 21.6457065,12.9874248" id="Fill-66"></path>
                </g>
                <g id="Group-83" transform="translate(41.898228, 37.716562)" fill="#FFFFFF">
                    <path d="M24.7433163,0.346476025 C24.7764581,0.405812337 24.8261707,0.52228732 24.8896249,0.687385115 C25.3219493,0.572833068 24.9249222,0.423942877 24.7433163,0.346476025" id="Fill-69"></path>
                    <path d="M24.9188169,0.402198393 C24.8744987,0.363675665 24.8380214,0.338448393 24.8162032,0.338448393 C24.6324532,0.338448393 24.7296123,0.362993847 24.9188169,0.402198393" id="Fill-71"></path>
                    <path d="M3.38575032,4.18199695 C3.11006341,4.31061078 2.83682343,4.37500355 2.5660733,4.37500355 C2.21182721,4.37500355 1.89355522,4.2955858 1.61117147,4.13687909 C1.32865893,3.97821531 1.10731952,3.75764861 0.946938593,3.475179 C0.786557671,3.1928811 0.706367209,2.87615453 0.706367209,2.52525687 C0.706367209,2.17775056 0.788146026,1.86604663 0.952004158,1.59035972 C1.11564765,1.31458696 1.34213848,1.09827019 1.63117615,0.941108901 C1.92021383,0.784119331 2.24694274,0.705517225 2.61119117,0.705517225 C2.87859287,0.705517225 3.14762586,0.764930286 3.41837599,0.883498838 C3.68904026,1.00215325 3.91462959,1.16004432 4.09505813,1.35721497 L3.42331277,2.15426867 C3.31972627,2.01062986 3.19527651,1.89446531 3.04992056,1.80581793 C2.90447876,1.71738519 2.76328689,1.67304004 2.626302,1.67304004 C2.48918833,1.67304004 2.36478151,1.70901413 2.25273809,1.78074768 C2.14078053,1.85269586 2.05397907,1.95216123 1.99216202,2.07914377 C1.9302591,2.20612631 1.8993935,2.34980804 1.8993935,2.51023189 C1.8993935,2.67061281 1.9302591,2.81519604 1.99216202,2.94376694 C2.05397907,3.07250955 2.14078053,3.17364912 2.25273809,3.24709981 C2.36478151,3.32067928 2.48918833,3.35738316 2.626302,3.35738316 C2.75324161,3.35738316 2.88941086,3.31973485 3.03485266,3.24460995 C3.18025153,3.1693992 3.30972392,3.07006262 3.42331277,2.94634265 L4.09505813,3.66320588 C3.89784454,3.88051001 3.66152308,4.05346899 3.38575032,4.18199695 M4.60388979,3.18635596 L4.00443604,2.54672113 L4.62831611,1.80659064 C4.85407716,1.53875965 4.8460066,1.14489055 4.6094705,0.886460905 C4.3639194,0.618071845 4.0573669,0.402270212 3.69809818,0.2447655 C3.33968802,0.0878188581 2.97398003,0.00818646734 2.61119117,0.00818646734 C2.13116454,0.00818646734 1.68938722,0.115937034 1.2980509,0.328476099 C0.898343517,0.545909015 0.580114454,0.850744383 0.352593338,1.234096 C0.124642936,1.61761933 0.0090793804,2.05205588 0.0090793804,2.52525687 C0.0090793804,2.99682658 0.120650584,3.43233634 0.340530426,3.81950859 C0.563758691,4.21251913 0.876278262,4.52387963 1.26954637,4.74478975 C1.65628933,4.96217974 2.09248595,5.0723343 2.5660733,5.0723343 C2.93800593,5.0723343 3.31302942,4.98540407 3.6803687,4.81403344 C4.03907935,4.64674103 4.35232871,4.41720227 4.61140228,4.13185645 C4.85557966,3.86290932 4.85231709,3.45143953 4.60388979,3.18635596" id="Fill-73"></path>
                    <path d="M8.92256254,1.78336632 C8.81223627,1.7098727 8.69023343,1.67304004 8.55659697,1.67304004 C8.42287466,1.67304004 8.29846783,1.71060249 8.18307599,1.78581324 C8.06781293,1.86106692 7.97581713,1.96375193 7.90743201,2.09408289 C7.83887517,2.22441385 7.80466115,2.37152987 7.80466115,2.53530214 C7.80466115,2.69903149 7.83887517,2.84692021 7.90743201,2.97888246 C7.97581713,3.1109735 8.06781293,3.21533271 8.18307599,3.29217475 C8.29846783,3.36910264 8.42287466,3.40756659 8.55659697,3.40756659 C8.69023343,3.40756659 8.81223627,3.36991828 8.92256254,3.29475046 C9.03284589,3.2195397 9.1197332,3.11513756 9.18322447,2.98141524 C9.24671574,2.84782171 9.27848284,2.69903149 9.27848284,2.53530214 C9.27848284,2.37152987 9.24671574,2.22364114 9.18322447,2.09163597 C9.1197332,1.95967372 9.03284589,1.85690286 8.92256254,1.78336632" id="Fill-75"></path>
                    <path d="M10.2234596,3.47774183 C10.0580131,3.75845137 9.82817386,3.97820243 9.53411355,4.13686621 C9.24005324,4.29561585 8.90920319,4.37499067 8.54152048,4.37499067 C8.1738807,4.37499067 7.84303065,4.29561585 7.54901327,4.13686621 C7.25495296,3.97820243 7.02515663,3.75845137 6.85971014,3.47774183 C6.69426366,3.19694643 6.61158334,2.88116429 6.61158334,2.53026663 C6.61158334,2.17936897 6.69426366,1.86521811 6.85971014,1.58777114 C7.02515663,1.31045294 7.25495296,1.09405031 7.54901327,0.938649098 C7.84303065,0.783162025 8.1738807,0.705504346 8.54152048,0.705504346 C8.90920319,0.705504346 9.24005324,0.784106453 9.53411355,0.941096023 C9.82817386,1.09825731 10.0580131,1.31547558 10.2234596,1.5928367 C10.3889061,1.87028368 10.4715435,2.18271739 10.4715435,2.53026663 C10.4715435,2.88116429 10.3889061,3.19694643 10.2234596,3.47774183 M10.8222694,1.23562855 C10.5918721,0.849271935 10.2690926,0.543363354 9.86294595,0.326145081 L9.86251667,0.325973367 C9.46757435,0.115151442 9.02317839,0.0082165173 8.54152048,0.0082165173 C8.06084992,0.0082165173 7.6172696,0.113863587 7.22318586,0.322066872 C6.81575135,0.53743922 6.49198451,0.8430473 6.26077154,1.23064884 C6.03088935,1.61623274 5.91429551,2.05345964 5.91429551,2.53026663 C5.91429551,3.0056999 6.0302025,3.4435278 6.25892561,3.83177327 C6.4891083,4.22233688 6.81171607,4.53137924 7.2178198,4.75048637 C7.61332018,4.96409865 8.05866057,5.07236435 8.54152048,5.07236435 C9.02429453,5.07236435 9.46963492,4.96409865 9.86534995,4.75048637 C10.2714966,4.53129338 10.5941473,4.22216516 10.8242012,3.83168741 C11.0529243,3.4435278 11.1688313,3.0056999 11.1688313,2.53026663 C11.1688313,2.05685099 11.0523233,1.6212983 10.8222694,1.23562855" id="Fill-77"></path>
                    <path d="M16.7176936,4.29480879 L15.745191,4.29480879 L14.3616051,2.50018233 L14.3616051,4.29480879 L13.3038895,4.29480879 L13.3038895,0.780723686 L14.276392,0.780723686 L15.6650006,2.5853525 L15.6650006,0.780723686 L16.7176936,0.780723686 L16.7176936,4.29480879 Z M16.7176936,0.0833929284 L15.6650006,0.0833929284 C15.351279,0.0833929284 15.0859379,0.290608858 14.9983637,0.575525396 L14.8290107,0.355473841 C14.6970914,0.183931505 14.4928375,0.0833929284 14.276392,0.0833929284 L13.3038895,0.0833929284 C12.9187778,0.0833929284 12.6065587,0.395612 12.6065587,0.780723686 L12.6065587,4.29480879 C12.6065587,4.67996341 12.9187778,4.99209662 13.3038895,4.99209662 L14.3616051,4.99209662 C14.6735237,4.99209662 14.937534,4.78737055 15.0266965,4.50498679 L15.1929157,4.72053085 C15.3250068,4.89181562 15.5289601,4.99209662 15.745191,4.99209662 L16.7176936,4.99209662 C17.1028052,4.99209662 17.4149814,4.67996341 17.4149814,4.29480879 L17.4149814,0.780723686 C17.4149814,0.395612 17.1028052,0.0833929284 16.7176936,0.0833929284 L16.7176936,0.0833929284 Z" id="Fill-79"></path>
                    <path d="M22.5526615,1.66300765 L20.888366,1.66300765 L20.888366,2.2695446 L22.4474008,2.2695446 L22.4474008,3.15185432 L20.888366,3.15185432 L20.888366,4.29482596 L19.7253896,4.29482596 L19.7253896,0.780697929 L22.5526615,0.780697929 L22.5526615,1.66300765 Z M23.2499922,0.780697929 C23.2499922,0.395629171 22.9377732,0.0834100998 22.5526615,0.0834100998 L19.7253896,0.0834100998 C19.340278,0.0834100998 19.0280589,0.395629171 19.0280589,0.780697929 L19.0280589,4.29482596 C19.0280589,4.67993765 19.340278,4.99211379 19.7253896,4.99211379 L20.888366,4.99211379 C21.2734777,4.99211379 21.5856967,4.67993765 21.5856967,4.29482596 L21.5856967,3.84914215 L22.4474008,3.84914215 C22.8325124,3.84914215 23.1446886,3.53692308 23.1446886,3.15185432 L23.1446886,2.2695446 C23.1446886,2.20137412 23.1349009,2.13543593 23.1166992,2.07314666 C23.2005386,1.95805531 23.2499922,1.81634829 23.2499922,1.66300765 L23.2499922,0.780697929 Z" id="Fill-81"></path>
                </g>
            </g>
        </g>
    </g>
</svg>