<?xml version="1.0" encoding="utf-8"?>
<!-- Generator: Adobe Illustrator 21.1.0, SVG Export Plug-In . SVG Version: 6.00 Build 0)  -->
<svg version="1.1" id="Layer_1" xmlns="http://www.w3.org/2000/svg" xmlns:xlink="http://www.w3.org/1999/xlink" x="0px" y="0px"
	 viewBox="0 0 76 74" style="enable-background:new 0 0 76 74;" xml:space="preserve">
<style type="text/css">
	.st0{fill:#FF5512;}
</style>
<path class="st0" d="M38,0.2C17.7,0.2,1.2,16.7,1.2,37S17.7,73.8,38,73.8S74.8,57.3,74.8,37S58.3,0.2,38,0.2z M55.3,30.3
	c0,0.4,0,0.8,0,1.1c0,1.7-0.2,3.5-0.6,5.3c-2.3,10-10.8,19.7-24.8,19.7c-5,0-9.7-1.5-13.7-4c0.7,0.1,1.4,0.1,2.1,0.1
	c4.2,0,8-1.4,11.1-3.8c-3.9-0.1-7.2-2.6-8.3-6.1c0.5,0.1,1.1,0.2,1.7,0.2c0.8,0,1.6-0.1,2.4-0.3c-3-0.6-5.5-2.7-6.6-5.4
	c-0.4-1-0.6-2.1-0.6-3.2v-0.1c1.2,0.7,2.6,1.1,4,1.1c-2.4-1.6-4-4.3-4-7.3c0-1.6,0.4-3.1,1.2-4.4c4.4,5.3,11,8.8,18.4,9.2
	c-0.1-0.6-0.2-1.3-0.2-2c0-4.9,4-8.8,8.9-8.8c2.6,0,4.9,1.1,6.5,2.8c2-0.4,4-1.1,5.7-2.1c-0.7,2.1-2.1,3.8-3.9,4.9
	c1.8-0.2,3.5-0.7,5.1-1.4C58.6,27.5,57.1,29.1,55.3,30.3z"/>
</svg>
