<?xml version="1.0" encoding="utf-8"?>
<!-- Generator: Adobe Illustrator 21.1.0, SVG Export Plug-In . SVG Version: 6.00 Build 0)  -->
<svg version="1.1" id="Layer_1" xmlns="http://www.w3.org/2000/svg" xmlns:xlink="http://www.w3.org/1999/xlink" x="0px" y="0px"
	 viewBox="0 0 76 74" style="enable-background:new 0 0 76 74;" xml:space="preserve">
<g>
	<polygon points="33.5,30.2 33.5,33.2 33.5,43 45.3,36.6 38.8,33.1 	"/>
	<path d="M38,0.2C17.7,0.2,1.2,16.7,1.2,37c0,20.3,16.5,36.8,36.8,36.8c20.3,0,36.8-16.5,36.8-36.8C74.8,16.7,58.3,0.2,38,0.2z
		 M59.8,36v2.8c0,3.7-0.4,7.4-0.4,7.4s-0.4,3.1-1.7,4.5c-1.7,1.8-3.5,1.8-4.4,1.9C47.1,53.1,38,53.1,38,53.1S26.7,53,23.2,52.6
		c-1-0.2-3.1-0.1-4.8-1.9c-1.3-1.4-1.7-4.5-1.7-4.5s-0.4-3.7-0.4-7.4v-3v-0.4c0-3.7,0.4-7.3,0.4-7.3s0.4-3.1,1.7-4.5
		c1.7-1.8,3.5-1.8,4.4-1.9c6.1-0.5,15.2-0.5,15.2-0.5h0c0,0,9.1,0,15.2,0.5c0.8,0.1,2.7,0.1,4.4,1.9c1.3,1.4,1.7,4.5,1.7,4.5
		s0.4,3.7,0.4,7.4V36z"/>
</g>
</svg>
